<?xml version="1.0" encoding="utf-8" standalone="no"?>
<!DOCTYPE svg PUBLIC "-//W3C//DTD SVG 1.1//EN"
  "http://www.w3.org/Graphics/SVG/1.1/DTD/svg11.dtd">
<!-- Created with matplotlib (https://matplotlib.org/) -->
<svg height="288pt" version="1.1" viewBox="0 0 432 288" width="432pt" xmlns="http://www.w3.org/2000/svg" xmlns:xlink="http://www.w3.org/1999/xlink">
 <metadata>
  <rdf:RDF xmlns:cc="http://creativecommons.org/ns#" xmlns:dc="http://purl.org/dc/elements/1.1/" xmlns:rdf="http://www.w3.org/1999/02/22-rdf-syntax-ns#">
   <cc:Work>
    <dc:type rdf:resource="http://purl.org/dc/dcmitype/StillImage"/>
    <dc:date>2021-06-04T22:39:08.305509</dc:date>
    <dc:format>image/svg+xml</dc:format>
    <dc:creator>
     <cc:Agent>
      <dc:title>Matplotlib v3.3.4, https://matplotlib.org/</dc:title>
     </cc:Agent>
    </dc:creator>
   </cc:Work>
  </rdf:RDF>
 </metadata>
 <defs>
  <style type="text/css">*{stroke-linecap:butt;stroke-linejoin:round;}</style>
 </defs>
 <g id="figure_1">
  <g id="patch_1">
   <path d="M 0 288 
L 432 288 
L 432 0 
L 0 0 
z
" style="fill:none;"/>
  </g>
  <g id="axes_1">
   <g id="patch_2">
    <path d="M 55.4875 245.2 
L 412.7625 245.2 
L 412.7625 10.8 
L 55.4875 10.8 
z
" style="fill:#ffffff;"/>
   </g>
   <g id="matplotlib.axis_1">
    <g id="xtick_1">
     <g id="text_1">
      <text style="fill:#262626;font-family:Arial;font-size:10px;font-stretch:normal;font-style:normal;font-weight:normal;text-anchor:middle;" transform="rotate(-0, 55.4875, 259.357812)" x="55.4875" y="259.357812">0</text>
     </g>
    </g>
    <g id="xtick_2">
     <g id="text_2">
      <text style="fill:#262626;font-family:Arial;font-size:10px;font-stretch:normal;font-style:normal;font-weight:normal;text-anchor:middle;" transform="rotate(-0, 126.9425, 259.357812)" x="126.9425" y="259.357812">100</text>
     </g>
    </g>
    <g id="xtick_3">
     <g id="text_3">
      <text style="fill:#262626;font-family:Arial;font-size:10px;font-stretch:normal;font-style:normal;font-weight:normal;text-anchor:middle;" transform="rotate(-0, 198.3975, 259.357812)" x="198.3975" y="259.357812">200</text>
     </g>
    </g>
    <g id="xtick_4">
     <g id="text_4">
      <text style="fill:#262626;font-family:Arial;font-size:10px;font-stretch:normal;font-style:normal;font-weight:normal;text-anchor:middle;" transform="rotate(-0, 269.8525, 259.357812)" x="269.8525" y="259.357812">300</text>
     </g>
    </g>
    <g id="xtick_5">
     <g id="text_5">
      <text style="fill:#262626;font-family:Arial;font-size:10px;font-stretch:normal;font-style:normal;font-weight:normal;text-anchor:middle;" transform="rotate(-0, 341.3075, 259.357812)" x="341.3075" y="259.357812">400</text>
     </g>
    </g>
    <g id="xtick_6">
     <g id="text_6">
      <text style="fill:#262626;font-family:Arial;font-size:10px;font-stretch:normal;font-style:normal;font-weight:normal;text-anchor:middle;" transform="rotate(-0, 412.7625, 259.357812)" x="412.7625" y="259.357812">500</text>
     </g>
    </g>
    <g id="text_7">
     <!-- Time $t$ -->
     <g style="fill:#262626;" transform="translate(219.625 272.503125)">
      <text>
       <tspan style="font-family:Arial;font-size:10px;font-style:regular;font-weight:regular;" x="0 6.108398 8.330078 16.660156 22.22168" y="-0.84375">Time </tspan>
       <tspan style="font-family:DejaVu Sans;font-size:10px;font-style:oblique;font-weight:oblique;" x="25" y="-0.84375">t</tspan>
      </text>
     </g>
    </g>
   </g>
   <g id="matplotlib.axis_2">
    <g id="ytick_1">
     <g id="text_8">
      <text style="fill:#262626;font-family:Arial;font-size:10px;font-stretch:normal;font-style:normal;font-weight:normal;text-anchor:end;" transform="rotate(-0, 48.4875, 229.111272)" x="48.4875" y="229.111272">0.70</text>
     </g>
    </g>
    <g id="ytick_2">
     <g id="text_9">
      <text style="fill:#262626;font-family:Arial;font-size:10px;font-stretch:normal;font-style:normal;font-weight:normal;text-anchor:end;" transform="rotate(-0, 48.4875, 191.790518)" x="48.4875" y="191.790518">0.75</text>
     </g>
    </g>
    <g id="ytick_3">
     <g id="text_10">
      <text style="fill:#262626;font-family:Arial;font-size:10px;font-stretch:normal;font-style:normal;font-weight:normal;text-anchor:end;" transform="rotate(-0, 48.4875, 154.469764)" x="48.4875" y="154.469764">0.80</text>
     </g>
    </g>
    <g id="ytick_4">
     <g id="text_11">
      <text style="fill:#262626;font-family:Arial;font-size:10px;font-stretch:normal;font-style:normal;font-weight:normal;text-anchor:end;" transform="rotate(-0, 48.4875, 117.149011)" x="48.4875" y="117.149011">0.85</text>
     </g>
    </g>
    <g id="ytick_5">
     <g id="text_12">
      <text style="fill:#262626;font-family:Arial;font-size:10px;font-stretch:normal;font-style:normal;font-weight:normal;text-anchor:end;" transform="rotate(-0, 48.4875, 79.828257)" x="48.4875" y="79.828257">0.90</text>
     </g>
    </g>
    <g id="ytick_6">
     <g id="text_13">
      <text style="fill:#262626;font-family:Arial;font-size:10px;font-stretch:normal;font-style:normal;font-weight:normal;text-anchor:end;" transform="rotate(-0, 48.4875, 42.507503)" x="48.4875" y="42.507503">0.95</text>
     </g>
    </g>
    <g id="text_14">
     <!-- $\bar{\rho}$ -->
     <g style="fill:#262626;" transform="translate(22.926562 131.2)rotate(-90)">
      <text>
       <tspan style="font-family:DejaVu Sans;font-size:10px;font-style:book;font-weight:book;" x="6.524414" y="-0.546875">̄</tspan>
       <tspan style="font-family:DejaVu Sans;font-size:10px;font-style:oblique;font-weight:oblique;" x="0" y="-0.4375">ρ</tspan>
      </text>
     </g>
    </g>
   </g>
   <g id="line2d_1">
    <path clip-path="url(#pd91fcfe853)" d="M 55.4875 226.636618 
L 56.20205 228.874968 
L 56.9166 230.068755 
L 57.63115 230.964095 
L 58.3457 227.084288 
L 59.06025 227.830405 
L 59.7748 227.233512 
L 60.48935 230.964095 
L 61.2039 233.500891 
L 62.633 232.605551 
L 63.34755 233.799338 
L 64.0621 234.545455 
L 64.77665 233.948561 
L 65.4912 229.919531 
L 66.20575 229.173415 
L 66.9203 229.919531 
L 67.63485 230.964095 
L 68.3494 225.442832 
L 69.06395 225.442832 
L 69.7785 224.995162 
L 70.49305 225.144385 
L 71.2076 222.906035 
L 71.92215 222.906035 
L 72.6367 221.861472 
L 73.35125 223.055258 
L 74.0658 225.741278 
L 74.78035 224.995162 
L 75.4949 228.128852 
L 76.20945 226.935065 
L 76.924 222.607588 
L 77.63855 222.010695 
L 78.3531 222.458365 
L 79.06765 221.264579 
L 79.7822 219.772345 
L 80.49675 215.444869 
L 81.2113 214.847976 
L 81.92585 210.371276 
L 82.6404 208.431373 
L 83.35495 206.043799 
L 84.0695 203.059333 
L 84.78405 202.163993 
L 85.4986 200.970206 
L 86.9277 194.702827 
L 87.64225 196.045837 
L 88.3568 193.50904 
L 89.07135 192.016807 
L 89.7859 194.40438 
L 90.50045 190.673797 
L 91.215 187.68933 
L 91.92955 186.79399 
L 92.6441 182.615737 
L 93.35865 177.691367 
L 94.0732 175.303794 
L 94.78775 176.796028 
L 95.5023 173.363891 
L 96.21685 171.423988 
L 96.9314 168.887191 
L 97.64595 167.245735 
L 98.3605 163.216705 
L 99.7896 160.083015 
L 100.50415 155.755539 
L 101.2187 153.815635 
L 101.93325 151.428062 
L 104.0769 138.744079 
L 104.79145 138.296409 
L 105.506 137.997963 
L 106.22055 135.61039 
L 106.9351 128.89534 
L 108.3642 124.120194 
L 109.07875 122.777184 
L 109.7933 122.926407 
L 110.50785 123.374077 
L 111.2224 120.986504 
L 112.6515 112.779221 
L 113.36605 109.943978 
L 114.0806 108.899414 
L 115.5097 102.035141 
L 116.22425 102.184365 
L 116.9388 99.498345 
L 117.65335 98.901451 
L 118.3679 89.948052 
L 119.08245 90.395722 
L 119.797 88.605042 
L 120.51155 91.440285 
L 121.2261 91.887955 
L 121.94065 89.351159 
L 122.6552 85.919022 
L 123.36975 86.665139 
L 124.0843 86.963585 
L 125.5134 84.576012 
L 126.22795 82.039216 
L 126.9425 82.785332 
L 127.65705 82.188439 
L 128.3716 80.546982 
L 129.08615 79.651642 
L 129.8007 79.054749 
L 130.51525 76.667176 
L 131.2298 72.638146 
L 131.94435 71.89203 
L 132.6589 68.75834 
L 133.37345 68.31067 
L 134.088 68.907563 
L 134.80255 73.682709 
L 135.5171 71.593583 
L 136.23165 68.012223 
L 136.9462 72.787369 
L 137.66075 75.771836 
L 138.3753 71.742806 
L 139.08985 72.488923 
L 140.51895 66.669213 
L 141.2335 61.297173 
L 141.94805 63.983193 
L 142.6626 61.14795 
L 143.37715 63.83397 
L 144.80625 58.01426 
L 145.5208 57.417367 
L 146.23535 61.59562 
L 146.9499 57.268144 
L 147.66445 56.969697 
L 148.379 56.074357 
L 149.09355 58.163484 
L 149.8081 52.642221 
L 151.2372 47.419404 
L 151.95175 50.702317 
L 152.6663 48.762414 
L 153.38085 49.359307 
L 154.0954 47.270181 
L 154.80995 48.911637 
L 155.5245 52.492997 
L 156.23905 52.940667 
L 156.9536 54.134454 
L 158.3827 46.822511 
L 159.8118 49.956201 
L 160.52635 52.791444 
L 161.2409 52.492997 
L 161.95545 49.359307 
L 162.67 49.806977 
L 163.38455 51.896104 
L 164.0991 50.403871 
L 164.81365 46.822511 
L 165.5282 49.359307 
L 166.24275 46.673287 
L 166.9573 45.479501 
L 167.67185 45.479501 
L 168.3864 48.762414 
L 169.10095 48.911637 
L 169.8155 43.688821 
L 170.53005 45.031831 
L 171.2446 44.285714 
L 171.95915 46.822511 
L 172.6737 41.301248 
L 173.38825 42.942704 
L 174.1028 42.942704 
L 174.81735 40.853578 
L 175.5319 42.345811 
L 176.24645 46.524064 
L 177.67555 36.973771 
L 178.3901 41.599694 
L 179.10465 42.196588 
L 179.8192 45.181054 
L 180.53375 42.644258 
L 181.2483 43.241151 
L 181.96285 46.524064 
L 182.6774 43.838044 
L 183.39195 42.196588 
L 184.1065 38.913675 
L 184.82105 37.719888 
L 185.5356 41.898141 
L 186.25015 37.869111 
L 186.9647 38.615228 
L 187.67925 40.704354 
L 188.3938 40.555131 
L 189.10835 42.345811 
L 189.8229 39.659791 
L 190.53745 38.167558 
L 191.252 40.704354 
L 191.96655 40.555131 
L 192.6811 41.002801 
L 193.39565 36.376878 
L 194.1102 36.824548 
L 194.82475 38.913675 
L 195.5393 39.361345 
L 196.25385 36.227655 
L 196.9684 35.929208 
L 198.3975 39.659791 
L 199.11205 39.062898 
L 199.8266 35.779985 
L 200.54115 37.272218 
L 201.2557 35.630761 
L 202.6848 38.316781 
L 203.39935 36.227655 
L 204.1139 35.183091 
L 204.82845 36.824548 
L 205.543 38.018335 
L 206.25755 36.824548 
L 206.9721 36.078431 
L 207.68665 34.138528 
L 208.4012 36.078431 
L 209.11575 31.900178 
L 209.8303 30.706392 
L 210.54485 35.332315 
L 211.2594 32.646295 
L 212.6885 35.183091 
L 213.40305 32.944742 
L 214.1176 36.227655 
L 214.83215 33.989305 
L 215.5467 36.675325 
L 216.26125 37.570665 
L 216.9758 32.795518 
L 217.69035 36.227655 
L 218.4049 37.421441 
L 219.11945 34.735421 
L 219.834 40.555131 
L 220.54855 38.615228 
L 221.2631 34.586198 
L 221.97765 35.033868 
L 222.6922 37.272218 
L 223.40675 31.154062 
L 224.1213 33.392412 
L 224.83585 36.526101 
L 225.5504 32.497072 
L 226.26495 33.243188 
L 226.9795 33.243188 
L 227.69405 31.601732 
L 228.4086 34.735421 
L 229.12315 33.243188 
L 229.8377 34.735421 
L 230.55225 35.630761 
L 231.2668 37.421441 
L 231.98135 36.824548 
L 232.6959 33.093965 
L 233.41045 35.929208 
L 234.125 35.630761 
L 234.83955 35.630761 
L 235.5541 35.481538 
L 236.26865 34.287751 
L 236.9832 32.198625 
L 237.69775 36.078431 
L 238.4123 33.093965 
L 239.12685 33.392412 
L 239.8414 33.541635 
L 240.55595 32.497072 
L 241.2705 31.154062 
L 241.98505 32.646295 
L 242.6996 29.214158 
L 243.41415 30.855615 
L 244.1287 31.900178 
L 244.84325 37.122995 
L 245.5578 29.661828 
L 246.27235 33.541635 
L 246.9869 33.541635 
L 247.70145 32.347848 
L 248.416 30.109498 
L 249.13055 30.557168 
L 249.8451 33.541635 
L 250.55965 31.900178 
L 251.2742 32.049402 
L 251.98875 27.125032 
L 252.7033 28.020372 
L 253.41785 30.407945 
L 254.1324 31.004838 
L 254.84695 31.452508 
L 255.5615 31.750955 
L 256.27605 31.900178 
L 256.9906 33.243188 
L 257.70515 33.690858 
L 258.4197 31.004838 
L 259.13425 33.989305 
L 259.8488 31.452508 
L 260.56335 30.706392 
L 261.2779 30.407945 
L 261.99245 28.617265 
L 262.707 27.274255 
L 263.42155 28.468042 
L 264.1361 27.423478 
L 264.85065 25.632799 
L 265.5652 29.064935 
L 266.27975 29.064935 
L 266.9943 32.944742 
L 267.70885 32.795518 
L 268.4234 27.871148 
L 269.13795 27.125032 
L 269.8525 29.512605 
L 270.56705 32.347848 
L 271.2816 33.541635 
L 271.99615 32.795518 
L 272.7107 27.125032 
L 273.42525 27.274255 
L 274.1398 26.826585 
L 274.85435 29.960275 
L 275.5689 33.989305 
L 276.28345 34.138528 
L 276.998 32.347848 
L 277.71255 32.795518 
L 278.4271 30.407945 
L 279.14165 28.468042 
L 279.8562 30.855615 
L 280.57075 29.064935 
L 281.99985 31.601732 
L 282.7144 31.452508 
L 283.42895 32.049402 
L 284.1435 29.512605 
L 284.85805 32.795518 
L 285.5726 30.109498 
L 286.28715 28.617265 
L 287.0017 29.811052 
L 287.71625 29.064935 
L 288.4308 29.811052 
L 289.14535 31.154062 
L 289.8599 32.049402 
L 290.57445 33.690858 
L 291.289 31.303285 
L 292.00355 30.557168 
L 292.7181 32.795518 
L 293.43265 32.049402 
L 294.1472 28.915712 
L 295.5763 29.811052 
L 296.29085 27.572702 
L 297.0054 29.960275 
L 297.71995 29.960275 
L 298.4345 31.303285 
L 299.14905 29.064935 
L 299.8636 24.886682 
L 300.57815 30.855615 
L 301.2927 27.721925 
L 302.00725 29.214158 
L 302.7218 31.601732 
L 303.43635 28.318818 
L 304.1509 29.363382 
L 304.86545 27.125032 
L 305.58 27.572702 
L 307.0091 30.855615 
L 307.72365 27.871148 
L 308.4382 29.512605 
L 309.15275 27.871148 
L 309.8673 29.214158 
L 310.58185 28.318818 
L 311.2964 26.826585 
L 312.7255 29.512605 
L 313.44005 29.512605 
L 314.1546 29.214158 
L 314.86915 29.661828 
L 315.5837 27.125032 
L 316.29825 27.721925 
L 317.0128 27.274255 
L 317.72735 26.080469 
L 318.4419 27.721925 
L 319.15645 29.811052 
L 319.871 27.274255 
L 320.58555 25.931245 
L 321.3001 28.020372 
L 322.01465 28.617265 
L 322.7292 31.452508 
L 323.44375 31.303285 
L 324.1583 29.064935 
L 324.87285 28.915712 
L 325.5874 25.185129 
L 326.30195 29.064935 
L 327.0165 27.125032 
L 327.73105 28.766488 
L 328.4456 29.811052 
L 329.16015 24.289789 
L 329.8747 29.064935 
L 330.58925 28.617265 
L 331.3038 31.452508 
L 332.01835 29.214158 
L 332.7329 29.064935 
L 333.44745 29.811052 
L 334.87655 28.915712 
L 335.5911 25.782022 
L 336.30565 30.855615 
L 337.0202 29.064935 
L 337.73475 31.900178 
L 338.4493 29.811052 
L 339.16385 29.512605 
L 339.8784 26.975809 
L 340.59295 29.064935 
L 341.3075 28.617265 
L 342.02205 30.855615 
L 342.7366 29.064935 
L 343.45115 28.915712 
L 344.1657 30.109498 
L 344.88025 28.318818 
L 345.5948 28.169595 
L 346.30935 28.617265 
L 347.0239 26.975809 
L 347.73845 29.214158 
L 348.453 30.258722 
L 349.16755 30.855615 
L 349.8821 28.169595 
L 350.59665 26.378915 
L 351.3112 28.318818 
L 352.02575 28.169595 
L 352.7403 31.452508 
L 353.45485 27.274255 
L 354.1694 29.064935 
L 354.88395 28.318818 
L 355.5985 25.632799 
L 356.31305 31.750955 
L 357.0276 29.811052 
L 357.74215 28.617265 
L 358.4567 26.378915 
L 359.17125 28.766488 
L 359.8858 28.766488 
L 360.60035 29.661828 
L 361.3149 28.617265 
L 362.02945 28.915712 
L 362.744 25.632799 
L 363.45855 27.423478 
L 364.1731 26.826585 
L 364.88765 25.782022 
L 365.6022 27.274255 
L 366.31675 29.811052 
L 367.0313 29.661828 
L 367.74585 26.080469 
L 368.4604 26.975809 
L 369.17495 27.572702 
L 369.8895 29.064935 
L 370.60405 23.692895 
L 371.3186 24.289789 
L 372.03315 31.154062 
L 372.7477 26.378915 
L 373.46225 27.274255 
L 374.1768 30.109498 
L 374.89135 28.468042 
L 375.6059 27.274255 
L 376.32045 23.543672 
L 377.035 26.378915 
L 377.74955 31.154062 
L 378.4641 28.468042 
L 379.17865 29.512605 
L 379.8932 30.109498 
L 380.60775 28.915712 
L 381.3223 28.766488 
L 382.03685 31.004838 
L 382.7514 27.125032 
L 383.46595 27.721925 
L 384.1805 29.363382 
L 384.89505 26.677362 
L 385.6096 28.468042 
L 386.32415 28.766488 
L 387.0387 27.274255 
L 387.75325 31.154062 
L 388.4678 32.795518 
L 389.8969 26.826585 
L 390.61145 25.483575 
L 391.326 28.766488 
L 392.04055 25.632799 
L 392.7551 23.692895 
L 393.46965 23.096002 
L 394.1842 25.782022 
L 394.89875 26.975809 
L 395.6133 26.528139 
L 396.32785 26.229692 
L 397.0424 30.109498 
L 397.75695 26.677362 
L 398.4715 28.468042 
L 399.18605 28.915712 
L 399.9006 25.632799 
L 400.61515 26.080469 
L 401.3297 28.766488 
L 402.04425 26.378915 
L 402.7588 27.871148 
L 403.47335 29.064935 
L 404.1879 27.274255 
L 405.617 28.468042 
L 406.33155 26.975809 
L 407.0461 30.407945 
L 407.76065 29.661828 
L 409.18975 29.661828 
L 409.9043 26.378915 
L 410.61885 24.439012 
L 411.3334 26.229692 
L 412.04795 23.543672 
L 412.7625 26.229692 
L 413.47705 25.185129 
L 413.47705 25.185129 
" style="fill:none;stroke:#0173b2;stroke-linecap:round;stroke-width:3;"/>
   </g>
   <g id="line2d_2">
    <path clip-path="url(#pd91fcfe853)" d="M 55.4875 225.532366 
L 62.633 225.033302 
L 69.7785 222.104453 
L 76.924 215.50314 
L 84.0695 204.742996 
L 91.215 190.051101 
L 98.3605 172.518015 
L 105.506 153.868339 
L 112.6515 135.83508 
L 119.797 119.568569 
L 126.9425 105.483567 
L 134.088 93.499982 
L 141.2335 83.351635 
L 148.379 74.763163 
L 155.5245 67.501943 
L 162.67 61.375583 
L 169.8155 56.219469 
L 176.961 51.888612 
L 184.1065 48.254467 
L 191.252 45.204245 
L 198.3975 42.640637 
L 205.543 40.481099 
L 212.6885 38.656566 
L 219.834 37.109821 
L 226.9795 35.79376 
L 234.125 34.669734 
L 241.2705 33.706062 
L 248.416 32.876761 
L 255.5615 32.160475 
L 262.707 31.539611 
L 269.8525 30.999624 
L 276.998 30.528447 
L 284.1435 30.116033 
L 291.289 29.753982 
L 298.4345 29.435246 
L 305.58 29.153892 
L 312.7255 28.904899 
L 319.871 28.684012 
L 327.0165 28.487606 
L 334.162 28.312585 
L 341.3075 28.156297 
L 348.453 28.016461 
L 355.5985 27.89111 
L 362.744 27.778544 
L 369.8895 27.677289 
L 377.035 27.586061 
L 384.1805 27.503742 
L 391.326 27.429356 
L 398.4715 27.362046 
L 405.617 27.30106 
L 412.7625 27.245735 
L 419.908 27.195489 
L 427.0535 27.149804 
L 433 27.1152 
" style="fill:none;stroke:#de8f05;stroke-linecap:round;stroke-width:3;"/>
   </g>
   <g id="patch_3">
    <path d="M 55.4875 245.2 
L 55.4875 10.8 
" style="fill:none;stroke:#262626;stroke-linecap:square;stroke-linejoin:miter;stroke-width:0.8;"/>
   </g>
   <g id="patch_4">
    <path d="M 55.4875 245.2 
L 412.7625 245.2 
" style="fill:none;stroke:#262626;stroke-linecap:square;stroke-linejoin:miter;stroke-width:0.8;"/>
   </g>
   <g id="legend_1">
    <g id="patch_5">
     <path d="M 62.4875 47.090625 
L 115.05 47.090625 
Q 117.05 47.090625 117.05 45.090625 
L 117.05 17.8 
Q 117.05 15.8 115.05 15.8 
L 62.4875 15.8 
Q 60.4875 15.8 60.4875 17.8 
L 60.4875 45.090625 
Q 60.4875 47.090625 62.4875 47.090625 
z
" style="fill:#ffffff;opacity:0.8;stroke:#cccccc;stroke-linejoin:miter;"/>
    </g>
    <g id="line2d_3">
     <path d="M 64.4875 23.457813 
L 84.4875 23.457813 
" style="fill:none;stroke:#0173b2;stroke-linecap:round;stroke-width:3;"/>
    </g>
    <g id="line2d_4"/>
    <g id="text_15">
     <text style="fill:#262626;font-family:Arial;font-size:10px;font-stretch:normal;font-style:normal;font-weight:normal;text-anchor:start;" transform="rotate(-0, 92.4875, 26.957813)" x="92.4875" y="26.957813">CA</text>
    </g>
    <g id="line2d_5">
     <path d="M 64.4875 37.603125 
L 84.4875 37.603125 
" style="fill:none;stroke:#de8f05;stroke-linecap:round;stroke-width:3;"/>
    </g>
    <g id="line2d_6"/>
    <g id="text_16">
     <text style="fill:#262626;font-family:Arial;font-size:10px;font-stretch:normal;font-style:normal;font-weight:normal;text-anchor:start;" transform="rotate(-0, 92.4875, 41.103125)" x="92.4875" y="41.103125">PDE</text>
    </g>
   </g>
  </g>
 </g>
 <defs>
  <clipPath id="pd91fcfe853">
   <rect height="234.4" width="357.275" x="55.4875" y="10.8"/>
  </clipPath>
 </defs>
</svg>
