<?xml version="1.0" encoding="utf-8" standalone="no"?>
<!DOCTYPE svg PUBLIC "-//W3C//DTD SVG 1.1//EN"
  "http://www.w3.org/Graphics/SVG/1.1/DTD/svg11.dtd">
<!-- Created with matplotlib (https://matplotlib.org/) -->
<svg height="288pt" version="1.1" viewBox="0 0 432 288" width="432pt" xmlns="http://www.w3.org/2000/svg" xmlns:xlink="http://www.w3.org/1999/xlink">
 <metadata>
  <rdf:RDF xmlns:cc="http://creativecommons.org/ns#" xmlns:dc="http://purl.org/dc/elements/1.1/" xmlns:rdf="http://www.w3.org/1999/02/22-rdf-syntax-ns#">
   <cc:Work>
    <dc:type rdf:resource="http://purl.org/dc/dcmitype/StillImage"/>
    <dc:date>2021-06-04T22:39:07.965198</dc:date>
    <dc:format>image/svg+xml</dc:format>
    <dc:creator>
     <cc:Agent>
      <dc:title>Matplotlib v3.3.4, https://matplotlib.org/</dc:title>
     </cc:Agent>
    </dc:creator>
   </cc:Work>
  </rdf:RDF>
 </metadata>
 <defs>
  <style type="text/css">*{stroke-linecap:butt;stroke-linejoin:round;}</style>
 </defs>
 <g id="figure_1">
  <g id="patch_1">
   <path d="M 0 288 
L 432 288 
L 432 0 
L 0 0 
z
" style="fill:none;"/>
  </g>
  <g id="axes_1">
   <g id="patch_2">
    <path d="M 48.8 245.2 
L 412.7625 245.2 
L 412.7625 14.3 
L 48.8 14.3 
z
" style="fill:#ffffff;"/>
   </g>
   <g id="matplotlib.axis_1">
    <g id="xtick_1">
     <g id="text_1">
      <text style="fill:#262626;font-family:Arial;font-size:10px;font-stretch:normal;font-style:normal;font-weight:normal;text-anchor:middle;" transform="rotate(-0, 48.8, 259.357812)" x="48.8" y="259.357812">0</text>
     </g>
    </g>
    <g id="xtick_2">
     <g id="text_2">
      <text style="fill:#262626;font-family:Arial;font-size:10px;font-stretch:normal;font-style:normal;font-weight:normal;text-anchor:middle;" transform="rotate(-0, 121.5925, 259.357812)" x="121.5925" y="259.357812">100</text>
     </g>
    </g>
    <g id="xtick_3">
     <g id="text_3">
      <text style="fill:#262626;font-family:Arial;font-size:10px;font-stretch:normal;font-style:normal;font-weight:normal;text-anchor:middle;" transform="rotate(-0, 194.385, 259.357812)" x="194.385" y="259.357812">200</text>
     </g>
    </g>
    <g id="xtick_4">
     <g id="text_4">
      <text style="fill:#262626;font-family:Arial;font-size:10px;font-stretch:normal;font-style:normal;font-weight:normal;text-anchor:middle;" transform="rotate(-0, 267.1775, 259.357812)" x="267.1775" y="259.357812">300</text>
     </g>
    </g>
    <g id="xtick_5">
     <g id="text_5">
      <text style="fill:#262626;font-family:Arial;font-size:10px;font-stretch:normal;font-style:normal;font-weight:normal;text-anchor:middle;" transform="rotate(-0, 339.97, 259.357812)" x="339.97" y="259.357812">400</text>
     </g>
    </g>
    <g id="xtick_6">
     <g id="text_6">
      <text style="fill:#262626;font-family:Arial;font-size:10px;font-stretch:normal;font-style:normal;font-weight:normal;text-anchor:middle;" transform="rotate(-0, 412.7625, 259.357812)" x="412.7625" y="259.357812">500</text>
     </g>
    </g>
    <g id="text_7">
     <!-- $t$ -->
     <g style="fill:#262626;" transform="translate(228.78125 272.503125)">
      <text>
       <tspan style="font-family:DejaVu Sans;font-size:10px;font-style:oblique;font-weight:oblique;" x="0" y="-0.984375">t</tspan>
      </text>
     </g>
    </g>
   </g>
   <g id="matplotlib.axis_2">
    <g id="ytick_1">
     <g id="text_8">
      <text style="fill:#262626;font-family:Arial;font-size:10px;font-stretch:normal;font-style:normal;font-weight:normal;text-anchor:end;" transform="rotate(-0, 41.8, 248.778906)" x="41.8" y="248.778906">0.0</text>
     </g>
    </g>
    <g id="ytick_2">
     <g id="text_9">
      <text style="fill:#262626;font-family:Arial;font-size:10px;font-stretch:normal;font-style:normal;font-weight:normal;text-anchor:end;" transform="rotate(-0, 41.8, 202.598906)" x="41.8" y="202.598906">0.2</text>
     </g>
    </g>
    <g id="ytick_3">
     <g id="text_10">
      <text style="fill:#262626;font-family:Arial;font-size:10px;font-stretch:normal;font-style:normal;font-weight:normal;text-anchor:end;" transform="rotate(-0, 41.8, 156.418906)" x="41.8" y="156.418906">0.4</text>
     </g>
    </g>
    <g id="ytick_4">
     <g id="text_11">
      <text style="fill:#262626;font-family:Arial;font-size:10px;font-stretch:normal;font-style:normal;font-weight:normal;text-anchor:end;" transform="rotate(-0, 41.8, 110.238906)" x="41.8" y="110.238906">0.6</text>
     </g>
    </g>
    <g id="ytick_5">
     <g id="text_12">
      <text style="fill:#262626;font-family:Arial;font-size:10px;font-stretch:normal;font-style:normal;font-weight:normal;text-anchor:end;" transform="rotate(-0, 41.8, 64.058906)" x="41.8" y="64.058906">0.8</text>
     </g>
    </g>
    <g id="ytick_6">
     <g id="text_13">
      <text style="fill:#262626;font-family:Arial;font-size:10px;font-stretch:normal;font-style:normal;font-weight:normal;text-anchor:end;" transform="rotate(-0, 41.8, 17.878906)" x="41.8" y="17.878906">1.0</text>
     </g>
    </g>
    <g id="text_14">
     <!-- $\langle\alpha\rangle$ -->
     <g style="fill:#262626;" transform="translate(21.9125 136.95)rotate(-90)">
      <text>
       <tspan style="font-family:DejaVu Sans;font-size:10px;font-style:book;font-weight:book;" x="0 10.493164" y="-0.40625">⟨⟩</tspan>
       <tspan style="font-family:DejaVu Sans;font-size:10px;font-style:oblique;font-weight:oblique;" x="3.901367" y="-0.40625">α</tspan>
      </text>
     </g>
    </g>
   </g>
   <g id="PolyCollection_1">
    <path clip-path="url(#pa3725e0260)" d="M 48.8 222.11 
L 48.8 222.11 
L 49.527925 222.13938 
L 50.25585 222.144935 
L 50.983775 222.132823 
L 51.7117 222.129171 
L 52.439625 222.1504 
L 53.16755 222.177999 
L 53.895475 222.065459 
L 54.6234 221.996518 
L 55.351325 221.956741 
L 56.07925 221.957315 
L 56.807175 221.89354 
L 57.5351 221.795692 
L 58.263025 221.726413 
L 58.99095 221.687958 
L 59.718875 221.495643 
L 60.4468 221.380819 
L 61.174725 221.254129 
L 61.90265 221.185139 
L 62.630575 221.050052 
L 63.3585 220.977528 
L 64.086425 220.798196 
L 64.81435 220.726031 
L 65.542275 220.609325 
L 66.2702 220.442015 
L 66.998125 220.348869 
L 67.72605 220.238951 
L 68.453975 220.109695 
L 69.1819 219.960487 
L 69.909825 219.802706 
L 70.63775 219.628943 
L 71.365675 219.592197 
L 72.0936 219.35711 
L 72.821525 219.092502 
L 73.54945 218.908927 
L 74.277375 218.574595 
L 75.0053 218.303284 
L 75.733225 218.027608 
L 76.46115 217.813904 
L 77.189075 217.563653 
L 77.917 217.21218 
L 78.644925 216.974662 
L 79.37285 216.651358 
L 80.100775 216.335823 
L 80.8287 215.947798 
L 81.556625 215.514578 
L 82.28455 215.189095 
L 83.012475 214.822524 
L 83.7404 214.493423 
L 84.468325 214.016366 
L 85.19625 213.600766 
L 85.924175 213.084276 
L 86.6521 212.77353 
L 87.380025 212.327771 
L 88.10795 211.960413 
L 88.835875 211.567171 
L 89.5638 211.125971 
L 90.291725 210.581469 
L 91.01965 210.352493 
L 91.747575 209.691784 
L 92.4755 209.354313 
L 93.203425 208.889787 
L 93.93135 208.275342 
L 94.659275 207.813508 
L 95.3872 207.309938 
L 96.115125 206.552182 
L 96.84305 206.112995 
L 97.570975 205.566715 
L 98.2989 204.680594 
L 99.026825 204.110067 
L 99.75475 203.639918 
L 100.482675 202.892402 
L 101.2106 201.901867 
L 101.938525 201.137217 
L 102.66645 200.190379 
L 103.394375 199.280236 
L 104.1223 198.533765 
L 104.850225 197.64063 
L 105.57815 196.847953 
L 106.306075 196.263122 
L 107.034 195.150879 
L 107.761925 194.382363 
L 108.48985 193.28081 
L 109.217775 192.394603 
L 109.9457 191.483706 
L 110.673625 190.724059 
L 111.40155 190.119565 
L 112.129475 189.502564 
L 112.8574 188.646699 
L 113.585325 187.659475 
L 114.31325 186.66544 
L 115.041175 185.823777 
L 115.7691 185.113511 
L 116.497025 184.088988 
L 117.22495 183.116164 
L 117.952875 182.027205 
L 118.6808 181.245889 
L 119.408725 180.286905 
L 120.13665 179.052308 
L 120.864575 178.437026 
L 121.5925 177.71295 
L 122.320425 176.851462 
L 123.04835 175.805998 
L 123.776275 174.716785 
L 124.5042 173.953483 
L 125.232125 173.054122 
L 125.96005 171.90102 
L 126.687975 170.892652 
L 127.4159 170.411833 
L 128.143825 169.670321 
L 128.87175 168.94115 
L 129.599675 167.857573 
L 130.3276 167.154341 
L 131.055525 166.202158 
L 131.78345 165.540627 
L 132.511375 164.589649 
L 133.2393 163.321658 
L 133.967225 162.266652 
L 134.69515 161.391292 
L 135.423075 160.15702 
L 136.151 159.117726 
L 136.878925 158.413467 
L 137.60685 157.679389 
L 138.334775 157.011115 
L 139.0627 155.783716 
L 139.790625 155.002088 
L 140.51855 154.228113 
L 141.246475 153.620248 
L 141.9744 152.47751 
L 142.702325 151.792833 
L 143.43025 150.796233 
L 144.158175 150.272236 
L 144.8861 149.401162 
L 145.614025 149.034159 
L 146.34195 148.123843 
L 147.069875 147.490585 
L 147.7978 146.539183 
L 148.525725 145.668978 
L 149.25365 144.693225 
L 149.981575 144.072678 
L 150.7095 143.702455 
L 151.437425 142.97972 
L 152.16535 142.325261 
L 152.893275 141.353936 
L 153.6212 140.687469 
L 154.349125 139.955513 
L 155.07705 139.098512 
L 155.804975 138.464023 
L 156.5329 137.801979 
L 157.260825 136.992973 
L 157.98875 136.601712 
L 158.716675 136.004821 
L 159.4446 135.348972 
L 160.172525 134.162021 
L 160.90045 133.496691 
L 161.628375 132.402048 
L 162.3563 131.7291 
L 163.084225 131.148038 
L 163.81215 130.791793 
L 164.540075 129.801343 
L 165.268 128.964882 
L 165.995925 128.292919 
L 166.72385 127.416439 
L 167.451775 126.542571 
L 168.1797 125.913385 
L 168.907625 125.122079 
L 169.63555 124.223351 
L 170.363475 123.464477 
L 171.0914 122.737031 
L 171.819325 122.111884 
L 172.54725 121.596731 
L 173.275175 121.193917 
L 174.0031 120.589891 
L 174.731025 119.858402 
L 175.45895 119.616422 
L 176.186875 118.72261 
L 176.9148 117.932103 
L 177.642725 117.585105 
L 178.37065 116.694735 
L 179.098575 115.628642 
L 179.8265 115.147012 
L 180.554425 114.513242 
L 181.28235 114.057034 
L 182.010275 113.578102 
L 182.7382 113.320101 
L 183.466125 112.701891 
L 184.19405 112.086853 
L 184.921975 111.741361 
L 185.6499 111.107025 
L 186.377825 110.674158 
L 187.10575 109.885781 
L 187.833675 109.183755 
L 188.5616 108.558569 
L 189.289525 108.08826 
L 190.01745 107.620387 
L 190.745375 107.144123 
L 191.4733 106.649102 
L 192.201225 106.118821 
L 192.92915 105.634555 
L 193.657075 104.93084 
L 194.385 104.452572 
L 195.112925 104.203959 
L 195.84085 103.708097 
L 196.568775 103.108039 
L 197.2967 102.549673 
L 198.024625 102.108065 
L 198.75255 101.96945 
L 199.480475 101.449442 
L 200.2084 100.768084 
L 200.936325 100.31219 
L 201.66425 99.702353 
L 202.392175 99.561765 
L 203.1201 99.348514 
L 203.848025 98.677049 
L 204.57595 98.226962 
L 205.303875 97.493449 
L 206.0318 96.922951 
L 206.759725 96.411281 
L 207.48765 96.074482 
L 208.215575 95.303441 
L 208.9435 94.833902 
L 209.671425 94.687123 
L 210.39935 94.310887 
L 211.127275 93.982936 
L 211.8552 93.377707 
L 212.583125 93.106498 
L 213.31105 92.57242 
L 214.038975 92.188403 
L 214.7669 91.784184 
L 215.494825 91.295735 
L 216.22275 90.94653 
L 216.950675 90.586427 
L 217.6786 90.280774 
L 218.406525 89.919684 
L 219.13445 89.447974 
L 219.862375 89.266761 
L 220.5903 88.977536 
L 221.318225 88.459842 
L 222.04615 88.151316 
L 222.774075 87.816394 
L 223.502 87.557874 
L 224.229925 87.359475 
L 224.95785 87.140124 
L 225.685775 86.525697 
L 226.4137 85.901355 
L 227.141625 85.481837 
L 227.86955 85.299685 
L 228.597475 85.020476 
L 229.3254 84.551669 
L 230.053325 84.460294 
L 230.78125 84.153708 
L 231.509175 83.967404 
L 232.2371 83.64675 
L 232.965025 83.287236 
L 233.69295 82.788303 
L 234.420875 82.486542 
L 235.1488 82.291702 
L 235.876725 81.844474 
L 236.60465 81.635547 
L 237.332575 81.302121 
L 238.0605 80.968052 
L 238.788425 80.634096 
L 239.51635 80.054171 
L 240.244275 79.500677 
L 240.9722 78.93437 
L 241.700125 78.515883 
L 242.42805 78.297208 
L 243.155975 78.074412 
L 243.8839 77.332279 
L 244.611825 76.953767 
L 245.33975 76.517997 
L 246.067675 76.325344 
L 246.7956 75.902362 
L 247.523525 75.505891 
L 248.25145 75.200358 
L 248.979375 74.946375 
L 249.7073 74.612142 
L 250.435225 74.383739 
L 251.16315 74.369991 
L 251.891075 74.048189 
L 252.619 73.752522 
L 253.346925 73.727733 
L 254.07485 73.362407 
L 254.802775 73.027616 
L 255.5307 72.661964 
L 256.258625 72.357135 
L 256.98655 71.930595 
L 257.714475 71.726348 
L 258.4424 71.49471 
L 259.170325 71.313247 
L 259.89825 71.147407 
L 260.626175 71.100609 
L 261.3541 71.194475 
L 262.082025 71.00965 
L 262.80995 70.903421 
L 263.537875 70.819252 
L 264.2658 70.506232 
L 264.993725 70.456463 
L 265.72165 70.081796 
L 266.449575 69.84704 
L 267.1775 69.595116 
L 267.905425 69.243424 
L 268.63335 68.957953 
L 269.361275 68.58436 
L 270.0892 68.185411 
L 270.817125 67.827342 
L 271.54505 67.414738 
L 272.272975 66.954861 
L 273.0009 66.665484 
L 273.728825 66.50163 
L 274.45675 66.251145 
L 275.184675 66.082207 
L 275.9126 65.938824 
L 276.640525 65.842588 
L 277.36845 65.596426 
L 278.096375 65.616207 
L 278.8243 65.330141 
L 279.552225 65.255866 
L 280.28015 64.992008 
L 281.008075 64.813568 
L 281.736 64.53953 
L 282.463925 64.311468 
L 283.19185 64.138714 
L 283.919775 63.966258 
L 284.6477 63.669226 
L 285.375625 63.255498 
L 286.10355 63.193942 
L 286.831475 62.996115 
L 287.5594 62.952712 
L 288.287325 63.026032 
L 289.01525 63.057733 
L 289.743175 62.684753 
L 290.4711 62.59098 
L 291.199025 62.337593 
L 291.92695 62.359827 
L 292.654875 62.289326 
L 293.3828 62.198145 
L 294.110725 62.098425 
L 294.83865 62.153703 
L 295.566575 61.7826 
L 296.2945 61.606901 
L 297.022425 61.541398 
L 297.75035 61.435182 
L 298.478275 61.407333 
L 299.2062 61.25392 
L 299.934125 61.188527 
L 300.66205 60.912941 
L 301.389975 60.585746 
L 302.1179 60.533972 
L 302.845825 60.404325 
L 303.57375 60.484451 
L 304.301675 60.573889 
L 305.0296 60.258304 
L 305.757525 60.167701 
L 306.48545 59.941854 
L 307.213375 59.550257 
L 307.9413 59.333712 
L 308.669225 59.09977 
L 309.39715 58.85318 
L 310.125075 58.762561 
L 310.853 58.538679 
L 311.580925 58.299768 
L 312.30885 58.075035 
L 313.036775 58.018921 
L 313.7647 57.798591 
L 314.492625 57.804379 
L 315.22055 57.654853 
L 315.948475 57.435818 
L 316.6764 57.296169 
L 317.404325 57.20662 
L 318.13225 56.910933 
L 318.860175 56.701088 
L 319.5881 56.736134 
L 320.316025 56.616451 
L 321.04395 56.256861 
L 321.771875 56.144981 
L 322.4998 56.025716 
L 323.227725 56.067645 
L 323.95565 55.965046 
L 324.683575 55.863497 
L 325.4115 55.763975 
L 326.139425 55.612585 
L 326.86735 55.540011 
L 327.595275 55.437401 
L 328.3232 55.422154 
L 329.051125 55.331442 
L 329.77905 55.355475 
L 330.506975 55.311384 
L 331.2349 55.11962 
L 331.962825 54.979561 
L 332.69075 55.072692 
L 333.418675 54.928515 
L 334.1466 54.849337 
L 334.874525 54.692134 
L 335.60245 54.639796 
L 336.330375 54.624447 
L 337.0583 54.701625 
L 337.786225 54.532574 
L 338.51415 54.36442 
L 339.242075 54.085122 
L 339.97 53.879968 
L 340.697925 53.837798 
L 341.42585 53.585449 
L 342.153775 53.551589 
L 342.8817 53.422133 
L 343.609625 53.243154 
L 344.33755 53.259951 
L 345.065475 53.168012 
L 345.7934 53.040637 
L 346.521325 52.943117 
L 347.24925 52.823412 
L 347.977175 52.782578 
L 348.7051 52.84015 
L 349.433025 52.662224 
L 350.16095 52.584641 
L 350.888875 52.481806 
L 351.6168 52.440275 
L 352.344725 52.300443 
L 353.07265 52.253516 
L 353.800575 52.015066 
L 354.5285 51.863324 
L 355.256425 51.804694 
L 355.98435 51.712987 
L 356.712275 51.504895 
L 357.4402 51.485785 
L 358.168125 51.249618 
L 358.89605 51.168828 
L 359.623975 51.09832 
L 360.3519 50.947397 
L 361.079825 50.792104 
L 361.80775 50.919452 
L 362.535675 50.717009 
L 363.2636 50.679861 
L 363.991525 50.590516 
L 364.71945 50.470225 
L 365.447375 50.233579 
L 366.1753 50.007203 
L 366.903225 49.87832 
L 367.63115 49.835881 
L 368.359075 49.884146 
L 369.087 50.019062 
L 369.814925 49.8999 
L 370.54285 49.797265 
L 371.270775 49.723683 
L 371.9987 49.577713 
L 372.726625 49.482382 
L 373.45455 49.547567 
L 374.182475 49.43088 
L 374.9104 49.32725 
L 375.638325 49.19494 
L 376.36625 49.179172 
L 377.094175 49.048896 
L 377.8221 48.966943 
L 378.550025 48.747784 
L 379.27795 48.648016 
L 380.005875 48.566053 
L 380.7338 48.583655 
L 381.461725 48.630617 
L 382.18965 48.629235 
L 382.917575 48.615707 
L 383.6455 48.611905 
L 384.373425 48.629132 
L 385.10135 48.489161 
L 385.829275 48.524495 
L 386.5572 48.598811 
L 387.285125 48.620669 
L 388.01305 48.520061 
L 388.740975 48.560679 
L 389.4689 48.512661 
L 390.196825 48.41018 
L 390.92475 48.24102 
L 391.652675 48.315948 
L 392.3806 48.348052 
L 393.108525 48.153937 
L 393.83645 48.182083 
L 394.564375 48.025017 
L 395.2923 48.090729 
L 396.020225 48.120389 
L 396.74815 48.199614 
L 397.476075 48.326802 
L 398.204 48.423754 
L 398.931925 48.48823 
L 399.65985 48.323908 
L 400.387775 48.123348 
L 401.1157 47.950509 
L 401.843625 47.768165 
L 402.57155 47.661003 
L 403.299475 47.627704 
L 404.0274 47.683192 
L 404.755325 47.58125 
L 405.48325 47.586807 
L 406.211175 47.561536 
L 406.9391 47.510515 
L 407.667025 47.425827 
L 408.39495 47.292721 
L 409.122875 47.297138 
L 409.8508 47.425626 
L 410.578725 47.401165 
L 411.30665 47.23854 
L 412.034575 47.100961 
L 412.7625 47.256372 
L 413.490425 47.248663 
L 414.21835 47.320729 
L 414.946275 47.297217 
L 415.6742 47.3422 
L 416.402125 47.313601 
L 417.13005 47.170261 
L 417.857975 47.058871 
L 418.5859 47.075234 
L 419.313825 47.12031 
L 420.04175 47.210567 
L 420.769675 47.260231 
L 421.4976 47.2173 
L 422.225525 47.222678 
L 422.95345 47.168069 
L 423.681375 47.147202 
L 424.4093 47.168448 
L 425.137225 47.217307 
L 425.86515 47.213719 
L 426.593075 47.093265 
L 427.321 46.986307 
L 428.048925 46.913359 
L 428.77685 46.998486 
L 429.504775 46.913296 
L 430.2327 46.885179 
L 430.960625 46.887837 
L 431.68855 46.780359 
L 432.416475 46.873053 
L 433.1444 46.919265 
L 433.872325 46.717437 
L 434.60025 46.763924 
L 435.328175 46.813162 
L 436.0561 46.822296 
L 436.784025 46.874815 
L 437.51195 46.87832 
L 438.239875 46.755804 
L 438.9678 46.692444 
L 439.695725 46.718704 
L 440.42365 46.672637 
L 441.151575 46.751152 
L 441.8795 46.756001 
L 442.607425 46.798435 
L 443.33535 46.791014 
L 444.063275 46.753471 
L 444.7912 46.586103 
L 445.519125 46.617296 
L 446.24705 46.69548 
L 446.974975 46.769528 
L 447.7029 46.588918 
L 448.430825 46.462729 
L 449.15875 46.329434 
L 449.886675 46.338983 
L 450.6146 46.389313 
L 451.342525 46.351044 
L 452.07045 46.262505 
L 452.798375 46.322307 
L 453.5263 46.298952 
L 454.254225 46.076867 
L 454.98215 45.920314 
L 455.710075 45.909404 
L 456.438 45.895946 
L 457.165925 45.819058 
L 457.89385 45.855232 
L 458.621775 45.955546 
L 459.3497 45.998481 
L 460.077625 45.906444 
L 460.80555 45.824287 
L 461.533475 45.79923 
L 462.2614 45.734707 
L 462.989325 45.760723 
L 463.71725 45.778103 
L 464.445175 45.717587 
L 465.1731 45.621972 
L 465.901025 45.637144 
L 466.62895 45.570637 
L 467.356875 45.583306 
L 468.0848 45.622949 
L 468.812725 45.532782 
L 469.54065 45.442481 
L 470.268575 45.331533 
L 470.9965 45.376649 
L 471.724425 45.404657 
L 472.45235 45.33804 
L 473.180275 45.314049 
L 473.9082 45.318496 
L 474.636125 45.418926 
L 475.36405 45.313762 
L 476.091975 45.297328 
L 476.8199 45.378338 
L 477.547825 45.359491 
L 478.27575 45.346182 
L 479.003675 45.236634 
L 479.7316 45.128348 
L 480.459525 45.27841 
L 481.18745 45.23776 
L 481.915375 45.233737 
L 482.6433 45.283733 
L 483.371225 45.2277 
L 484.09915 45.287985 
L 484.827075 45.348755 
L 485.555 45.356055 
L 486.282925 45.384914 
L 487.01085 45.247447 
L 487.738775 45.176432 
L 488.4667 45.181861 
L 489.194625 45.22166 
L 489.92255 45.12767 
L 490.650475 45.16512 
L 491.3784 45.018274 
L 492.106325 44.967813 
L 492.83425 44.971557 
L 493.562175 44.88384 
L 494.2901 44.867626 
L 495.018025 44.815207 
L 495.74595 44.805569 
L 496.473875 44.954678 
L 497.2018 44.91867 
L 497.929725 44.869641 
L 498.65765 44.834704 
L 499.385575 44.87993 
L 500.1135 44.795483 
L 500.841425 44.750893 
L 501.56935 44.662904 
L 502.297275 44.872222 
L 503.0252 44.890775 
L 503.753125 44.720341 
L 504.48105 44.726952 
L 505.208975 44.762195 
L 505.9369 44.758359 
L 506.664825 44.668478 
L 507.39275 44.662711 
L 508.120675 44.472898 
L 508.8486 44.490849 
L 509.576525 44.500789 
L 510.30445 44.361668 
L 511.032375 44.298586 
L 511.7603 44.178125 
L 512.488225 44.088796 
L 513.21615 44.078702 
L 513.944075 43.971684 
L 514.672 43.907879 
L 515.399925 43.910717 
L 516.12785 43.938992 
L 516.855775 43.994112 
L 517.5837 43.894832 
L 518.311625 43.857413 
L 519.03955 43.933427 
L 519.767475 44.001865 
L 520.4954 43.956488 
L 521.223325 44.028355 
L 521.95125 44.11055 
L 522.679175 44.167837 
L 523.4071 44.097133 
L 524.135025 44.107464 
L 524.86295 44.139691 
L 525.590875 44.098293 
L 526.3188 44.023285 
L 527.046725 44.058671 
L 527.77465 44.083537 
L 528.502575 44.051992 
L 529.2305 44.100655 
L 529.958425 44.127214 
L 530.68635 44.103465 
L 531.414275 44.084002 
L 532.1422 44.106475 
L 532.870125 44.054919 
L 533.59805 43.988661 
L 534.325975 44.131271 
L 535.0539 43.944508 
L 535.781825 43.927913 
L 536.50975 43.946586 
L 537.237675 43.962715 
L 537.9656 44.035272 
L 538.693525 44.099107 
L 539.42145 44.130517 
L 540.149375 44.121395 
L 540.8773 44.122662 
L 541.605225 43.932337 
L 542.33315 44.014066 
L 543.061075 43.968621 
L 543.789 44.006026 
L 544.516925 43.998982 
L 545.24485 44.069383 
L 545.972775 44.013504 
L 546.7007 43.901365 
L 547.428625 43.963796 
L 548.15655 43.890305 
L 548.884475 44.012594 
L 549.6124 44.015966 
L 550.340325 43.839307 
L 551.06825 43.836907 
L 551.796175 43.902687 
L 552.5241 43.895457 
L 553.252025 44.094434 
L 553.97995 44.143287 
L 554.707875 43.936634 
L 555.4358 43.946068 
L 556.163725 44.065048 
L 556.89165 43.93942 
L 557.619575 43.9747 
L 558.3475 43.958563 
L 559.075425 44.001279 
L 559.80335 43.972532 
L 560.531275 44.08987 
L 561.2592 44.014361 
L 561.987125 43.947896 
L 562.71505 43.940256 
L 563.442975 43.928214 
L 564.1709 43.835371 
L 564.898825 43.768426 
L 565.62675 43.662925 
L 566.354675 43.634503 
L 567.0826 43.590164 
L 567.810525 43.557009 
L 568.53845 43.612228 
L 569.266375 43.715699 
L 569.9943 43.648005 
L 570.722225 43.595732 
L 571.45015 43.584569 
L 572.178075 43.565057 
L 572.906 43.532306 
L 573.633925 43.431961 
L 574.36185 43.449968 
L 575.089775 43.444211 
L 575.8177 43.418231 
L 576.545625 43.389013 
L 577.27355 43.261106 
L 578.001475 43.227707 
L 578.7294 43.239781 
L 579.457325 43.161127 
L 580.18525 43.199033 
L 580.913175 43.210658 
L 581.6411 43.30904 
L 582.369025 43.308233 
L 583.09695 43.337414 
L 583.824875 43.414122 
L 584.5528 43.413867 
L 585.280725 43.537183 
L 586.00865 43.608619 
L 586.736575 43.559861 
L 587.4645 43.519503 
L 588.192425 43.602167 
L 588.92035 43.603177 
L 589.648275 43.521792 
L 590.3762 43.658662 
L 591.104125 43.556573 
L 591.83205 43.53717 
L 592.559975 43.494836 
L 593.2879 43.479342 
L 594.015825 43.534562 
L 594.74375 43.5886 
L 595.471675 43.730377 
L 596.1996 43.802962 
L 596.927525 43.768172 
L 597.65545 43.913974 
L 598.383375 43.82377 
L 599.1113 43.786281 
L 599.839225 43.687075 
L 600.56715 43.678701 
L 601.295075 43.640379 
L 602.023 43.649814 
L 602.750925 43.538241 
L 603.47885 43.514861 
L 604.206775 43.424607 
L 604.9347 43.228391 
L 605.662625 43.271959 
L 606.39055 43.214721 
L 607.118475 43.356963 
L 607.8464 43.390932 
L 608.574325 43.335041 
L 609.30225 43.26749 
L 610.030175 43.284608 
L 610.7581 43.27548 
L 611.486025 43.22634 
L 612.21395 43.284558 
L 612.941875 43.270245 
L 613.6698 43.269275 
L 614.397725 43.31197 
L 615.12565 43.222453 
L 615.853575 43.235243 
L 616.5815 43.314916 
L 617.309425 43.468287 
L 618.03735 43.500196 
L 618.765275 43.566087 
L 619.4932 43.655211 
L 620.221125 43.514319 
L 620.94905 43.58199 
L 621.676975 43.546371 
L 622.4049 43.615697 
L 623.132825 43.544188 
L 623.86075 43.440318 
L 624.588675 43.407449 
L 625.3166 43.529884 
L 626.044525 43.532027 
L 626.77245 43.46639 
L 627.500375 43.408607 
L 628.2283 43.335325 
L 628.956225 43.209468 
L 629.68415 43.155058 
L 630.412075 43.076391 
L 631.14 43.066342 
L 631.867925 43.02119 
L 632.59585 42.978367 
L 633.323775 42.873359 
L 634.0517 42.798696 
L 634.779625 42.761827 
L 635.50755 42.808085 
L 636.235475 42.745111 
L 636.9634 42.867251 
L 637.691325 42.910192 
L 638.41925 42.881654 
L 639.147175 42.939366 
L 639.8751 42.911425 
L 640.603025 42.898967 
L 641.33095 42.882683 
L 642.058875 42.976034 
L 642.7868 43.03171 
L 643.514725 43.022158 
L 644.24265 42.995271 
L 644.970575 42.896463 
L 645.6985 42.879936 
L 646.426425 42.781179 
L 647.15435 42.630839 
L 647.882275 42.684439 
L 648.6102 42.793215 
L 649.338125 42.779734 
L 650.06605 42.758508 
L 650.793975 42.69807 
L 651.5219 42.721058 
L 652.249825 42.670248 
L 652.97775 42.747855 
L 653.705675 42.61804 
L 654.4336 42.560181 
L 655.161525 42.646249 
L 655.88945 42.632832 
L 656.617375 42.449953 
L 657.3453 42.463746 
L 658.073225 42.407702 
L 658.80115 42.476631 
L 659.529075 42.494618 
L 660.257 42.529742 
L 660.984925 42.615106 
L 661.71285 42.723782 
L 662.440775 42.647264 
L 663.1687 42.658437 
L 663.896625 42.827308 
L 664.62455 42.831112 
L 665.352475 42.777668 
L 666.0804 42.822382 
L 666.808325 42.814757 
L 667.53625 42.781939 
L 668.264175 42.769093 
L 668.9921 42.739262 
L 669.720025 42.756695 
L 670.44795 42.684256 
L 671.175875 42.704157 
L 671.9038 42.554954 
L 672.631725 42.732471 
L 673.35965 42.649832 
L 674.087575 42.619302 
L 674.8155 42.612478 
L 675.543425 42.568206 
L 676.27135 42.604148 
L 676.999275 42.666227 
L 677.7272 42.652534 
L 678.455125 42.791601 
L 679.18305 42.643609 
L 679.910975 42.714773 
L 680.6389 42.638371 
L 681.366825 42.575386 
L 682.09475 42.518376 
L 682.822675 42.52905 
L 683.5506 42.618905 
L 684.278525 42.635617 
L 685.00645 42.60745 
L 685.734375 42.64641 
L 686.4623 42.707707 
L 687.190225 42.760315 
L 687.91815 42.705078 
L 688.646075 42.763985 
L 689.374 42.74069 
L 690.101925 42.812213 
L 690.82985 42.806779 
L 691.557775 42.725827 
L 692.2857 42.681027 
L 693.013625 42.761336 
L 693.74155 42.609857 
L 694.469475 42.654375 
L 695.1974 42.745232 
L 695.925325 42.70017 
L 696.65325 42.702646 
L 697.381175 42.918922 
L 698.1091 42.965627 
L 698.837025 42.763748 
L 699.56495 42.683409 
L 700.292875 42.719396 
L 701.0208 42.753564 
L 701.748725 42.720251 
L 702.47665 42.699875 
L 703.204575 42.717569 
L 703.9325 42.720995 
L 704.660425 42.778427 
L 705.38835 42.834051 
L 706.116275 42.853213 
L 706.8442 42.865832 
L 707.572125 42.817604 
L 708.30005 42.663604 
L 709.027975 42.604135 
L 709.7559 42.645079 
L 710.483825 42.639235 
L 711.21175 42.619234 
L 711.939675 42.633512 
L 712.6676 42.65764 
L 713.395525 42.597517 
L 714.12345 42.56071 
L 714.851375 42.604468 
L 715.5793 42.651845 
L 716.307225 42.614776 
L 717.03515 42.632153 
L 717.763075 42.62679 
L 718.491 42.611999 
L 719.218925 42.595286 
L 719.94685 42.576749 
L 720.674775 42.611203 
L 721.4027 42.549055 
L 722.130625 42.529679 
L 722.85855 42.637863 
L 723.586475 42.591916 
L 724.3144 42.451318 
L 725.042325 42.464183 
L 725.77025 42.458515 
L 726.498175 42.33224 
L 727.2261 42.406562 
L 727.954025 42.325321 
L 728.68195 42.424986 
L 729.409875 42.475029 
L 730.1378 42.385043 
L 730.865725 42.379773 
L 731.59365 42.419315 
L 732.321575 42.366431 
L 733.0495 42.35973 
L 733.777425 42.384476 
L 734.50535 42.41184 
L 735.233275 42.386618 
L 735.9612 42.360135 
L 736.689125 42.2632 
L 737.41705 42.170024 
L 738.144975 42.191724 
L 738.8729 42.183953 
L 739.600825 42.141399 
L 740.32875 42.19182 
L 741.056675 42.272046 
L 741.7846 42.268164 
L 742.512525 42.257902 
L 743.24045 42.26021 
L 743.968375 42.152592 
L 744.6963 42.008776 
L 745.424225 41.998074 
L 746.15215 41.988089 
L 746.880075 42.110872 
L 747.608 42.209267 
L 748.335925 42.221595 
L 749.06385 42.314345 
L 749.791775 42.272839 
L 750.5197 42.256313 
L 751.247625 42.23585 
L 751.97555 42.220273 
L 752.703475 42.246019 
L 753.4314 42.239114 
L 754.159325 42.3145 
L 754.88725 42.297859 
L 755.615175 42.385911 
L 756.3431 42.453264 
L 757.071025 42.417622 
L 757.79895 42.399573 
L 758.526875 42.399608 
L 759.2548 42.437064 
L 759.982725 42.498234 
L 760.71065 42.611386 
L 761.438575 42.569793 
L 762.1665 42.518867 
L 762.894425 42.466621 
L 763.62235 42.515333 
L 764.350275 42.592006 
L 765.0782 42.534906 
L 765.806125 42.522819 
L 766.53405 42.540541 
L 767.261975 42.626676 
L 767.9899 42.465788 
L 768.717825 42.496123 
L 769.44575 42.546999 
L 770.173675 42.447446 
L 770.9016 42.361093 
L 771.629525 42.505701 
L 772.35745 42.539064 
L 773.085375 42.441111 
L 773.8133 42.458412 
L 774.541225 42.408646 
L 775.26915 42.431512 
L 775.997075 42.438091 
L 776.725 42.476616 
L 776.725 42.476616 
L 776.725 41.912741 
L 775.997075 41.871632 
L 775.26915 41.866684 
L 774.541225 41.840547 
L 773.8133 41.891331 
L 773.085375 41.87514 
L 772.35745 41.969922 
L 771.629525 41.940395 
L 770.9016 41.796355 
L 770.173675 41.883755 
L 769.44575 41.979822 
L 768.717825 41.932233 
L 767.9899 41.903223 
L 767.261975 42.060774 
L 766.53405 41.976019 
L 765.806125 41.958236 
L 765.0782 41.969222 
L 764.350275 42.027342 
L 763.62235 41.951729 
L 762.894425 41.903215 
L 762.1665 41.955154 
L 761.438575 42.000506 
L 760.71065 42.044868 
L 759.982725 41.934699 
L 759.2548 41.875257 
L 758.526875 41.839494 
L 757.79895 41.839749 
L 757.071025 41.856121 
L 756.3431 41.890341 
L 755.615175 41.822068 
L 754.88725 41.73611 
L 754.159325 41.752099 
L 753.4314 41.67764 
L 752.703475 41.685013 
L 751.97555 41.658159 
L 751.247625 41.671993 
L 750.5197 41.690598 
L 749.791775 41.709178 
L 749.06385 41.748783 
L 748.335925 41.658178 
L 747.608 41.645631 
L 746.880075 41.551382 
L 746.15215 41.429465 
L 745.424225 41.4398 
L 744.6963 41.449447 
L 743.968375 41.591822 
L 743.24045 41.696784 
L 742.512525 41.693654 
L 741.7846 41.704904 
L 741.056675 41.704951 
L 740.32875 41.628518 
L 739.600825 41.578093 
L 738.8729 41.617059 
L 738.144975 41.623655 
L 737.41705 41.603308 
L 736.689125 41.69664 
L 735.9612 41.793471 
L 735.233275 41.818608 
L 734.50535 41.844356 
L 733.777425 41.813612 
L 733.0495 41.791944 
L 732.321575 41.797314 
L 731.59365 41.85169 
L 730.865725 41.812708 
L 730.1378 41.816517 
L 729.409875 41.907047 
L 728.68195 41.855102 
L 727.954025 41.758042 
L 727.2261 41.83672 
L 726.498175 41.76177 
L 725.77025 41.886323 
L 725.042325 41.894896 
L 724.3144 41.88315 
L 723.586475 42.020035 
L 722.85855 42.066701 
L 722.130625 41.961109 
L 721.4027 41.982293 
L 720.674775 42.039941 
L 719.94685 42.007284 
L 719.218925 42.027074 
L 718.491 42.046663 
L 717.763075 42.057391 
L 717.03515 42.062981 
L 716.307225 42.047285 
L 715.5793 42.082741 
L 714.851375 42.032271 
L 714.12345 41.990376 
L 713.395525 42.026916 
L 712.6676 42.087165 
L 711.939675 42.061756 
L 711.21175 42.046235 
L 710.483825 42.065334 
L 709.7559 42.07126 
L 709.027975 42.031457 
L 708.30005 42.088286 
L 707.572125 42.241686 
L 706.8442 42.290532 
L 706.116275 42.279508 
L 705.38835 42.261045 
L 704.660425 42.207962 
L 703.9325 42.152432 
L 703.204575 42.151059 
L 702.47665 42.131494 
L 701.748725 42.152343 
L 701.0208 42.187246 
L 700.292875 42.151359 
L 699.56495 42.118101 
L 698.837025 42.195106 
L 698.1091 42.392181 
L 697.381175 42.345247 
L 696.65325 42.134852 
L 695.925325 42.133691 
L 695.1974 42.173862 
L 694.469475 42.082955 
L 693.74155 42.03813 
L 693.013625 42.185001 
L 692.2857 42.101445 
L 691.557775 42.143516 
L 690.82985 42.222685 
L 690.101925 42.228219 
L 689.374 42.158258 
L 688.646075 42.182311 
L 687.91815 42.124318 
L 687.190225 42.177768 
L 686.4623 42.127637 
L 685.734375 42.067136 
L 685.00645 42.026236 
L 684.278525 42.054709 
L 683.5506 42.034436 
L 682.822675 41.942237 
L 682.09475 41.932893 
L 681.366825 41.987075 
L 680.6389 42.050291 
L 679.910975 42.122819 
L 679.18305 42.055809 
L 678.455125 42.201379 
L 677.7272 42.064613 
L 676.999275 42.07971 
L 676.27135 42.021585 
L 675.543425 41.983311 
L 674.8155 42.02725 
L 674.087575 42.035724 
L 673.35965 42.064424 
L 672.631725 42.1469 
L 671.9038 41.968945 
L 671.175875 42.115889 
L 670.44795 42.096308 
L 669.720025 42.168639 
L 668.9921 42.151139 
L 668.264175 42.182809 
L 667.53625 42.196899 
L 666.808325 42.230271 
L 666.0804 42.237202 
L 665.352475 42.195096 
L 664.62455 42.245568 
L 663.896625 42.242943 
L 663.1687 42.07951 
L 662.440775 42.066788 
L 661.71285 42.143906 
L 660.984925 42.035555 
L 660.257 41.953035 
L 659.529075 41.918215 
L 658.80115 41.901452 
L 658.073225 41.833899 
L 657.3453 41.890893 
L 656.617375 41.877458 
L 655.88945 42.056937 
L 655.161525 42.070047 
L 654.4336 41.984485 
L 653.705675 42.043231 
L 652.97775 42.169182 
L 652.249825 42.092378 
L 651.5219 42.142173 
L 650.793975 42.117669 
L 650.06605 42.182136 
L 649.338125 42.203289 
L 648.6102 42.21644 
L 647.882275 42.110414 
L 647.15435 42.060673 
L 646.426425 42.209193 
L 645.6985 42.30505 
L 644.970575 42.319508 
L 644.24265 42.421298 
L 643.514725 42.44827 
L 642.7868 42.457848 
L 642.058875 42.399711 
L 641.33095 42.30834 
L 640.603025 42.325834 
L 639.8751 42.339558 
L 639.147175 42.367046 
L 638.41925 42.311285 
L 637.691325 42.337798 
L 636.9634 42.292251 
L 636.235475 42.17432 
L 635.50755 42.23548 
L 634.779625 42.190583 
L 634.0517 42.227091 
L 633.323775 42.301909 
L 632.59585 42.403622 
L 631.867925 42.444867 
L 631.14 42.490373 
L 630.412075 42.498804 
L 629.68415 42.571841 
L 628.956225 42.62773 
L 628.2283 42.750278 
L 627.500375 42.8238 
L 626.77245 42.879985 
L 626.044525 42.942971 
L 625.3166 42.938139 
L 624.588675 42.81844 
L 623.86075 42.84633 
L 623.132825 42.946131 
L 622.4049 43.017506 
L 621.676975 42.948384 
L 620.94905 42.982965 
L 620.221125 42.917438 
L 619.4932 43.057902 
L 618.765275 42.96964 
L 618.03735 42.904236 
L 617.309425 42.872125 
L 616.5815 42.721454 
L 615.853575 42.640287 
L 615.12565 42.628145 
L 614.397725 42.719567 
L 613.6698 42.676868 
L 612.941875 42.681623 
L 612.21395 42.69436 
L 611.486025 42.636108 
L 610.7581 42.684253 
L 610.030175 42.694962 
L 609.30225 42.679688 
L 608.574325 42.743763 
L 607.8464 42.798436 
L 607.118475 42.766084 
L 606.39055 42.623432 
L 605.662625 42.68067 
L 604.9347 42.635616 
L 604.206775 42.830704 
L 603.47885 42.918835 
L 602.750925 42.941415 
L 602.023 43.047443 
L 601.295075 43.040111 
L 600.56715 43.07769 
L 599.839225 43.08779 
L 599.1113 43.185222 
L 598.383375 43.219974 
L 597.65545 43.309523 
L 596.927525 43.163218 
L 596.1996 43.197544 
L 595.471675 43.126253 
L 594.74375 42.986117 
L 594.015825 42.93252 
L 593.2879 42.880972 
L 592.559975 42.896432 
L 591.83205 42.935925 
L 591.104125 42.951698 
L 590.3762 43.053065 
L 589.648275 42.918083 
L 588.92035 42.996662 
L 588.192425 42.993033 
L 587.4645 42.913104 
L 586.736575 42.949864 
L 586.00865 42.998084 
L 585.280725 42.928391 
L 584.5528 42.809568 
L 583.824875 42.80911 
L 583.09695 42.732227 
L 582.369025 42.703384 
L 581.6411 42.705138 
L 580.913175 42.608499 
L 580.18525 42.596755 
L 579.457325 42.56033 
L 578.7294 42.638795 
L 578.001475 42.629653 
L 577.27355 42.664154 
L 576.545625 42.787118 
L 575.8177 42.81225 
L 575.089775 42.839241 
L 574.36185 42.846142 
L 573.633925 42.829951 
L 572.906 42.928576 
L 572.178075 42.961523 
L 571.45015 42.978178 
L 570.722225 42.988242 
L 569.9943 43.041528 
L 569.266375 43.107807 
L 568.53845 43.006633 
L 567.810525 42.949796 
L 567.0826 42.983156 
L 566.354675 43.027616 
L 565.62675 43.056211 
L 564.898825 43.161342 
L 564.1709 43.224782 
L 563.442975 43.312851 
L 562.71505 43.324118 
L 561.987125 43.332011 
L 561.2592 43.396104 
L 560.531275 43.470903 
L 559.80335 43.356915 
L 559.075425 43.385239 
L 558.3475 43.34564 
L 557.619575 43.361679 
L 556.89165 43.325315 
L 556.163725 43.447076 
L 555.4358 43.329812 
L 554.707875 43.323313 
L 553.97995 43.523702 
L 553.252025 43.477144 
L 552.5241 43.282247 
L 551.796175 43.289603 
L 551.06825 43.225113 
L 550.340325 43.227955 
L 549.6124 43.399573 
L 548.884475 43.397602 
L 548.15655 43.275669 
L 547.428625 43.348934 
L 546.7007 43.287135 
L 545.972775 43.395272 
L 545.24485 43.45153 
L 544.516925 43.374772 
L 543.789 43.380199 
L 543.061075 43.342794 
L 542.33315 43.391378 
L 541.605225 43.308596 
L 540.8773 43.498177 
L 540.149375 43.4962 
L 539.42145 43.507122 
L 538.693525 43.480269 
L 537.9656 43.414966 
L 537.237675 43.344614 
L 536.50975 43.33403 
L 535.781825 43.315528 
L 535.0539 43.332928 
L 534.325975 43.513552 
L 533.59805 43.372257 
L 532.870125 43.437203 
L 532.1422 43.486332 
L 531.414275 43.467033 
L 530.68635 43.485546 
L 529.958425 43.506039 
L 529.2305 43.4788 
L 528.502575 43.430691 
L 527.77465 43.460152 
L 527.046725 43.437385 
L 526.3188 43.399003 
L 525.590875 43.470431 
L 524.86295 43.509817 
L 524.135025 43.477069 
L 523.4071 43.466367 
L 522.679175 43.535331 
L 521.95125 43.477963 
L 521.223325 43.396882 
L 520.4954 43.325097 
L 519.767475 43.36949 
L 519.03955 43.301386 
L 518.311625 43.23033 
L 517.5837 43.269438 
L 516.855775 43.365515 
L 516.12785 43.311027 
L 515.399925 43.283105 
L 514.672 43.278742 
L 513.944075 43.340951 
L 513.21615 43.445442 
L 512.488225 43.456415 
L 511.7603 43.545479 
L 511.032375 43.663317 
L 510.30445 43.729172 
L 509.576525 43.866702 
L 508.8486 43.859334 
L 508.120675 43.842487 
L 507.39275 44.027615 
L 506.664825 44.031022 
L 505.9369 44.120312 
L 505.208975 44.129606 
L 504.48105 44.09457 
L 503.753125 44.08593 
L 503.0252 44.251464 
L 502.297275 44.233351 
L 501.56935 44.027759 
L 500.841425 44.116623 
L 500.1135 44.16085 
L 499.385575 44.241719 
L 498.65765 44.197466 
L 497.929725 44.22889 
L 497.2018 44.280052 
L 496.473875 44.314788 
L 495.74595 44.169243 
L 495.018025 44.181295 
L 494.2901 44.231338 
L 493.562175 44.246724 
L 492.83425 44.334012 
L 492.106325 44.33088 
L 491.3784 44.378876 
L 490.650475 44.525818 
L 489.92255 44.485847 
L 489.194625 44.577762 
L 488.4667 44.540813 
L 487.738775 44.535441 
L 487.01085 44.607908 
L 486.282925 44.742485 
L 485.555 44.713696 
L 484.827075 44.710475 
L 484.09915 44.652148 
L 483.371225 44.588591 
L 482.6433 44.644288 
L 481.915375 44.597598 
L 481.18745 44.604491 
L 480.459525 44.645963 
L 479.7316 44.499302 
L 479.003675 44.604803 
L 478.27575 44.714631 
L 477.547825 44.726844 
L 476.8199 44.745342 
L 476.091975 44.66457 
L 475.36405 44.683292 
L 474.636125 44.784821 
L 473.9082 44.6825 
L 473.180275 44.679168 
L 472.45235 44.702321 
L 471.724425 44.768915 
L 470.9965 44.739554 
L 470.268575 44.694562 
L 469.54065 44.803827 
L 468.812725 44.893433 
L 468.0848 44.982439 
L 467.356875 44.943301 
L 466.62895 44.929405 
L 465.901025 44.992521 
L 465.1731 44.975945 
L 464.445175 45.069712 
L 463.71725 45.129037 
L 462.989325 45.11373 
L 462.2614 45.08811 
L 461.533475 45.151814 
L 460.80555 45.176922 
L 460.077625 45.260245 
L 459.3497 45.352901 
L 458.621775 45.312441 
L 457.89385 45.210761 
L 457.165925 45.174331 
L 456.438 45.251463 
L 455.710075 45.262786 
L 454.98215 45.269775 
L 454.254225 45.423927 
L 453.5263 45.642243 
L 452.798375 45.667918 
L 452.07045 45.606587 
L 451.342525 45.690158 
L 450.6146 45.726185 
L 449.886675 45.678043 
L 449.15875 45.670771 
L 448.430825 45.797518 
L 447.7029 45.922473 
L 446.974975 46.099102 
L 446.24705 46.030155 
L 445.519125 45.950678 
L 444.7912 45.919325 
L 444.063275 46.087179 
L 443.33535 46.120936 
L 442.607425 46.127909 
L 441.8795 46.087546 
L 441.151575 46.083052 
L 440.42365 46.007314 
L 439.695725 46.049037 
L 438.9678 46.02652 
L 438.239875 46.085552 
L 437.51195 46.204045 
L 436.784025 46.203787 
L 436.0561 46.151582 
L 435.328175 46.139509 
L 434.60025 46.089041 
L 433.872325 46.042069 
L 433.1444 46.236386 
L 432.416475 46.192506 
L 431.68855 46.102847 
L 430.960625 46.210506 
L 430.2327 46.205739 
L 429.504775 46.229729 
L 428.77685 46.318649 
L 428.048925 46.234922 
L 427.321 46.305208 
L 426.593075 46.408091 
L 425.86515 46.524295 
L 425.137225 46.528806 
L 424.4093 46.477683 
L 423.681375 46.458757 
L 422.95345 46.482895 
L 422.225525 46.533192 
L 421.4976 46.526415 
L 420.769675 46.570205 
L 420.04175 46.521422 
L 419.313825 46.43188 
L 418.5859 46.381429 
L 417.857975 46.361395 
L 417.13005 46.470621 
L 416.402125 46.609166 
L 415.6742 46.636915 
L 414.946275 46.596118 
L 414.21835 46.621605 
L 413.490425 46.548428 
L 412.7625 46.555878 
L 412.034575 46.404053 
L 411.30665 46.539568 
L 410.578725 46.700577 
L 409.8508 46.726075 
L 409.122875 46.597625 
L 408.39495 46.591983 
L 407.667025 46.721524 
L 406.9391 46.802235 
L 406.211175 46.852925 
L 405.48325 46.874409 
L 404.755325 46.866444 
L 404.0274 46.969668 
L 403.299475 46.910693 
L 402.57155 46.945148 
L 401.843625 47.050762 
L 401.1157 47.229893 
L 400.387775 47.400523 
L 399.65985 47.597152 
L 398.931925 47.755691 
L 398.204 47.691826 
L 397.476075 47.598164 
L 396.74815 47.46751 
L 396.020225 47.388304 
L 395.2923 47.358298 
L 394.564375 47.292486 
L 393.83645 47.447903 
L 393.108525 47.42155 
L 392.3806 47.610775 
L 391.652675 47.578952 
L 390.92475 47.501374 
L 390.196825 47.668382 
L 389.4689 47.770653 
L 388.740975 47.817712 
L 388.01305 47.774097 
L 387.285125 47.874572 
L 386.5572 47.854169 
L 385.829275 47.782181 
L 385.10135 47.745277 
L 384.373425 47.884028 
L 383.6455 47.865323 
L 382.917575 47.868677 
L 382.18965 47.878029 
L 381.461725 47.877131 
L 380.7338 47.834293 
L 380.005875 47.815685 
L 379.27795 47.893157 
L 378.550025 47.985494 
L 377.8221 48.202221 
L 377.094175 48.282128 
L 376.36625 48.411746 
L 375.638325 48.431087 
L 374.9104 48.560174 
L 374.182475 48.657885 
L 373.45455 48.771721 
L 372.726625 48.709621 
L 371.9987 48.801674 
L 371.270775 48.941497 
L 370.54285 49.016349 
L 369.814925 49.11687 
L 369.087 49.232984 
L 368.359075 49.097426 
L 367.63115 49.048975 
L 366.903225 49.09074 
L 366.1753 49.216043 
L 365.447375 49.439596 
L 364.71945 49.670672 
L 363.991525 49.789317 
L 363.2636 49.878114 
L 362.535675 49.914921 
L 361.80775 50.112888 
L 361.079825 49.984152 
L 360.3519 50.134707 
L 359.623975 50.278993 
L 358.89605 50.347517 
L 358.168125 50.425623 
L 357.4402 50.657462 
L 356.712275 50.670549 
L 355.98435 50.876093 
L 355.256425 50.967176 
L 354.5285 51.023334 
L 353.800575 51.169049 
L 353.07265 51.403951 
L 352.344725 51.452113 
L 351.6168 51.585526 
L 350.888875 51.630504 
L 350.16095 51.730086 
L 349.433025 51.807116 
L 348.7051 51.980577 
L 347.977175 51.922556 
L 347.24925 51.965837 
L 346.521325 52.086758 
L 345.7934 52.183949 
L 345.065475 52.306821 
L 344.33755 52.397711 
L 343.609625 52.37837 
L 342.8817 52.549793 
L 342.153775 52.677625 
L 341.42585 52.710196 
L 340.697925 52.96169 
L 339.97 53.002113 
L 339.242075 53.203684 
L 338.51415 53.480109 
L 337.786225 53.643874 
L 337.0583 53.811118 
L 336.330375 53.734838 
L 335.60245 53.753799 
L 334.874525 53.806045 
L 334.1466 53.962125 
L 333.418675 54.037456 
L 332.69075 54.179831 
L 331.962825 54.087579 
L 331.2349 54.228032 
L 330.506975 54.417763 
L 329.77905 54.458432 
L 329.051125 54.436871 
L 328.3232 54.529295 
L 327.595275 54.545968 
L 326.86735 54.644244 
L 326.139425 54.714894 
L 325.4115 54.864961 
L 324.683575 54.95813 
L 323.95565 55.060057 
L 323.227725 55.157571 
L 322.4998 55.117025 
L 321.771875 55.231597 
L 321.04395 55.33973 
L 320.316025 55.698817 
L 319.5881 55.816013 
L 318.860175 55.781569 
L 318.13225 55.9883 
L 317.404325 56.27655 
L 316.6764 56.368472 
L 315.948475 56.508731 
L 315.22055 56.719988 
L 314.492625 56.864616 
L 313.7647 56.854704 
L 313.036775 57.070218 
L 312.30885 57.126769 
L 311.580925 57.34738 
L 310.853 57.582098 
L 310.125075 57.805896 
L 309.39715 57.896598 
L 308.669225 58.136328 
L 307.9413 58.367406 
L 307.213375 58.580925 
L 306.48545 58.965835 
L 305.757525 59.188925 
L 305.0296 59.274999 
L 304.301675 59.585758 
L 303.57375 59.500426 
L 302.845825 59.420353 
L 302.1179 59.546052 
L 301.389975 59.598282 
L 300.66205 59.91757 
L 299.934125 60.188835 
L 299.2062 60.257926 
L 298.478275 60.408115 
L 297.75035 60.437569 
L 297.022425 60.540517 
L 296.2945 60.60299 
L 295.566575 60.778361 
L 294.83865 61.143848 
L 294.110725 61.094845 
L 293.3828 61.185044 
L 292.654875 61.275431 
L 291.92695 61.347426 
L 291.199025 61.324095 
L 290.4711 61.571117 
L 289.743175 61.66547 
L 289.01525 62.035971 
L 288.287325 62.000689 
L 287.5594 61.929743 
L 286.831475 61.972468 
L 286.10355 62.166184 
L 285.375625 62.226418 
L 284.6477 62.635356 
L 283.919775 62.929645 
L 283.19185 63.099247 
L 282.463925 63.267039 
L 281.736 63.495083 
L 281.008075 63.768348 
L 280.28015 63.941561 
L 279.552225 64.201709 
L 278.8243 64.274974 
L 278.096375 64.557304 
L 277.36845 64.535971 
L 276.640525 64.780736 
L 275.9126 64.872457 
L 275.184675 65.013092 
L 274.45675 65.179528 
L 273.728825 65.425202 
L 273.0009 65.586262 
L 272.272975 65.871875 
L 271.54505 66.327565 
L 270.817125 66.73468 
L 270.0892 67.087157 
L 269.361275 67.476718 
L 268.63335 67.846389 
L 267.905425 68.130446 
L 267.1775 68.476842 
L 266.449575 68.728975 
L 265.72165 68.95977 
L 264.993725 69.324137 
L 264.2658 69.37342 
L 263.537875 69.684664 
L 262.80995 69.768058 
L 262.082025 69.871553 
L 261.3541 70.052722 
L 260.626175 69.957662 
L 259.89825 70.005975 
L 259.170325 70.169987 
L 258.4424 70.348571 
L 257.714475 70.57674 
L 256.98655 70.777999 
L 256.258625 71.199486 
L 255.5307 71.503832 
L 254.802775 71.861949 
L 254.07485 72.195046 
L 253.346925 72.560009 
L 252.619 72.584147 
L 251.891075 72.87797 
L 251.16315 73.194249 
L 250.435225 73.204361 
L 249.7073 73.431008 
L 248.979375 73.761587 
L 248.25145 74.007284 
L 247.523525 74.306682 
L 246.7956 74.692998 
L 246.067675 75.116103 
L 245.33975 75.304469 
L 244.611825 75.734821 
L 243.8839 76.103588 
L 243.155975 76.840351 
L 242.42805 77.056865 
L 241.700125 77.269503 
L 240.9722 77.683971 
L 240.244275 78.239843 
L 239.51635 78.79273 
L 238.788425 79.362609 
L 238.0605 79.695531 
L 237.332575 80.025046 
L 236.60465 80.350943 
L 235.876725 80.557318 
L 235.1488 81.001379 
L 234.420875 81.194401 
L 233.69295 81.499649 
L 232.965025 81.994856 
L 232.2371 82.34856 
L 231.509175 82.665545 
L 230.78125 82.850323 
L 230.053325 83.156386 
L 229.3254 83.248391 
L 228.597475 83.709368 
L 227.86955 83.98435 
L 227.141625 84.171053 
L 226.4137 84.588577 
L 225.685775 85.207352 
L 224.95785 85.817507 
L 224.229925 86.036577 
L 223.502 86.231947 
L 222.774075 86.482684 
L 222.04615 86.817818 
L 221.318225 87.115967 
L 220.5903 87.635645 
L 219.862375 87.926514 
L 219.13445 88.098722 
L 218.406525 88.571032 
L 217.6786 88.92721 
L 216.950675 89.226733 
L 216.22275 89.58392 
L 215.494825 89.932593 
L 214.7669 90.409783 
L 214.038975 90.815067 
L 213.31105 91.194749 
L 212.583125 91.72154 
L 211.8552 91.995881 
L 211.127275 92.599498 
L 210.39935 92.92319 
L 209.671425 93.300973 
L 208.9435 93.440607 
L 208.215575 93.909732 
L 207.48765 94.677395 
L 206.759725 95.007076 
L 206.0318 95.51398 
L 205.303875 96.081246 
L 204.57595 96.80469 
L 203.848025 97.25659 
L 203.1201 97.923998 
L 202.392175 98.136557 
L 201.66425 98.274245 
L 200.936325 98.881841 
L 200.2084 99.339675 
L 199.480475 100.014504 
L 198.75255 100.528198 
L 198.024625 100.670614 
L 197.2967 101.114074 
L 196.568775 101.662531 
L 195.84085 102.257483 
L 195.112925 102.741774 
L 194.385 102.987422 
L 193.657075 103.467922 
L 192.92915 104.175255 
L 192.201225 104.65569 
L 191.4733 105.181451 
L 190.745375 105.67573 
L 190.01745 106.150884 
L 189.289525 106.619952 
L 188.5616 107.081873 
L 187.833675 107.705213 
L 187.10575 108.406622 
L 186.377825 109.191071 
L 185.6499 109.621064 
L 184.921975 110.250988 
L 184.19405 110.59547 
L 183.466125 111.206643 
L 182.7382 111.827394 
L 182.010275 112.083192 
L 181.28235 112.553862 
L 180.554425 113.01405 
L 179.8265 113.646859 
L 179.098575 114.122331 
L 178.37065 115.183178 
L 177.642725 116.070115 
L 176.9148 116.416074 
L 176.186875 117.208673 
L 175.45895 118.103728 
L 174.731025 118.348462 
L 174.0031 119.076652 
L 173.275175 119.68435 
L 172.54725 120.078409 
L 171.819325 120.585427 
L 171.0914 121.216673 
L 170.363475 121.942009 
L 169.63555 122.699816 
L 168.907625 123.600529 
L 168.1797 124.389243 
L 167.451775 125.013654 
L 166.72385 125.887011 
L 165.995925 126.757497 
L 165.268 127.431697 
L 164.540075 128.260458 
L 163.81215 129.249224 
L 163.084225 129.607297 
L 162.3563 130.191513 
L 161.628375 130.864696 
L 160.90045 131.958501 
L 160.172525 132.625011 
L 159.4446 133.809343 
L 158.716675 134.46747 
L 157.98875 135.064661 
L 157.260825 135.457101 
L 156.5329 136.263803 
L 155.804975 136.924514 
L 155.07705 137.568968 
L 154.349125 138.432538 
L 153.6212 139.162044 
L 152.893275 139.826273 
L 152.16535 140.794195 
L 151.437425 141.454363 
L 150.7095 142.180298 
L 149.981575 142.56126 
L 149.25365 143.18597 
L 148.525725 144.164108 
L 147.7978 145.040864 
L 147.069875 145.989648 
L 146.34195 146.625747 
L 145.614025 147.540672 
L 144.8861 147.905102 
L 144.158175 148.771982 
L 143.43025 149.30171 
L 142.702325 150.303506 
L 141.9744 150.994071 
L 141.246475 152.136959 
L 140.51855 152.745901 
L 139.790625 153.524236 
L 139.0627 154.306501 
L 138.334775 155.530931 
L 137.60685 156.209273 
L 136.878925 156.944874 
L 136.151 157.65484 
L 135.423075 158.692491 
L 134.69515 159.933284 
L 133.967225 160.808765 
L 133.2393 161.875557 
L 132.511375 163.146068 
L 131.78345 164.109524 
L 131.055525 164.777108 
L 130.3276 165.734361 
L 129.599675 166.44244 
L 128.87175 167.543497 
L 128.143825 168.281133 
L 127.4159 169.031483 
L 126.687975 169.515303 
L 125.96005 170.525614 
L 125.232125 171.685193 
L 124.5042 172.592121 
L 123.776275 173.361047 
L 123.04835 174.463229 
L 122.320425 175.519829 
L 121.5925 176.388819 
L 120.864575 177.12232 
L 120.13665 177.739975 
L 119.408725 178.98891 
L 118.6808 179.95932 
L 117.952875 180.753242 
L 117.22495 181.853042 
L 116.497025 182.835482 
L 115.7691 183.87233 
L 115.041175 184.592948 
L 114.31325 185.450415 
L 113.585325 186.457924 
L 112.8574 187.463152 
L 112.129475 188.32433 
L 111.40155 188.951122 
L 110.673625 189.563171 
L 109.9457 190.336949 
L 109.217775 191.258758 
L 108.48985 192.15727 
L 107.761925 193.281138 
L 107.034 194.059771 
L 106.306075 195.190551 
L 105.57815 195.784728 
L 104.850225 196.593214 
L 104.1223 197.509176 
L 103.394375 198.270166 
L 102.66645 199.198603 
L 101.938525 200.167299 
L 101.2106 200.946228 
L 100.482675 201.959421 
L 99.75475 202.725657 
L 99.026825 203.206507 
L 98.2989 203.791436 
L 97.570975 204.703764 
L 96.84305 205.259119 
L 96.115125 205.706864 
L 95.3872 206.487813 
L 94.659275 207.00703 
L 93.93135 207.485451 
L 93.203425 208.11992 
L 92.4755 208.593183 
L 91.747575 208.929484 
L 91.01965 209.608487 
L 90.291725 209.844891 
L 89.5638 210.403313 
L 88.835875 210.86323 
L 88.10795 211.263406 
L 87.380025 211.639454 
L 86.6521 212.100745 
L 85.924175 212.422555 
L 85.19625 212.958753 
L 84.468325 213.389439 
L 83.7404 213.882777 
L 83.012475 214.233265 
L 82.28455 214.617624 
L 81.556625 214.953912 
L 80.8287 215.40285 
L 80.100775 215.809617 
L 79.37285 216.138842 
L 78.644925 216.477031 
L 77.917 216.723588 
L 77.189075 217.087487 
L 76.46115 217.344629 
L 75.733225 217.566981 
L 75.0053 217.85105 
L 74.277375 218.140053 
L 73.54945 218.48521 
L 72.821525 218.676223 
L 72.0936 218.957035 
L 71.365675 219.202098 
L 70.63775 219.242703 
L 69.909825 219.420848 
L 69.1819 219.58708 
L 68.453975 219.745833 
L 67.72605 219.883428 
L 66.998125 220.001895 
L 66.2702 220.102038 
L 65.542275 220.275609 
L 64.81435 220.402609 
L 64.086425 220.48115 
L 63.3585 220.670994 
L 62.630575 220.754015 
L 61.90265 220.90334 
L 61.174725 220.981364 
L 60.4468 221.119373 
L 59.718875 221.242307 
L 58.99095 221.450412 
L 58.263025 221.494806 
L 57.5351 221.576251 
L 56.807175 221.6827 
L 56.07925 221.756478 
L 55.351325 221.762423 
L 54.6234 221.810256 
L 53.895475 221.893095 
L 53.16755 222.024317 
L 52.439625 222.011089 
L 51.7117 222.008978 
L 50.983775 222.031973 
L 50.25585 222.061785 
L 49.527925 222.082265 
L 48.8 222.11 
z
" style="fill:#0173b2;fill-opacity:0.5;stroke:#ffffff;stroke-opacity:0.5;"/>
   </g>
   <g id="line2d_1">
    <path clip-path="url(#pa3725e0260)" d="M 48.8 222.11 
L 53.16755 222.101158 
L 54.6234 221.903387 
L 58.99095 221.569185 
L 60.4468 221.250096 
L 64.81435 220.56432 
L 69.909825 219.611777 
L 70.63775 219.435823 
L 71.365675 219.397147 
L 74.277375 218.357324 
L 80.100775 216.07272 
L 85.19625 213.27976 
L 85.924175 212.753416 
L 86.6521 212.437138 
L 88.10795 211.61191 
L 89.5638 210.764642 
L 90.291725 210.21318 
L 91.01965 209.98049 
L 91.747575 209.310634 
L 92.4755 208.973748 
L 93.203425 208.504853 
L 93.93135 207.880397 
L 95.3872 206.898875 
L 96.115125 206.129523 
L 97.570975 205.135239 
L 98.2989 204.236015 
L 100.482675 202.425912 
L 101.2106 201.424047 
L 101.938525 200.652258 
L 103.394375 198.775201 
L 104.850225 197.116922 
L 105.57815 196.31634 
L 106.306075 195.726837 
L 107.034 194.605325 
L 107.761925 193.83175 
L 108.48985 192.71904 
L 110.673625 190.143615 
L 112.129475 188.913447 
L 113.585325 187.058699 
L 115.041175 185.208363 
L 115.7691 184.49292 
L 117.952875 181.390224 
L 118.6808 180.602605 
L 119.408725 179.637907 
L 120.13665 178.396142 
L 121.5925 177.050885 
L 122.320425 176.185646 
L 123.776275 174.038916 
L 125.232125 172.369658 
L 126.687975 170.203977 
L 127.4159 169.721658 
L 128.87175 168.242324 
L 129.599675 167.150006 
L 130.3276 166.444351 
L 131.055525 165.489633 
L 131.78345 164.825076 
L 132.511375 163.867859 
L 133.967225 161.537709 
L 134.69515 160.662288 
L 136.151 158.386283 
L 138.334775 156.271023 
L 139.0627 155.045109 
L 140.51855 153.487007 
L 141.246475 152.878604 
L 141.9744 151.735791 
L 142.702325 151.048169 
L 143.43025 150.048972 
L 144.158175 149.522109 
L 144.8861 148.653132 
L 145.614025 148.287416 
L 146.34195 147.374795 
L 147.069875 146.740116 
L 149.25365 143.939597 
L 149.981575 143.316969 
L 150.7095 142.941377 
L 152.16535 141.559728 
L 152.893275 140.590105 
L 154.349125 139.194026 
L 155.07705 138.33374 
L 156.5329 137.032891 
L 157.260825 136.225037 
L 157.98875 135.833186 
L 159.4446 134.579158 
L 160.172525 133.393516 
L 160.90045 132.727596 
L 161.628375 131.633372 
L 163.084225 130.377668 
L 163.81215 130.020509 
L 165.268 128.19829 
L 165.995925 127.525208 
L 167.451775 125.778112 
L 168.1797 125.151314 
L 171.819325 121.348656 
L 174.0031 119.833271 
L 174.731025 119.103432 
L 175.45895 118.860075 
L 176.9148 117.174088 
L 177.642725 116.82761 
L 179.098575 114.875486 
L 179.8265 114.396935 
L 180.554425 113.763646 
L 182.010275 112.830647 
L 182.7382 112.573748 
L 184.19405 111.341161 
L 184.921975 110.996175 
L 185.6499 110.364045 
L 186.377825 109.932615 
L 187.833675 108.444484 
L 188.5616 107.820221 
L 192.92915 104.904905 
L 193.657075 104.199381 
L 194.385 103.719997 
L 195.112925 103.472866 
L 196.568775 102.385285 
L 198.024625 101.389339 
L 198.75255 101.248824 
L 199.480475 100.731973 
L 200.2084 100.05388 
L 200.936325 99.597015 
L 201.66425 98.988299 
L 203.1201 98.636256 
L 203.848025 97.966819 
L 204.57595 97.515826 
L 205.303875 96.787347 
L 206.759725 95.709179 
L 207.48765 95.375939 
L 208.215575 94.606586 
L 208.9435 94.137254 
L 209.671425 93.994048 
L 211.127275 93.291217 
L 211.8552 92.686794 
L 212.583125 92.414019 
L 213.31105 91.883585 
L 219.13445 88.773348 
L 220.5903 88.306591 
L 221.318225 87.787905 
L 223.502 86.89491 
L 224.95785 86.478816 
L 226.4137 85.244966 
L 227.141625 84.826445 
L 228.597475 84.364922 
L 229.3254 83.90003 
L 230.053325 83.80834 
L 230.78125 83.502016 
L 231.509175 83.316475 
L 232.965025 82.641046 
L 233.69295 82.143976 
L 238.788425 79.998353 
L 240.9722 78.309171 
L 241.700125 77.892693 
L 243.155975 77.457382 
L 243.8839 76.717934 
L 247.523525 74.906287 
L 250.435225 73.79405 
L 251.16315 73.78212 
L 252.619 73.168334 
L 253.346925 73.143871 
L 256.98655 71.354297 
L 259.89825 70.576691 
L 260.626175 70.529135 
L 261.3541 70.623598 
L 262.80995 70.335739 
L 263.537875 70.251958 
L 264.2658 69.939826 
L 264.993725 69.8903 
L 265.72165 69.520783 
L 267.1775 69.035979 
L 271.54505 66.871152 
L 272.272975 66.413368 
L 273.0009 66.125873 
L 281.008075 64.290958 
L 282.463925 63.789253 
L 283.919775 63.447951 
L 286.10355 62.680063 
L 286.831475 62.484291 
L 287.5594 62.441228 
L 289.01525 62.546852 
L 289.743175 62.175112 
L 290.4711 62.081049 
L 291.199025 61.830844 
L 292.654875 61.782378 
L 294.110725 61.596635 
L 294.83865 61.648776 
L 295.566575 61.28048 
L 297.022425 61.040957 
L 300.66205 60.415255 
L 301.389975 60.092014 
L 303.57375 59.992439 
L 304.301675 60.079823 
L 305.0296 59.766651 
L 305.757525 59.678313 
L 306.48545 59.453845 
L 307.213375 59.065591 
L 312.30885 57.600902 
L 313.036775 57.54457 
L 313.7647 57.326648 
L 314.492625 57.334497 
L 317.404325 56.741585 
L 318.860175 56.241328 
L 319.5881 56.276073 
L 320.316025 56.157634 
L 321.04395 55.798296 
L 322.4998 55.57137 
L 323.227725 55.612608 
L 329.051125 54.884157 
L 330.506975 54.864574 
L 331.962825 54.53357 
L 332.69075 54.626262 
L 334.874525 54.24909 
L 336.330375 54.179643 
L 337.0583 54.256372 
L 339.242075 53.644403 
L 339.97 53.44104 
L 340.697925 53.399744 
L 341.42585 53.147822 
L 342.8817 52.985963 
L 343.609625 52.810762 
L 345.065475 52.737416 
L 347.24925 52.394625 
L 350.16095 52.157364 
L 355.98435 51.29454 
L 356.712275 51.087722 
L 357.4402 51.071623 
L 358.168125 50.83762 
L 360.3519 50.541052 
L 361.079825 50.388128 
L 361.80775 50.51617 
L 362.535675 50.315965 
L 363.991525 50.189917 
L 364.71945 50.070449 
L 366.903225 49.48453 
L 368.359075 49.490786 
L 369.087 49.626023 
L 372.726625 49.096001 
L 373.45455 49.159644 
L 377.094175 48.665512 
L 377.8221 48.584582 
L 378.550025 48.366639 
L 380.005875 48.190869 
L 384.373425 48.25658 
L 385.10135 48.117219 
L 387.285125 48.24762 
L 388.01305 48.147079 
L 389.4689 48.141657 
L 390.92475 47.871197 
L 392.3806 47.979413 
L 393.108525 47.787744 
L 393.83645 47.814993 
L 394.564375 47.658751 
L 398.931925 48.121961 
L 402.57155 47.303076 
L 409.122875 46.947382 
L 409.8508 47.07585 
L 410.578725 47.050871 
L 412.034575 46.752507 
L 412.7625 46.906125 
L 413.490425 46.898545 
L 413.490425 46.898545 
" style="fill:none;stroke:#0173b2;stroke-linecap:round;stroke-width:3;"/>
   </g>
   <g id="line2d_2">
    <path clip-path="url(#pa3725e0260)" d="M 48.8 222.11 
L 56.07925 221.848538 
L 63.3585 221.045859 
L 70.63775 219.656048 
L 77.917 217.629378 
L 85.19625 214.9338 
L 92.4755 211.565166 
L 99.75475 207.547089 
L 107.034 202.918646 
L 114.31325 197.716918 
L 121.5925 191.968066 
L 128.87175 185.692884 
L 136.151 178.921047 
L 143.43025 171.704895 
L 150.7095 164.126605 
L 157.98875 156.296453 
L 165.268 148.343406 
L 172.54725 140.401805 
L 179.8265 132.598382 
L 187.10575 125.042557 
L 194.385 117.821058 
L 201.66425 110.996469 
L 208.9435 104.608607 
L 216.22275 98.677558 
L 223.502 93.207399 
L 230.78125 88.189955 
L 238.0605 83.60822 
L 245.33975 79.43925 
L 252.619 75.656493 
L 259.89825 72.231588 
L 267.1775 69.135703 
L 274.45675 66.34048 
L 281.736 63.818681 
L 289.01525 61.544597 
L 296.2945 59.494282 
L 303.57375 57.645656 
L 310.853 55.97852 
L 318.13225 54.474509 
L 325.4115 53.117003 
L 332.69075 51.891021 
L 339.97 50.783096 
L 347.24925 49.781145 
L 354.5285 48.874349 
L 361.80775 48.053025 
L 369.087 47.308521 
L 376.36625 46.633101 
L 383.6455 46.019854 
L 390.92475 45.462603 
L 398.204 44.955826 
L 405.48325 44.494586 
L 412.7625 44.074464 
L 420.04175 43.691501 
L 427.321 43.342153 
L 433 43.093348 
" style="fill:none;stroke:#de8f05;stroke-linecap:round;stroke-width:3;"/>
   </g>
   <g id="patch_3">
    <path d="M 48.8 245.2 
L 48.8 14.3 
" style="fill:none;stroke:#262626;stroke-linecap:square;stroke-linejoin:miter;stroke-width:0.8;"/>
   </g>
   <g id="patch_4">
    <path d="M 48.8 245.2 
L 412.7625 245.2 
" style="fill:none;stroke:#262626;stroke-linecap:square;stroke-linejoin:miter;stroke-width:0.8;"/>
   </g>
  </g>
 </g>
 <defs>
  <clipPath id="pa3725e0260">
   <rect height="230.9" width="363.9625" x="48.8" y="14.3"/>
  </clipPath>
 </defs>
</svg>
