<?xml version="1.0" encoding="utf-8" standalone="no"?>
<!DOCTYPE svg PUBLIC "-//W3C//DTD SVG 1.1//EN"
  "http://www.w3.org/Graphics/SVG/1.1/DTD/svg11.dtd">
<svg xmlns:xlink="http://www.w3.org/1999/xlink" width="366.09565pt" height="235.346705pt" viewBox="0 0 366.09565 235.346705" xmlns="http://www.w3.org/2000/svg" version="1.1">
 <metadata>
  <rdf:RDF xmlns:dc="http://purl.org/dc/elements/1.1/" xmlns:cc="http://creativecommons.org/ns#" xmlns:rdf="http://www.w3.org/1999/02/22-rdf-syntax-ns#">
   <cc:Work>
    <dc:type rdf:resource="http://purl.org/dc/dcmitype/StillImage"/>
    <dc:date>2023-02-23T17:41:22.378170</dc:date>
    <dc:format>image/svg+xml</dc:format>
    <dc:creator>
     <cc:Agent>
      <dc:title>Matplotlib v3.6.2, https://matplotlib.org/</dc:title>
     </cc:Agent>
    </dc:creator>
   </cc:Work>
  </rdf:RDF>
 </metadata>
 <defs>
  <style type="text/css">*{stroke-linejoin: round; stroke-linecap: butt}</style>
 </defs>
 <g id="figure_1">
  <g id="patch_1">
   <path d="M 0 235.346705 
L 366.09565 235.346705 
L 366.09565 0 
L 0 0 
L 0 235.346705 
z
" style="fill: none"/>
  </g>
  <g id="axes_1">
   <g id="patch_2">
    <path d="M 46.80625 198.85608 
L 358.89565 198.85608 
L 358.89565 7.2 
L 46.80625 7.2 
L 46.80625 198.85608 
z
" style="fill: none"/>
   </g>
   <g id="patch_3">
    <path d="M 60.992132 198.85608 
L 62.493283 198.85608 
L 62.493283 198.57627 
L 60.992132 198.57627 
z
" clip-path="url(#p2105fb0fdf)" style="fill: #1f77b4"/>
   </g>
   <g id="patch_4">
    <path d="M 62.493283 198.85608 
L 63.994435 198.85608 
L 63.994435 198.85608 
L 62.493283 198.85608 
z
" clip-path="url(#p2105fb0fdf)" style="fill: #1f77b4"/>
   </g>
   <g id="patch_5">
    <path d="M 63.994435 198.85608 
L 65.495586 198.85608 
L 65.495586 198.85608 
L 63.994435 198.85608 
z
" clip-path="url(#p2105fb0fdf)" style="fill: #1f77b4"/>
   </g>
   <g id="patch_6">
    <path d="M 65.495586 198.85608 
L 66.996738 198.85608 
L 66.996738 198.85608 
L 65.495586 198.85608 
z
" clip-path="url(#p2105fb0fdf)" style="fill: #1f77b4"/>
   </g>
   <g id="patch_7">
    <path d="M 66.996738 198.85608 
L 68.497889 198.85608 
L 68.497889 198.66954 
L 66.996738 198.66954 
z
" clip-path="url(#p2105fb0fdf)" style="fill: #1f77b4"/>
   </g>
   <g id="patch_8">
    <path d="M 68.497889 198.85608 
L 69.999041 198.85608 
L 69.999041 198.76281 
L 68.497889 198.76281 
z
" clip-path="url(#p2105fb0fdf)" style="fill: #1f77b4"/>
   </g>
   <g id="patch_9">
    <path d="M 69.999041 198.85608 
L 71.500192 198.85608 
L 71.500192 198.66954 
L 69.999041 198.66954 
z
" clip-path="url(#p2105fb0fdf)" style="fill: #1f77b4"/>
   </g>
   <g id="patch_10">
    <path d="M 71.500192 198.85608 
L 73.001344 198.85608 
L 73.001344 198.66954 
L 71.500192 198.66954 
z
" clip-path="url(#p2105fb0fdf)" style="fill: #1f77b4"/>
   </g>
   <g id="patch_11">
    <path d="M 73.001344 198.85608 
L 74.502495 198.85608 
L 74.502495 198.66954 
L 73.001344 198.66954 
z
" clip-path="url(#p2105fb0fdf)" style="fill: #1f77b4"/>
   </g>
   <g id="patch_12">
    <path d="M 74.502495 198.85608 
L 76.003647 198.85608 
L 76.003647 198.483 
L 74.502495 198.483 
z
" clip-path="url(#p2105fb0fdf)" style="fill: #1f77b4"/>
   </g>
   <g id="patch_13">
    <path d="M 76.003647 198.85608 
L 77.504798 198.85608 
L 77.504798 197.923379 
L 76.003647 197.923379 
z
" clip-path="url(#p2105fb0fdf)" style="fill: #1f77b4"/>
   </g>
   <g id="patch_14">
    <path d="M 77.504798 198.85608 
L 79.00595 198.85608 
L 79.00595 198.57627 
L 77.504798 198.57627 
z
" clip-path="url(#p2105fb0fdf)" style="fill: #1f77b4"/>
   </g>
   <g id="patch_15">
    <path d="M 79.00595 198.85608 
L 80.507102 198.85608 
L 80.507102 198.296459 
L 79.00595 198.296459 
z
" clip-path="url(#p2105fb0fdf)" style="fill: #1f77b4"/>
   </g>
   <g id="patch_16">
    <path d="M 80.507102 198.85608 
L 82.008253 198.85608 
L 82.008253 198.203189 
L 80.507102 198.203189 
z
" clip-path="url(#p2105fb0fdf)" style="fill: #1f77b4"/>
   </g>
   <g id="patch_17">
    <path d="M 82.008253 198.85608 
L 83.509405 198.85608 
L 83.509405 198.203189 
L 82.008253 198.203189 
z
" clip-path="url(#p2105fb0fdf)" style="fill: #1f77b4"/>
   </g>
   <g id="patch_18">
    <path d="M 83.509405 198.85608 
L 85.010556 198.85608 
L 85.010556 197.736839 
L 83.509405 197.736839 
z
" clip-path="url(#p2105fb0fdf)" style="fill: #1f77b4"/>
   </g>
   <g id="patch_19">
    <path d="M 85.010556 198.85608 
L 86.511708 198.85608 
L 86.511708 197.457028 
L 85.010556 197.457028 
z
" clip-path="url(#p2105fb0fdf)" style="fill: #1f77b4"/>
   </g>
   <g id="patch_20">
    <path d="M 86.511708 198.85608 
L 88.012859 198.85608 
L 88.012859 196.897408 
L 86.511708 196.897408 
z
" clip-path="url(#p2105fb0fdf)" style="fill: #1f77b4"/>
   </g>
   <g id="patch_21">
    <path d="M 88.012859 198.85608 
L 89.514011 198.85608 
L 89.514011 197.177218 
L 88.012859 197.177218 
z
" clip-path="url(#p2105fb0fdf)" style="fill: #1f77b4"/>
   </g>
   <g id="patch_22">
    <path d="M 89.514011 198.85608 
L 91.015162 198.85608 
L 91.015162 196.897408 
L 89.514011 196.897408 
z
" clip-path="url(#p2105fb0fdf)" style="fill: #1f77b4"/>
   </g>
   <g id="patch_23">
    <path d="M 91.015162 198.85608 
L 92.516314 198.85608 
L 92.516314 197.643569 
L 91.015162 197.643569 
z
" clip-path="url(#p2105fb0fdf)" style="fill: #1f77b4"/>
   </g>
   <g id="patch_24">
    <path d="M 92.516314 198.85608 
L 94.017465 198.85608 
L 94.017465 197.550298 
L 92.516314 197.550298 
z
" clip-path="url(#p2105fb0fdf)" style="fill: #1f77b4"/>
   </g>
   <g id="patch_25">
    <path d="M 94.017465 198.85608 
L 95.518617 198.85608 
L 95.518617 197.643569 
L 94.017465 197.643569 
z
" clip-path="url(#p2105fb0fdf)" style="fill: #1f77b4"/>
   </g>
   <g id="patch_26">
    <path d="M 95.518617 198.85608 
L 97.019768 198.85608 
L 97.019768 197.643569 
L 95.518617 197.643569 
z
" clip-path="url(#p2105fb0fdf)" style="fill: #1f77b4"/>
   </g>
   <g id="patch_27">
    <path d="M 97.019768 198.85608 
L 98.52092 198.85608 
L 98.52092 197.457028 
L 97.019768 197.457028 
z
" clip-path="url(#p2105fb0fdf)" style="fill: #1f77b4"/>
   </g>
   <g id="patch_28">
    <path d="M 98.52092 198.85608 
L 100.022071 198.85608 
L 100.022071 197.177218 
L 98.52092 197.177218 
z
" clip-path="url(#p2105fb0fdf)" style="fill: #1f77b4"/>
   </g>
   <g id="patch_29">
    <path d="M 100.022071 198.85608 
L 101.523223 198.85608 
L 101.523223 197.550298 
L 100.022071 197.550298 
z
" clip-path="url(#p2105fb0fdf)" style="fill: #1f77b4"/>
   </g>
   <g id="patch_30">
    <path d="M 101.523223 198.85608 
L 103.024374 198.85608 
L 103.024374 197.083948 
L 101.523223 197.083948 
z
" clip-path="url(#p2105fb0fdf)" style="fill: #1f77b4"/>
   </g>
   <g id="patch_31">
    <path d="M 103.024374 198.85608 
L 104.525526 198.85608 
L 104.525526 196.431057 
L 103.024374 196.431057 
z
" clip-path="url(#p2105fb0fdf)" style="fill: #1f77b4"/>
   </g>
   <g id="patch_32">
    <path d="M 104.525526 198.85608 
L 106.026677 198.85608 
L 106.026677 195.591626 
L 104.525526 195.591626 
z
" clip-path="url(#p2105fb0fdf)" style="fill: #1f77b4"/>
   </g>
   <g id="patch_33">
    <path d="M 106.026677 198.85608 
L 107.527829 198.85608 
L 107.527829 196.524327 
L 106.026677 196.524327 
z
" clip-path="url(#p2105fb0fdf)" style="fill: #1f77b4"/>
   </g>
   <g id="patch_34">
    <path d="M 107.527829 198.85608 
L 109.02898 198.85608 
L 109.02898 195.218546 
L 107.527829 195.218546 
z
" clip-path="url(#p2105fb0fdf)" style="fill: #1f77b4"/>
   </g>
   <g id="patch_35">
    <path d="M 109.02898 198.85608 
L 110.530132 198.85608 
L 110.530132 194.379115 
L 109.02898 194.379115 
z
" clip-path="url(#p2105fb0fdf)" style="fill: #1f77b4"/>
   </g>
   <g id="patch_36">
    <path d="M 110.530132 198.85608 
L 112.031283 198.85608 
L 112.031283 196.337787 
L 110.530132 196.337787 
z
" clip-path="url(#p2105fb0fdf)" style="fill: #1f77b4"/>
   </g>
   <g id="patch_37">
    <path d="M 112.031283 198.85608 
L 113.532435 198.85608 
L 113.532435 194.192575 
L 112.031283 194.192575 
z
" clip-path="url(#p2105fb0fdf)" style="fill: #1f77b4"/>
   </g>
   <g id="patch_38">
    <path d="M 113.532435 198.85608 
L 115.033586 198.85608 
L 115.033586 194.938735 
L 113.532435 194.938735 
z
" clip-path="url(#p2105fb0fdf)" style="fill: #1f77b4"/>
   </g>
   <g id="patch_39">
    <path d="M 115.033586 198.85608 
L 116.534738 198.85608 
L 116.534738 194.565655 
L 115.033586 194.565655 
z
" clip-path="url(#p2105fb0fdf)" style="fill: #1f77b4"/>
   </g>
   <g id="patch_40">
    <path d="M 116.534738 198.85608 
L 118.035889 198.85608 
L 118.035889 195.125276 
L 116.534738 195.125276 
z
" clip-path="url(#p2105fb0fdf)" style="fill: #1f77b4"/>
   </g>
   <g id="patch_41">
    <path d="M 118.035889 198.85608 
L 119.537041 198.85608 
L 119.537041 195.218546 
L 118.035889 195.218546 
z
" clip-path="url(#p2105fb0fdf)" style="fill: #1f77b4"/>
   </g>
   <g id="patch_42">
    <path d="M 119.537041 198.85608 
L 121.038192 198.85608 
L 121.038192 195.684896 
L 119.537041 195.684896 
z
" clip-path="url(#p2105fb0fdf)" style="fill: #1f77b4"/>
   </g>
   <g id="patch_43">
    <path d="M 121.038192 198.85608 
L 122.539344 198.85608 
L 122.539344 194.099305 
L 121.038192 194.099305 
z
" clip-path="url(#p2105fb0fdf)" style="fill: #1f77b4"/>
   </g>
   <g id="patch_44">
    <path d="M 122.539344 198.85608 
L 124.040495 198.85608 
L 124.040495 194.285845 
L 122.539344 194.285845 
z
" clip-path="url(#p2105fb0fdf)" style="fill: #1f77b4"/>
   </g>
   <g id="patch_45">
    <path d="M 124.040495 198.85608 
L 125.541647 198.85608 
L 125.541647 193.446414 
L 124.040495 193.446414 
z
" clip-path="url(#p2105fb0fdf)" style="fill: #1f77b4"/>
   </g>
   <g id="patch_46">
    <path d="M 125.541647 198.85608 
L 127.042798 198.85608 
L 127.042798 194.379115 
L 125.541647 194.379115 
z
" clip-path="url(#p2105fb0fdf)" style="fill: #1f77b4"/>
   </g>
   <g id="patch_47">
    <path d="M 127.042798 198.85608 
L 128.54395 198.85608 
L 128.54395 194.099305 
L 127.042798 194.099305 
z
" clip-path="url(#p2105fb0fdf)" style="fill: #1f77b4"/>
   </g>
   <g id="patch_48">
    <path d="M 128.54395 198.85608 
L 130.045102 198.85608 
L 130.045102 192.980063 
L 128.54395 192.980063 
z
" clip-path="url(#p2105fb0fdf)" style="fill: #1f77b4"/>
   </g>
   <g id="patch_49">
    <path d="M 130.045102 198.85608 
L 131.546253 198.85608 
L 131.546253 193.726224 
L 130.045102 193.726224 
z
" clip-path="url(#p2105fb0fdf)" style="fill: #1f77b4"/>
   </g>
   <g id="patch_50">
    <path d="M 131.546253 198.85608 
L 133.047405 198.85608 
L 133.047405 192.700253 
L 131.546253 192.700253 
z
" clip-path="url(#p2105fb0fdf)" style="fill: #1f77b4"/>
   </g>
   <g id="patch_51">
    <path d="M 133.047405 198.85608 
L 134.548556 198.85608 
L 134.548556 191.767552 
L 133.047405 191.767552 
z
" clip-path="url(#p2105fb0fdf)" style="fill: #1f77b4"/>
   </g>
   <g id="patch_52">
    <path d="M 134.548556 198.85608 
L 136.049708 198.85608 
L 136.049708 191.394471 
L 134.548556 191.394471 
z
" clip-path="url(#p2105fb0fdf)" style="fill: #1f77b4"/>
   </g>
   <g id="patch_53">
    <path d="M 136.049708 198.85608 
L 137.550859 198.85608 
L 137.550859 191.487742 
L 136.049708 191.487742 
z
" clip-path="url(#p2105fb0fdf)" style="fill: #1f77b4"/>
   </g>
   <g id="patch_54">
    <path d="M 137.550859 198.85608 
L 139.052011 198.85608 
L 139.052011 190.928121 
L 137.550859 190.928121 
z
" clip-path="url(#p2105fb0fdf)" style="fill: #1f77b4"/>
   </g>
   <g id="patch_55">
    <path d="M 139.052011 198.85608 
L 140.553162 198.85608 
L 140.553162 190.46177 
L 139.052011 190.46177 
z
" clip-path="url(#p2105fb0fdf)" style="fill: #1f77b4"/>
   </g>
   <g id="patch_56">
    <path d="M 140.553162 198.85608 
L 142.054314 198.85608 
L 142.054314 190.928121 
L 140.553162 190.928121 
z
" clip-path="url(#p2105fb0fdf)" style="fill: #1f77b4"/>
   </g>
   <g id="patch_57">
    <path d="M 142.054314 198.85608 
L 143.555465 198.85608 
L 143.555465 191.767552 
L 142.054314 191.767552 
z
" clip-path="url(#p2105fb0fdf)" style="fill: #1f77b4"/>
   </g>
   <g id="patch_58">
    <path d="M 143.555465 198.85608 
L 145.056617 198.85608 
L 145.056617 190.3685 
L 143.555465 190.3685 
z
" clip-path="url(#p2105fb0fdf)" style="fill: #1f77b4"/>
   </g>
   <g id="patch_59">
    <path d="M 145.056617 198.85608 
L 146.557768 198.85608 
L 146.557768 191.581012 
L 145.056617 191.581012 
z
" clip-path="url(#p2105fb0fdf)" style="fill: #1f77b4"/>
   </g>
   <g id="patch_60">
    <path d="M 146.557768 198.85608 
L 148.05892 198.85608 
L 148.05892 193.726224 
L 146.557768 193.726224 
z
" clip-path="url(#p2105fb0fdf)" style="fill: #1f77b4"/>
   </g>
   <g id="patch_61">
    <path d="M 148.05892 198.85608 
L 149.560071 198.85608 
L 149.560071 191.021391 
L 148.05892 191.021391 
z
" clip-path="url(#p2105fb0fdf)" style="fill: #1f77b4"/>
   </g>
   <g id="patch_62">
    <path d="M 149.560071 198.85608 
L 151.061223 198.85608 
L 151.061223 192.047362 
L 149.560071 192.047362 
z
" clip-path="url(#p2105fb0fdf)" style="fill: #1f77b4"/>
   </g>
   <g id="patch_63">
    <path d="M 151.061223 198.85608 
L 152.562374 198.85608 
L 152.562374 190.55504 
L 151.061223 190.55504 
z
" clip-path="url(#p2105fb0fdf)" style="fill: #1f77b4"/>
   </g>
   <g id="patch_64">
    <path d="M 152.562374 198.85608 
L 154.063526 198.85608 
L 154.063526 191.021391 
L 152.562374 191.021391 
z
" clip-path="url(#p2105fb0fdf)" style="fill: #1f77b4"/>
   </g>
   <g id="patch_65">
    <path d="M 154.063526 198.85608 
L 155.564677 198.85608 
L 155.564677 191.860822 
L 154.063526 191.860822 
z
" clip-path="url(#p2105fb0fdf)" style="fill: #1f77b4"/>
   </g>
   <g id="patch_66">
    <path d="M 155.564677 198.85608 
L 157.065829 198.85608 
L 157.065829 190.928121 
L 155.564677 190.928121 
z
" clip-path="url(#p2105fb0fdf)" style="fill: #1f77b4"/>
   </g>
   <g id="patch_67">
    <path d="M 157.065829 198.85608 
L 158.56698 198.85608 
L 158.56698 191.954092 
L 157.065829 191.954092 
z
" clip-path="url(#p2105fb0fdf)" style="fill: #1f77b4"/>
   </g>
   <g id="patch_68">
    <path d="M 158.56698 198.85608 
L 160.068132 198.85608 
L 160.068132 191.487742 
L 158.56698 191.487742 
z
" clip-path="url(#p2105fb0fdf)" style="fill: #1f77b4"/>
   </g>
   <g id="patch_69">
    <path d="M 160.068132 198.85608 
L 161.569283 198.85608 
L 161.569283 190.55504 
L 160.068132 190.55504 
z
" clip-path="url(#p2105fb0fdf)" style="fill: #1f77b4"/>
   </g>
   <g id="patch_70">
    <path d="M 161.569283 198.85608 
L 163.070435 198.85608 
L 163.070435 190.55504 
L 161.569283 190.55504 
z
" clip-path="url(#p2105fb0fdf)" style="fill: #1f77b4"/>
   </g>
   <g id="patch_71">
    <path d="M 163.070435 198.85608 
L 164.571586 198.85608 
L 164.571586 190.741581 
L 163.070435 190.741581 
z
" clip-path="url(#p2105fb0fdf)" style="fill: #1f77b4"/>
   </g>
   <g id="patch_72">
    <path d="M 164.571586 198.85608 
L 166.072738 198.85608 
L 166.072738 191.021391 
L 164.571586 191.021391 
z
" clip-path="url(#p2105fb0fdf)" style="fill: #1f77b4"/>
   </g>
   <g id="patch_73">
    <path d="M 166.072738 198.85608 
L 167.573889 198.85608 
L 167.573889 189.342529 
L 166.072738 189.342529 
z
" clip-path="url(#p2105fb0fdf)" style="fill: #1f77b4"/>
   </g>
   <g id="patch_74">
    <path d="M 167.573889 198.85608 
L 169.075041 198.85608 
L 169.075041 188.876179 
L 167.573889 188.876179 
z
" clip-path="url(#p2105fb0fdf)" style="fill: #1f77b4"/>
   </g>
   <g id="patch_75">
    <path d="M 169.075041 198.85608 
L 170.576192 198.85608 
L 170.576192 185.331914 
L 169.075041 185.331914 
z
" clip-path="url(#p2105fb0fdf)" style="fill: #1f77b4"/>
   </g>
   <g id="patch_76">
    <path d="M 170.576192 198.85608 
L 172.077344 198.85608 
L 172.077344 182.160731 
L 170.576192 182.160731 
z
" clip-path="url(#p2105fb0fdf)" style="fill: #1f77b4"/>
   </g>
   <g id="patch_77">
    <path d="M 172.077344 198.85608 
L 173.578495 198.85608 
L 173.578495 183.279972 
L 172.077344 183.279972 
z
" clip-path="url(#p2105fb0fdf)" style="fill: #1f77b4"/>
   </g>
   <g id="patch_78">
    <path d="M 173.578495 198.85608 
L 175.079647 198.85608 
L 175.079647 180.575139 
L 173.578495 180.575139 
z
" clip-path="url(#p2105fb0fdf)" style="fill: #1f77b4"/>
   </g>
   <g id="patch_79">
    <path d="M 175.079647 198.85608 
L 176.580798 198.85608 
L 176.580798 174.419312 
L 175.079647 174.419312 
z
" clip-path="url(#p2105fb0fdf)" style="fill: #1f77b4"/>
   </g>
   <g id="patch_80">
    <path d="M 176.580798 198.85608 
L 178.08195 198.85608 
L 178.08195 169.102916 
L 176.580798 169.102916 
z
" clip-path="url(#p2105fb0fdf)" style="fill: #1f77b4"/>
   </g>
   <g id="patch_81">
    <path d="M 178.08195 198.85608 
L 179.583102 198.85608 
L 179.583102 165.372111 
L 178.08195 165.372111 
z
" clip-path="url(#p2105fb0fdf)" style="fill: #1f77b4"/>
   </g>
   <g id="patch_82">
    <path d="M 179.583102 198.85608 
L 181.084253 198.85608 
L 181.084253 159.869175 
L 179.583102 159.869175 
z
" clip-path="url(#p2105fb0fdf)" style="fill: #1f77b4"/>
   </g>
   <g id="patch_83">
    <path d="M 181.084253 198.85608 
L 182.585405 198.85608 
L 182.585405 157.164342 
L 181.084253 157.164342 
z
" clip-path="url(#p2105fb0fdf)" style="fill: #1f77b4"/>
   </g>
   <g id="patch_84">
    <path d="M 182.585405 198.85608 
L 184.086556 198.85608 
L 184.086556 146.53155 
L 182.585405 146.53155 
z
" clip-path="url(#p2105fb0fdf)" style="fill: #1f77b4"/>
   </g>
   <g id="patch_85">
    <path d="M 184.086556 198.85608 
L 185.587708 198.85608 
L 185.587708 142.054585 
L 184.086556 142.054585 
z
" clip-path="url(#p2105fb0fdf)" style="fill: #1f77b4"/>
   </g>
   <g id="patch_86">
    <path d="M 185.587708 198.85608 
L 187.088859 198.85608 
L 187.088859 138.510321 
L 185.587708 138.510321 
z
" clip-path="url(#p2105fb0fdf)" style="fill: #1f77b4"/>
   </g>
   <g id="patch_87">
    <path d="M 187.088859 198.85608 
L 188.590011 198.85608 
L 188.590011 120.789 
L 187.088859 120.789 
z
" clip-path="url(#p2105fb0fdf)" style="fill: #1f77b4"/>
   </g>
   <g id="patch_88">
    <path d="M 188.590011 198.85608 
L 190.091162 198.85608 
L 190.091162 112.767771 
L 188.590011 112.767771 
z
" clip-path="url(#p2105fb0fdf)" style="fill: #1f77b4"/>
   </g>
   <g id="patch_89">
    <path d="M 190.091162 198.85608 
L 191.592314 198.85608 
L 191.592314 101.295548 
L 190.091162 101.295548 
z
" clip-path="url(#p2105fb0fdf)" style="fill: #1f77b4"/>
   </g>
   <g id="patch_90">
    <path d="M 191.592314 198.85608 
L 193.093465 198.85608 
L 193.093465 85.71944 
L 191.592314 85.71944 
z
" clip-path="url(#p2105fb0fdf)" style="fill: #1f77b4"/>
   </g>
   <g id="patch_91">
    <path d="M 193.093465 198.85608 
L 194.594617 198.85608 
L 194.594617 77.978021 
L 193.093465 77.978021 
z
" clip-path="url(#p2105fb0fdf)" style="fill: #1f77b4"/>
   </g>
   <g id="patch_92">
    <path d="M 194.594617 198.85608 
L 196.095768 198.85608 
L 196.095768 70.982763 
L 194.594617 70.982763 
z
" clip-path="url(#p2105fb0fdf)" style="fill: #1f77b4"/>
   </g>
   <g id="patch_93">
    <path d="M 196.095768 198.85608 
L 197.59692 198.85608 
L 197.59692 63.427884 
L 196.095768 63.427884 
z
" clip-path="url(#p2105fb0fdf)" style="fill: #1f77b4"/>
   </g>
   <g id="patch_94">
    <path d="M 197.59692 198.85608 
L 199.098071 198.85608 
L 199.098071 48.691207 
L 197.59692 48.691207 
z
" clip-path="url(#p2105fb0fdf)" style="fill: #1f77b4"/>
   </g>
   <g id="patch_95">
    <path d="M 199.098071 198.85608 
L 200.599223 198.85608 
L 200.599223 45.520024 
L 199.098071 45.520024 
z
" clip-path="url(#p2105fb0fdf)" style="fill: #1f77b4"/>
   </g>
   <g id="patch_96">
    <path d="M 200.599223 198.85608 
L 202.100374 198.85608 
L 202.100374 41.602679 
L 200.599223 41.602679 
z
" clip-path="url(#p2105fb0fdf)" style="fill: #1f77b4"/>
   </g>
   <g id="patch_97">
    <path d="M 202.100374 198.85608 
L 203.601526 198.85608 
L 203.601526 41.97576 
L 202.100374 41.97576 
z
" clip-path="url(#p2105fb0fdf)" style="fill: #1f77b4"/>
   </g>
   <g id="patch_98">
    <path d="M 203.601526 198.85608 
L 205.102677 198.85608 
L 205.102677 33.30164 
L 203.601526 33.30164 
z
" clip-path="url(#p2105fb0fdf)" style="fill: #1f77b4"/>
   </g>
   <g id="patch_99">
    <path d="M 205.102677 198.85608 
L 206.603829 198.85608 
L 206.603829 29.664105 
L 205.102677 29.664105 
z
" clip-path="url(#p2105fb0fdf)" style="fill: #1f77b4"/>
   </g>
   <g id="patch_100">
    <path d="M 206.603829 198.85608 
L 208.10498 198.85608 
L 208.10498 16.32648 
L 206.603829 16.32648 
z
" clip-path="url(#p2105fb0fdf)" style="fill: #1f77b4"/>
   </g>
   <g id="patch_101">
    <path d="M 208.10498 198.85608 
L 209.606132 198.85608 
L 209.606132 25.466951 
L 208.10498 25.466951 
z
" clip-path="url(#p2105fb0fdf)" style="fill: #1f77b4"/>
   </g>
   <g id="patch_102">
    <path d="M 209.606132 198.85608 
L 211.107283 198.85608 
L 211.107283 26.586192 
L 209.606132 26.586192 
z
" clip-path="url(#p2105fb0fdf)" style="fill: #1f77b4"/>
   </g>
   <g id="patch_103">
    <path d="M 211.107283 198.85608 
L 212.608435 198.85608 
L 212.608435 20.057284 
L 211.107283 20.057284 
z
" clip-path="url(#p2105fb0fdf)" style="fill: #1f77b4"/>
   </g>
   <g id="patch_104">
    <path d="M 212.608435 198.85608 
L 214.109586 198.85608 
L 214.109586 24.067899 
L 212.608435 24.067899 
z
" clip-path="url(#p2105fb0fdf)" style="fill: #1f77b4"/>
   </g>
   <g id="patch_105">
    <path d="M 214.109586 198.85608 
L 215.610738 198.85608 
L 215.610738 25.746761 
L 214.109586 25.746761 
z
" clip-path="url(#p2105fb0fdf)" style="fill: #1f77b4"/>
   </g>
   <g id="patch_106">
    <path d="M 215.610738 198.85608 
L 217.111889 198.85608 
L 217.111889 20.616905 
L 215.610738 20.616905 
z
" clip-path="url(#p2105fb0fdf)" style="fill: #1f77b4"/>
   </g>
   <g id="patch_107">
    <path d="M 217.111889 198.85608 
L 218.613041 198.85608 
L 218.613041 32.835289 
L 217.111889 32.835289 
z
" clip-path="url(#p2105fb0fdf)" style="fill: #1f77b4"/>
   </g>
   <g id="patch_108">
    <path d="M 218.613041 198.85608 
L 220.114192 198.85608 
L 220.114192 19.497664 
L 218.613041 19.497664 
z
" clip-path="url(#p2105fb0fdf)" style="fill: #1f77b4"/>
   </g>
   <g id="patch_109">
    <path d="M 220.114192 198.85608 
L 221.615344 198.85608 
L 221.615344 25.09387 
L 220.114192 25.09387 
z
" clip-path="url(#p2105fb0fdf)" style="fill: #1f77b4"/>
   </g>
   <g id="patch_110">
    <path d="M 221.615344 198.85608 
L 223.116495 198.85608 
L 223.116495 38.524766 
L 221.615344 38.524766 
z
" clip-path="url(#p2105fb0fdf)" style="fill: #1f77b4"/>
   </g>
   <g id="patch_111">
    <path d="M 223.116495 198.85608 
L 224.617647 198.85608 
L 224.617647 34.234341 
L 223.116495 34.234341 
z
" clip-path="url(#p2105fb0fdf)" style="fill: #1f77b4"/>
   </g>
   <g id="patch_112">
    <path d="M 224.617647 198.85608 
L 226.118798 198.85608 
L 226.118798 45.799834 
L 224.617647 45.799834 
z
" clip-path="url(#p2105fb0fdf)" style="fill: #1f77b4"/>
   </g>
   <g id="patch_113">
    <path d="M 226.118798 198.85608 
L 227.61995 198.85608 
L 227.61995 45.799834 
L 226.118798 45.799834 
z
" clip-path="url(#p2105fb0fdf)" style="fill: #1f77b4"/>
   </g>
   <g id="patch_114">
    <path d="M 227.61995 198.85608 
L 229.121102 198.85608 
L 229.121102 57.831678 
L 227.61995 57.831678 
z
" clip-path="url(#p2105fb0fdf)" style="fill: #1f77b4"/>
   </g>
   <g id="patch_115">
    <path d="M 229.121102 198.85608 
L 230.622253 198.85608 
L 230.622253 64.080775 
L 229.121102 64.080775 
z
" clip-path="url(#p2105fb0fdf)" style="fill: #1f77b4"/>
   </g>
   <g id="patch_116">
    <path d="M 230.622253 198.85608 
L 232.123405 198.85608 
L 232.123405 66.878878 
L 230.622253 66.878878 
z
" clip-path="url(#p2105fb0fdf)" style="fill: #1f77b4"/>
   </g>
   <g id="patch_117">
    <path d="M 232.123405 198.85608 
L 233.624556 198.85608 
L 233.624556 77.604941 
L 232.123405 77.604941 
z
" clip-path="url(#p2105fb0fdf)" style="fill: #1f77b4"/>
   </g>
   <g id="patch_118">
    <path d="M 233.624556 198.85608 
L 235.125708 198.85608 
L 235.125708 81.055934 
L 233.624556 81.055934 
z
" clip-path="url(#p2105fb0fdf)" style="fill: #1f77b4"/>
   </g>
   <g id="patch_119">
    <path d="M 235.125708 198.85608 
L 236.626859 198.85608 
L 236.626859 90.196405 
L 235.125708 90.196405 
z
" clip-path="url(#p2105fb0fdf)" style="fill: #1f77b4"/>
   </g>
   <g id="patch_120">
    <path d="M 236.626859 198.85608 
L 238.128011 198.85608 
L 238.128011 91.968537 
L 236.626859 91.968537 
z
" clip-path="url(#p2105fb0fdf)" style="fill: #1f77b4"/>
   </g>
   <g id="patch_121">
    <path d="M 238.128011 198.85608 
L 239.629162 198.85608 
L 239.629162 99.709956 
L 238.128011 99.709956 
z
" clip-path="url(#p2105fb0fdf)" style="fill: #1f77b4"/>
   </g>
   <g id="patch_122">
    <path d="M 239.629162 198.85608 
L 241.130314 198.85608 
L 241.130314 109.689857 
L 239.629162 109.689857 
z
" clip-path="url(#p2105fb0fdf)" style="fill: #1f77b4"/>
   </g>
   <g id="patch_123">
    <path d="M 241.130314 198.85608 
L 242.631465 198.85608 
L 242.631465 116.032225 
L 241.130314 116.032225 
z
" clip-path="url(#p2105fb0fdf)" style="fill: #1f77b4"/>
   </g>
   <g id="patch_124">
    <path d="M 242.631465 198.85608 
L 244.132617 198.85608 
L 244.132617 117.338006 
L 242.631465 117.338006 
z
" clip-path="url(#p2105fb0fdf)" style="fill: #1f77b4"/>
   </g>
   <g id="patch_125">
    <path d="M 244.132617 198.85608 
L 245.633768 198.85608 
L 245.633768 123.027483 
L 244.132617 123.027483 
z
" clip-path="url(#p2105fb0fdf)" style="fill: #1f77b4"/>
   </g>
   <g id="patch_126">
    <path d="M 245.633768 198.85608 
L 247.13492 198.85608 
L 247.13492 130.768902 
L 245.633768 130.768902 
z
" clip-path="url(#p2105fb0fdf)" style="fill: #1f77b4"/>
   </g>
   <g id="patch_127">
    <path d="M 247.13492 198.85608 
L 248.636071 198.85608 
L 248.636071 134.966056 
L 247.13492 134.966056 
z
" clip-path="url(#p2105fb0fdf)" style="fill: #1f77b4"/>
   </g>
   <g id="patch_128">
    <path d="M 248.636071 198.85608 
L 250.137223 198.85608 
L 250.137223 137.484349 
L 248.636071 137.484349 
z
" clip-path="url(#p2105fb0fdf)" style="fill: #1f77b4"/>
   </g>
   <g id="patch_129">
    <path d="M 250.137223 198.85608 
L 251.638374 198.85608 
L 251.638374 142.894016 
L 250.137223 142.894016 
z
" clip-path="url(#p2105fb0fdf)" style="fill: #1f77b4"/>
   </g>
   <g id="patch_130">
    <path d="M 251.638374 198.85608 
L 253.139526 198.85608 
L 253.139526 142.707475 
L 251.638374 142.707475 
z
" clip-path="url(#p2105fb0fdf)" style="fill: #1f77b4"/>
   </g>
   <g id="patch_131">
    <path d="M 253.139526 198.85608 
L 254.640677 198.85608 
L 254.640677 155.39221 
L 253.139526 155.39221 
z
" clip-path="url(#p2105fb0fdf)" style="fill: #1f77b4"/>
   </g>
   <g id="patch_132">
    <path d="M 254.640677 198.85608 
L 256.141829 198.85608 
L 256.141829 152.594107 
L 254.640677 152.594107 
z
" clip-path="url(#p2105fb0fdf)" style="fill: #1f77b4"/>
   </g>
   <g id="patch_133">
    <path d="M 256.141829 198.85608 
L 257.64298 198.85608 
L 257.64298 159.682635 
L 256.141829 159.682635 
z
" clip-path="url(#p2105fb0fdf)" style="fill: #1f77b4"/>
   </g>
   <g id="patch_134">
    <path d="M 257.64298 198.85608 
L 259.144132 198.85608 
L 259.144132 164.812491 
L 257.64298 164.812491 
z
" clip-path="url(#p2105fb0fdf)" style="fill: #1f77b4"/>
   </g>
   <g id="patch_135">
    <path d="M 259.144132 198.85608 
L 260.645283 198.85608 
L 260.645283 166.118272 
L 259.144132 166.118272 
z
" clip-path="url(#p2105fb0fdf)" style="fill: #1f77b4"/>
   </g>
   <g id="patch_136">
    <path d="M 260.645283 198.85608 
L 262.146435 198.85608 
L 262.146435 171.341398 
L 260.645283 171.341398 
z
" clip-path="url(#p2105fb0fdf)" style="fill: #1f77b4"/>
   </g>
   <g id="patch_137">
    <path d="M 262.146435 198.85608 
L 263.647586 198.85608 
L 263.647586 172.64718 
L 262.146435 172.64718 
z
" clip-path="url(#p2105fb0fdf)" style="fill: #1f77b4"/>
   </g>
   <g id="patch_138">
    <path d="M 263.647586 198.85608 
L 265.148738 198.85608 
L 265.148738 176.098174 
L 263.647586 176.098174 
z
" clip-path="url(#p2105fb0fdf)" style="fill: #1f77b4"/>
   </g>
   <g id="patch_139">
    <path d="M 265.148738 198.85608 
L 266.649889 198.85608 
L 266.649889 176.564524 
L 265.148738 176.564524 
z
" clip-path="url(#p2105fb0fdf)" style="fill: #1f77b4"/>
   </g>
   <g id="patch_140">
    <path d="M 266.649889 198.85608 
L 268.151041 198.85608 
L 268.151041 178.056846 
L 266.649889 178.056846 
z
" clip-path="url(#p2105fb0fdf)" style="fill: #1f77b4"/>
   </g>
   <g id="patch_141">
    <path d="M 268.151041 198.85608 
L 269.652192 198.85608 
L 269.652192 181.41457 
L 268.151041 181.41457 
z
" clip-path="url(#p2105fb0fdf)" style="fill: #1f77b4"/>
   </g>
   <g id="patch_142">
    <path d="M 269.652192 198.85608 
L 271.153344 198.85608 
L 271.153344 182.254001 
L 269.652192 182.254001 
z
" clip-path="url(#p2105fb0fdf)" style="fill: #1f77b4"/>
   </g>
   <g id="patch_143">
    <path d="M 271.153344 198.85608 
L 272.654495 198.85608 
L 272.654495 184.305943 
L 271.153344 184.305943 
z
" clip-path="url(#p2105fb0fdf)" style="fill: #1f77b4"/>
   </g>
   <g id="patch_144">
    <path d="M 272.654495 198.85608 
L 274.155647 198.85608 
L 274.155647 183.839593 
L 272.654495 183.839593 
z
" clip-path="url(#p2105fb0fdf)" style="fill: #1f77b4"/>
   </g>
   <g id="patch_145">
    <path d="M 274.155647 198.85608 
L 275.656798 198.85608 
L 275.656798 186.824236 
L 274.155647 186.824236 
z
" clip-path="url(#p2105fb0fdf)" style="fill: #1f77b4"/>
   </g>
   <g id="patch_146">
    <path d="M 275.656798 198.85608 
L 277.15795 198.85608 
L 277.15795 186.637696 
L 275.656798 186.637696 
z
" clip-path="url(#p2105fb0fdf)" style="fill: #1f77b4"/>
   </g>
   <g id="patch_147">
    <path d="M 277.15795 198.85608 
L 278.659102 198.85608 
L 278.659102 189.249259 
L 277.15795 189.249259 
z
" clip-path="url(#p2105fb0fdf)" style="fill: #1f77b4"/>
   </g>
   <g id="patch_148">
    <path d="M 278.659102 198.85608 
L 280.160253 198.85608 
L 280.160253 188.596368 
L 278.659102 188.596368 
z
" clip-path="url(#p2105fb0fdf)" style="fill: #1f77b4"/>
   </g>
   <g id="patch_149">
    <path d="M 280.160253 198.85608 
L 281.661405 198.85608 
L 281.661405 191.021391 
L 280.160253 191.021391 
z
" clip-path="url(#p2105fb0fdf)" style="fill: #1f77b4"/>
   </g>
   <g id="patch_150">
    <path d="M 281.661405 198.85608 
L 283.162556 198.85608 
L 283.162556 191.674282 
L 281.661405 191.674282 
z
" clip-path="url(#p2105fb0fdf)" style="fill: #1f77b4"/>
   </g>
   <g id="patch_151">
    <path d="M 283.162556 198.85608 
L 284.663708 198.85608 
L 284.663708 192.233902 
L 283.162556 192.233902 
z
" clip-path="url(#p2105fb0fdf)" style="fill: #1f77b4"/>
   </g>
   <g id="patch_152">
    <path d="M 284.663708 198.85608 
L 286.164859 198.85608 
L 286.164859 191.581012 
L 284.663708 191.581012 
z
" clip-path="url(#p2105fb0fdf)" style="fill: #1f77b4"/>
   </g>
   <g id="patch_153">
    <path d="M 286.164859 198.85608 
L 287.666011 198.85608 
L 287.666011 192.606983 
L 286.164859 192.606983 
z
" clip-path="url(#p2105fb0fdf)" style="fill: #1f77b4"/>
   </g>
   <g id="patch_154">
    <path d="M 287.666011 198.85608 
L 289.167162 198.85608 
L 289.167162 193.259874 
L 287.666011 193.259874 
z
" clip-path="url(#p2105fb0fdf)" style="fill: #1f77b4"/>
   </g>
   <g id="patch_155">
    <path d="M 289.167162 198.85608 
L 290.668314 198.85608 
L 290.668314 193.446414 
L 289.167162 193.446414 
z
" clip-path="url(#p2105fb0fdf)" style="fill: #1f77b4"/>
   </g>
   <g id="patch_156">
    <path d="M 290.668314 198.85608 
L 292.169465 198.85608 
L 292.169465 195.591626 
L 290.668314 195.591626 
z
" clip-path="url(#p2105fb0fdf)" style="fill: #1f77b4"/>
   </g>
   <g id="patch_157">
    <path d="M 292.169465 198.85608 
L 293.670617 198.85608 
L 293.670617 194.192575 
L 292.169465 194.192575 
z
" clip-path="url(#p2105fb0fdf)" style="fill: #1f77b4"/>
   </g>
   <g id="patch_158">
    <path d="M 293.670617 198.85608 
L 295.171768 198.85608 
L 295.171768 195.125276 
L 293.670617 195.125276 
z
" clip-path="url(#p2105fb0fdf)" style="fill: #1f77b4"/>
   </g>
   <g id="patch_159">
    <path d="M 295.171768 198.85608 
L 296.67292 198.85608 
L 296.67292 195.498356 
L 295.171768 195.498356 
z
" clip-path="url(#p2105fb0fdf)" style="fill: #1f77b4"/>
   </g>
   <g id="patch_160">
    <path d="M 296.67292 198.85608 
L 298.174071 198.85608 
L 298.174071 196.524327 
L 296.67292 196.524327 
z
" clip-path="url(#p2105fb0fdf)" style="fill: #1f77b4"/>
   </g>
   <g id="patch_161">
    <path d="M 298.174071 198.85608 
L 299.675223 198.85608 
L 299.675223 195.591626 
L 298.174071 195.591626 
z
" clip-path="url(#p2105fb0fdf)" style="fill: #1f77b4"/>
   </g>
   <g id="patch_162">
    <path d="M 299.675223 198.85608 
L 301.176374 198.85608 
L 301.176374 195.498356 
L 299.675223 195.498356 
z
" clip-path="url(#p2105fb0fdf)" style="fill: #1f77b4"/>
   </g>
   <g id="patch_163">
    <path d="M 301.176374 198.85608 
L 302.677526 198.85608 
L 302.677526 196.057977 
L 301.176374 196.057977 
z
" clip-path="url(#p2105fb0fdf)" style="fill: #1f77b4"/>
   </g>
   <g id="patch_164">
    <path d="M 302.677526 198.85608 
L 304.178677 198.85608 
L 304.178677 196.244517 
L 302.677526 196.244517 
z
" clip-path="url(#p2105fb0fdf)" style="fill: #1f77b4"/>
   </g>
   <g id="patch_165">
    <path d="M 304.178677 198.85608 
L 305.679829 198.85608 
L 305.679829 196.710868 
L 304.178677 196.710868 
z
" clip-path="url(#p2105fb0fdf)" style="fill: #1f77b4"/>
   </g>
   <g id="patch_166">
    <path d="M 305.679829 198.85608 
L 307.18098 198.85608 
L 307.18098 196.151247 
L 305.679829 196.151247 
z
" clip-path="url(#p2105fb0fdf)" style="fill: #1f77b4"/>
   </g>
   <g id="patch_167">
    <path d="M 307.18098 198.85608 
L 308.682132 198.85608 
L 308.682132 196.057977 
L 307.18098 196.057977 
z
" clip-path="url(#p2105fb0fdf)" style="fill: #1f77b4"/>
   </g>
   <g id="patch_168">
    <path d="M 308.682132 198.85608 
L 310.183283 198.85608 
L 310.183283 197.550298 
L 308.682132 197.550298 
z
" clip-path="url(#p2105fb0fdf)" style="fill: #1f77b4"/>
   </g>
   <g id="patch_169">
    <path d="M 310.183283 198.85608 
L 311.684435 198.85608 
L 311.684435 196.710868 
L 310.183283 196.710868 
z
" clip-path="url(#p2105fb0fdf)" style="fill: #1f77b4"/>
   </g>
   <g id="patch_170">
    <path d="M 311.684435 198.85608 
L 313.185586 198.85608 
L 313.185586 197.550298 
L 311.684435 197.550298 
z
" clip-path="url(#p2105fb0fdf)" style="fill: #1f77b4"/>
   </g>
   <g id="patch_171">
    <path d="M 313.185586 198.85608 
L 314.686738 198.85608 
L 314.686738 197.457028 
L 313.185586 197.457028 
z
" clip-path="url(#p2105fb0fdf)" style="fill: #1f77b4"/>
   </g>
   <g id="patch_172">
    <path d="M 314.686738 198.85608 
L 316.187889 198.85608 
L 316.187889 197.736839 
L 314.686738 197.736839 
z
" clip-path="url(#p2105fb0fdf)" style="fill: #1f77b4"/>
   </g>
   <g id="patch_173">
    <path d="M 316.187889 198.85608 
L 317.689041 198.85608 
L 317.689041 197.736839 
L 316.187889 197.736839 
z
" clip-path="url(#p2105fb0fdf)" style="fill: #1f77b4"/>
   </g>
   <g id="patch_174">
    <path d="M 317.689041 198.85608 
L 319.190192 198.85608 
L 319.190192 197.736839 
L 317.689041 197.736839 
z
" clip-path="url(#p2105fb0fdf)" style="fill: #1f77b4"/>
   </g>
   <g id="patch_175">
    <path d="M 319.190192 198.85608 
L 320.691344 198.85608 
L 320.691344 198.389729 
L 319.190192 198.389729 
z
" clip-path="url(#p2105fb0fdf)" style="fill: #1f77b4"/>
   </g>
   <g id="patch_176">
    <path d="M 320.691344 198.85608 
L 322.192495 198.85608 
L 322.192495 198.109919 
L 320.691344 198.109919 
z
" clip-path="url(#p2105fb0fdf)" style="fill: #1f77b4"/>
   </g>
   <g id="patch_177">
    <path d="M 322.192495 198.85608 
L 323.693647 198.85608 
L 323.693647 198.389729 
L 322.192495 198.389729 
z
" clip-path="url(#p2105fb0fdf)" style="fill: #1f77b4"/>
   </g>
   <g id="patch_178">
    <path d="M 323.693647 198.85608 
L 325.194798 198.85608 
L 325.194798 198.389729 
L 323.693647 198.389729 
z
" clip-path="url(#p2105fb0fdf)" style="fill: #1f77b4"/>
   </g>
   <g id="patch_179">
    <path d="M 325.194798 198.85608 
L 326.69595 198.85608 
L 326.69595 198.109919 
L 325.194798 198.109919 
z
" clip-path="url(#p2105fb0fdf)" style="fill: #1f77b4"/>
   </g>
   <g id="patch_180">
    <path d="M 326.69595 198.85608 
L 328.197102 198.85608 
L 328.197102 198.109919 
L 326.69595 198.109919 
z
" clip-path="url(#p2105fb0fdf)" style="fill: #1f77b4"/>
   </g>
   <g id="patch_181">
    <path d="M 328.197102 198.85608 
L 329.698253 198.85608 
L 329.698253 198.57627 
L 328.197102 198.57627 
z
" clip-path="url(#p2105fb0fdf)" style="fill: #1f77b4"/>
   </g>
   <g id="patch_182">
    <path d="M 329.698253 198.85608 
L 331.199405 198.85608 
L 331.199405 198.76281 
L 329.698253 198.76281 
z
" clip-path="url(#p2105fb0fdf)" style="fill: #1f77b4"/>
   </g>
   <g id="patch_183">
    <path d="M 331.199405 198.85608 
L 332.700556 198.85608 
L 332.700556 198.483 
L 331.199405 198.483 
z
" clip-path="url(#p2105fb0fdf)" style="fill: #1f77b4"/>
   </g>
   <g id="patch_184">
    <path d="M 332.700556 198.85608 
L 334.201708 198.85608 
L 334.201708 198.57627 
L 332.700556 198.57627 
z
" clip-path="url(#p2105fb0fdf)" style="fill: #1f77b4"/>
   </g>
   <g id="patch_185">
    <path d="M 334.201708 198.85608 
L 335.702859 198.85608 
L 335.702859 198.66954 
L 334.201708 198.66954 
z
" clip-path="url(#p2105fb0fdf)" style="fill: #1f77b4"/>
   </g>
   <g id="patch_186">
    <path d="M 335.702859 198.85608 
L 337.204011 198.85608 
L 337.204011 198.483 
L 335.702859 198.483 
z
" clip-path="url(#p2105fb0fdf)" style="fill: #1f77b4"/>
   </g>
   <g id="patch_187">
    <path d="M 337.204011 198.85608 
L 338.705162 198.85608 
L 338.705162 198.483 
L 337.204011 198.483 
z
" clip-path="url(#p2105fb0fdf)" style="fill: #1f77b4"/>
   </g>
   <g id="patch_188">
    <path d="M 338.705162 198.85608 
L 340.206314 198.85608 
L 340.206314 198.483 
L 338.705162 198.483 
z
" clip-path="url(#p2105fb0fdf)" style="fill: #1f77b4"/>
   </g>
   <g id="patch_189">
    <path d="M 340.206314 198.85608 
L 341.707465 198.85608 
L 341.707465 198.57627 
L 340.206314 198.57627 
z
" clip-path="url(#p2105fb0fdf)" style="fill: #1f77b4"/>
   </g>
   <g id="patch_190">
    <path d="M 341.707465 198.85608 
L 343.208617 198.85608 
L 343.208617 198.76281 
L 341.707465 198.76281 
z
" clip-path="url(#p2105fb0fdf)" style="fill: #1f77b4"/>
   </g>
   <g id="patch_191">
    <path d="M 343.208617 198.85608 
L 344.709768 198.85608 
L 344.709768 198.76281 
L 343.208617 198.76281 
z
" clip-path="url(#p2105fb0fdf)" style="fill: #1f77b4"/>
   </g>
   <g id="matplotlib.axis_1">
    <g id="xtick_1">
     <g id="line2d_1">
      <defs>
       <path id="m9e0012ad94" d="M 0 0 
L 0 3.5 
" style="stroke: #000000; stroke-width: 0.8"/>
      </defs>
      <g>
       <use xlink:href="#m9e0012ad94" x="50.41312" y="198.85608" style="stroke: #000000; stroke-width: 0.8"/>
      </g>
     </g>
     <g id="text_1">
      <text style="font: 10px 'Arial', 'DejaVu Sans', 'Computer Modern Sans Serif', 'Lucida Grande', 'Verdana', 'Geneva', 'Lucid', 'Helvetica', 'Avant Garde', sans-serif; text-anchor: middle" x="50.41312" y="213.013893" transform="rotate(-0 50.41312 213.013893)">−6</text>
     </g>
    </g>
    <g id="xtick_2">
     <g id="line2d_2">
      <g>
       <use xlink:href="#m9e0012ad94" x="90.200142" y="198.85608" style="stroke: #000000; stroke-width: 0.8"/>
      </g>
     </g>
     <g id="text_2">
      <text style="font: 10px 'Arial', 'DejaVu Sans', 'Computer Modern Sans Serif', 'Lucida Grande', 'Verdana', 'Geneva', 'Lucid', 'Helvetica', 'Avant Garde', sans-serif; text-anchor: middle" x="90.200142" y="213.013893" transform="rotate(-0 90.200142 213.013893)">−4</text>
     </g>
    </g>
    <g id="xtick_3">
     <g id="line2d_3">
      <g>
       <use xlink:href="#m9e0012ad94" x="129.987164" y="198.85608" style="stroke: #000000; stroke-width: 0.8"/>
      </g>
     </g>
     <g id="text_3">
      <text style="font: 10px 'Arial', 'DejaVu Sans', 'Computer Modern Sans Serif', 'Lucida Grande', 'Verdana', 'Geneva', 'Lucid', 'Helvetica', 'Avant Garde', sans-serif; text-anchor: middle" x="129.987164" y="213.013893" transform="rotate(-0 129.987164 213.013893)">−2</text>
     </g>
    </g>
    <g id="xtick_4">
     <g id="line2d_4">
      <g>
       <use xlink:href="#m9e0012ad94" x="169.774187" y="198.85608" style="stroke: #000000; stroke-width: 0.8"/>
      </g>
     </g>
     <g id="text_4">
      <text style="font: 10px 'Arial', 'DejaVu Sans', 'Computer Modern Sans Serif', 'Lucida Grande', 'Verdana', 'Geneva', 'Lucid', 'Helvetica', 'Avant Garde', sans-serif; text-anchor: middle" x="169.774187" y="213.013893" transform="rotate(-0 169.774187 213.013893)">0</text>
     </g>
    </g>
    <g id="xtick_5">
     <g id="line2d_5">
      <g>
       <use xlink:href="#m9e0012ad94" x="209.561209" y="198.85608" style="stroke: #000000; stroke-width: 0.8"/>
      </g>
     </g>
     <g id="text_5">
      <text style="font: 10px 'Arial', 'DejaVu Sans', 'Computer Modern Sans Serif', 'Lucida Grande', 'Verdana', 'Geneva', 'Lucid', 'Helvetica', 'Avant Garde', sans-serif; text-anchor: middle" x="209.561209" y="213.013893" transform="rotate(-0 209.561209 213.013893)">2</text>
     </g>
    </g>
    <g id="xtick_6">
     <g id="line2d_6">
      <g>
       <use xlink:href="#m9e0012ad94" x="249.348232" y="198.85608" style="stroke: #000000; stroke-width: 0.8"/>
      </g>
     </g>
     <g id="text_6">
      <text style="font: 10px 'Arial', 'DejaVu Sans', 'Computer Modern Sans Serif', 'Lucida Grande', 'Verdana', 'Geneva', 'Lucid', 'Helvetica', 'Avant Garde', sans-serif; text-anchor: middle" x="249.348232" y="213.013893" transform="rotate(-0 249.348232 213.013893)">4</text>
     </g>
    </g>
    <g id="xtick_7">
     <g id="line2d_7">
      <g>
       <use xlink:href="#m9e0012ad94" x="289.135254" y="198.85608" style="stroke: #000000; stroke-width: 0.8"/>
      </g>
     </g>
     <g id="text_7">
      <text style="font: 10px 'Arial', 'DejaVu Sans', 'Computer Modern Sans Serif', 'Lucida Grande', 'Verdana', 'Geneva', 'Lucid', 'Helvetica', 'Avant Garde', sans-serif; text-anchor: middle" x="289.135254" y="213.013893" transform="rotate(-0 289.135254 213.013893)">6</text>
     </g>
    </g>
    <g id="xtick_8">
     <g id="line2d_8">
      <g>
       <use xlink:href="#m9e0012ad94" x="328.922277" y="198.85608" style="stroke: #000000; stroke-width: 0.8"/>
      </g>
     </g>
     <g id="text_8">
      <text style="font: 10px 'Arial', 'DejaVu Sans', 'Computer Modern Sans Serif', 'Lucida Grande', 'Verdana', 'Geneva', 'Lucid', 'Helvetica', 'Avant Garde', sans-serif; text-anchor: middle" x="328.922277" y="213.013893" transform="rotate(-0 328.922277 213.013893)">8</text>
     </g>
    </g>
    <g id="text_9">
     <!-- $\kappa$ -->
     <g transform="translate(199.95095 226.159205)">
      <text>
       <tspan style="font: 10px 'cmmi10'" x="0" y="-0.578125">∙</tspan>
      </text>
     </g>
    </g>
   </g>
   <g id="matplotlib.axis_2">
    <g id="ytick_1">
     <g id="line2d_9">
      <defs>
       <path id="m1877c4fc9d" d="M 0 0 
L -3.5 0 
" style="stroke: #000000; stroke-width: 0.8"/>
      </defs>
      <g>
       <use xlink:href="#m1877c4fc9d" x="46.80625" y="198.85608" style="stroke: #000000; stroke-width: 0.8"/>
      </g>
     </g>
     <g id="text_10">
      <text style="font: 10px 'Arial', 'DejaVu Sans', 'Computer Modern Sans Serif', 'Lucida Grande', 'Verdana', 'Geneva', 'Lucid', 'Helvetica', 'Avant Garde', sans-serif; text-anchor: end" x="39.80625" y="202.434986" transform="rotate(-0 39.80625 202.434986)">0.00</text>
     </g>
    </g>
    <g id="ytick_2">
     <g id="line2d_10">
      <g>
       <use xlink:href="#m1877c4fc9d" x="46.80625" y="172.791525" style="stroke: #000000; stroke-width: 0.8"/>
      </g>
     </g>
     <g id="text_11">
      <text style="font: 10px 'Arial', 'DejaVu Sans', 'Computer Modern Sans Serif', 'Lucida Grande', 'Verdana', 'Geneva', 'Lucid', 'Helvetica', 'Avant Garde', sans-serif; text-anchor: end" x="39.80625" y="176.370431" transform="rotate(-0 39.80625 176.370431)">0.05</text>
     </g>
    </g>
    <g id="ytick_3">
     <g id="line2d_11">
      <g>
       <use xlink:href="#m1877c4fc9d" x="46.80625" y="146.726969" style="stroke: #000000; stroke-width: 0.8"/>
      </g>
     </g>
     <g id="text_12">
      <text style="font: 10px 'Arial', 'DejaVu Sans', 'Computer Modern Sans Serif', 'Lucida Grande', 'Verdana', 'Geneva', 'Lucid', 'Helvetica', 'Avant Garde', sans-serif; text-anchor: end" x="39.80625" y="150.305876" transform="rotate(-0 39.80625 150.305876)">0.10</text>
     </g>
    </g>
    <g id="ytick_4">
     <g id="line2d_12">
      <g>
       <use xlink:href="#m1877c4fc9d" x="46.80625" y="120.662414" style="stroke: #000000; stroke-width: 0.8"/>
      </g>
     </g>
     <g id="text_13">
      <text style="font: 10px 'Arial', 'DejaVu Sans', 'Computer Modern Sans Serif', 'Lucida Grande', 'Verdana', 'Geneva', 'Lucid', 'Helvetica', 'Avant Garde', sans-serif; text-anchor: end" x="39.80625" y="124.24132" transform="rotate(-0 39.80625 124.24132)">0.15</text>
     </g>
    </g>
    <g id="ytick_5">
     <g id="line2d_13">
      <g>
       <use xlink:href="#m1877c4fc9d" x="46.80625" y="94.597859" style="stroke: #000000; stroke-width: 0.8"/>
      </g>
     </g>
     <g id="text_14">
      <text style="font: 10px 'Arial', 'DejaVu Sans', 'Computer Modern Sans Serif', 'Lucida Grande', 'Verdana', 'Geneva', 'Lucid', 'Helvetica', 'Avant Garde', sans-serif; text-anchor: end" x="39.80625" y="98.176765" transform="rotate(-0 39.80625 98.176765)">0.20</text>
     </g>
    </g>
    <g id="ytick_6">
     <g id="line2d_14">
      <g>
       <use xlink:href="#m1877c4fc9d" x="46.80625" y="68.533303" style="stroke: #000000; stroke-width: 0.8"/>
      </g>
     </g>
     <g id="text_15">
      <text style="font: 10px 'Arial', 'DejaVu Sans', 'Computer Modern Sans Serif', 'Lucida Grande', 'Verdana', 'Geneva', 'Lucid', 'Helvetica', 'Avant Garde', sans-serif; text-anchor: end" x="39.80625" y="72.11221" transform="rotate(-0 39.80625 72.11221)">0.25</text>
     </g>
    </g>
    <g id="ytick_7">
     <g id="line2d_15">
      <g>
       <use xlink:href="#m1877c4fc9d" x="46.80625" y="42.468748" style="stroke: #000000; stroke-width: 0.8"/>
      </g>
     </g>
     <g id="text_16">
      <text style="font: 10px 'Arial', 'DejaVu Sans', 'Computer Modern Sans Serif', 'Lucida Grande', 'Verdana', 'Geneva', 'Lucid', 'Helvetica', 'Avant Garde', sans-serif; text-anchor: end" x="39.80625" y="46.047654" transform="rotate(-0 39.80625 46.047654)">0.30</text>
     </g>
    </g>
    <g id="ytick_8">
     <g id="line2d_16">
      <g>
       <use xlink:href="#m1877c4fc9d" x="46.80625" y="16.404193" style="stroke: #000000; stroke-width: 0.8"/>
      </g>
     </g>
     <g id="text_17">
      <text style="font: 10px 'Arial', 'DejaVu Sans', 'Computer Modern Sans Serif', 'Lucida Grande', 'Verdana', 'Geneva', 'Lucid', 'Helvetica', 'Avant Garde', sans-serif; text-anchor: end" x="39.80625" y="19.983099" transform="rotate(-0 39.80625 19.983099)">0.35</text>
     </g>
    </g>
    <g id="text_18">
     <text style="font: 10px 'Arial', 'DejaVu Sans', 'Computer Modern Sans Serif', 'Lucida Grande', 'Verdana', 'Geneva', 'Lucid', 'Helvetica', 'Avant Garde', sans-serif; text-anchor: middle" x="14.357813" y="103.02804" transform="rotate(-90 14.357813 103.02804)">Distribution</text>
    </g>
   </g>
   <g id="patch_192">
    <path d="M 46.80625 198.85608 
L 46.80625 7.2 
" style="fill: none; stroke: #000000; stroke-linejoin: miter; stroke-linecap: square"/>
   </g>
   <g id="patch_193">
    <path d="M 358.89565 198.85608 
L 358.89565 7.2 
" style="fill: none; stroke: #000000; stroke-linejoin: miter; stroke-linecap: square"/>
   </g>
   <g id="patch_194">
    <path d="M 46.80625 198.85608 
L 358.89565 198.85608 
" style="fill: none; stroke: #000000; stroke-linejoin: miter; stroke-linecap: square"/>
   </g>
   <g id="patch_195">
    <path d="M 46.80625 7.2 
L 358.89565 7.2 
" style="fill: none; stroke: #000000; stroke-linejoin: miter; stroke-linecap: square"/>
   </g>
  </g>
 </g>
 <defs>
  <clipPath id="p2105fb0fdf">
   <rect x="46.80625" y="7.2" width="312.0894" height="191.65608"/>
  </clipPath>
 </defs>
</svg>
