<?xml version="1.0" encoding="utf-8" standalone="no"?>
<!DOCTYPE svg PUBLIC "-//W3C//DTD SVG 1.1//EN"
  "http://www.w3.org/Graphics/SVG/1.1/DTD/svg11.dtd">
<svg xmlns:xlink="http://www.w3.org/1999/xlink" width="366.434713pt" height="235.346705pt" viewBox="0 0 366.434713 235.346705" xmlns="http://www.w3.org/2000/svg" version="1.1">
 <metadata>
  <rdf:RDF xmlns:dc="http://purl.org/dc/elements/1.1/" xmlns:cc="http://creativecommons.org/ns#" xmlns:rdf="http://www.w3.org/1999/02/22-rdf-syntax-ns#">
   <cc:Work>
    <dc:type rdf:resource="http://purl.org/dc/dcmitype/StillImage"/>
    <dc:date>2023-02-24T17:44:29.944758</dc:date>
    <dc:format>image/svg+xml</dc:format>
    <dc:creator>
     <cc:Agent>
      <dc:title>Matplotlib v3.6.2, https://matplotlib.org/</dc:title>
     </cc:Agent>
    </dc:creator>
   </cc:Work>
  </rdf:RDF>
 </metadata>
 <defs>
  <style type="text/css">*{stroke-linejoin: round; stroke-linecap: butt}</style>
 </defs>
 <g id="figure_1">
  <g id="patch_1">
   <path d="M 0 235.346705 
L 366.434713 235.346705 
L 366.434713 0 
L 0 0 
L 0 235.346705 
z
" style="fill: none"/>
  </g>
  <g id="axes_1">
   <g id="patch_2">
    <path d="M 47.145313 198.85608 
L 359.234713 198.85608 
L 359.234713 7.2 
L 47.145313 7.2 
L 47.145313 198.85608 
z
" style="fill: none"/>
   </g>
   <g id="patch_3">
    <path d="M 61.331194 51975.619479 
L 62.570136 51975.619479 
L 62.570136 165.341332 
L 61.331194 165.341332 
z
" clip-path="url(#pc84c4106b2)" style="fill: #1f77b4"/>
   </g>
   <g id="patch_4">
    <path d="M 62.570136 51975.619479 
L 63.809078 51975.619479 
L 63.809078 174.495421 
L 62.570136 174.495421 
z
" clip-path="url(#pc84c4106b2)" style="fill: #1f77b4"/>
   </g>
   <g id="patch_5">
    <path d="M 63.809078 51975.619479 
L 65.048019 51975.619479 
L 65.048019 174.495421 
L 63.809078 174.495421 
z
" clip-path="url(#pc84c4106b2)" style="fill: #1f77b4"/>
   </g>
   <g id="patch_6">
    <path d="M 65.048019 51975.619479 
L 66.286961 51975.619479 
L 66.286961 158.846403 
L 65.048019 158.846403 
z
" clip-path="url(#pc84c4106b2)" style="fill: #1f77b4"/>
   </g>
   <g id="patch_7">
    <path d="M 66.286961 51975.619479 
L 67.525903 51975.619479 
L 67.525903 190.14444 
L 66.286961 190.14444 
z
" clip-path="url(#pc84c4106b2)" style="fill: #1f77b4"/>
   </g>
   <g id="patch_8">
    <path d="M 67.525903 51975.619479 
L 68.764844 51975.619479 
L 68.764844 158.846403 
L 67.525903 158.846403 
z
" clip-path="url(#pc84c4106b2)" style="fill: #1f77b4"/>
   </g>
   <g id="patch_9">
    <path d="M 68.764844 51975.619479 
L 70.003786 51975.619479 
L 70.003786 174.495421 
L 68.764844 174.495421 
z
" clip-path="url(#pc84c4106b2)" style="fill: #1f77b4"/>
   </g>
   <g id="patch_10">
    <path d="M 70.003786 51975.619479 
L 71.242727 51975.619479 
L 71.242727 174.495421 
L 70.003786 174.495421 
z
" clip-path="url(#pc84c4106b2)" style="fill: #1f77b4"/>
   </g>
   <g id="patch_11">
    <path d="M 71.242727 51975.619479 
L 72.481669 51975.619479 
L 72.481669 174.495421 
L 71.242727 174.495421 
z
" clip-path="url(#pc84c4106b2)" style="fill: #1f77b4"/>
   </g>
   <g id="patch_12">
    <path d="M 72.481669 51975.619479 
L 73.720611 51975.619479 
L 73.720611 149.692314 
L 72.481669 149.692314 
z
" clip-path="url(#pc84c4106b2)" style="fill: #1f77b4"/>
   </g>
   <g id="patch_13">
    <path d="M 73.720611 51975.619479 
L 74.959552 51975.619479 
L 74.959552 190.14444 
L 73.720611 190.14444 
z
" clip-path="url(#pc84c4106b2)" style="fill: #1f77b4"/>
   </g>
   <g id="patch_14">
    <path d="M 74.959552 51975.619479 
L 76.198494 51975.619479 
L 76.198494 130.563072 
L 74.959552 130.563072 
z
" clip-path="url(#pc84c4106b2)" style="fill: #1f77b4"/>
   </g>
   <g id="patch_15">
    <path d="M 76.198494 51975.619479 
L 77.437436 51975.619479 
L 77.437436 143.197384 
L 76.198494 143.197384 
z
" clip-path="url(#pc84c4106b2)" style="fill: #1f77b4"/>
   </g>
   <g id="patch_16">
    <path d="M 77.437436 51975.619479 
L 78.676377 51975.619479 
L 78.676377 143.197384 
L 77.437436 143.197384 
z
" clip-path="url(#pc84c4106b2)" style="fill: #1f77b4"/>
   </g>
   <g id="patch_17">
    <path d="M 78.676377 51975.619479 
L 79.915319 51975.619479 
L 79.915319 149.692314 
L 78.676377 149.692314 
z
" clip-path="url(#pc84c4106b2)" style="fill: #1f77b4"/>
   </g>
   <g id="patch_18">
    <path d="M 79.915319 51975.619479 
L 81.154261 51975.619479 
L 81.154261 158.846403 
L 79.915319 158.846403 
z
" clip-path="url(#pc84c4106b2)" style="fill: #1f77b4"/>
   </g>
   <g id="patch_19">
    <path d="M 81.154261 51975.619479 
L 82.393202 51975.619479 
L 82.393202 149.692314 
L 81.154261 149.692314 
z
" clip-path="url(#pc84c4106b2)" style="fill: #1f77b4"/>
   </g>
   <g id="patch_20">
    <path d="M 82.393202 51975.619479 
L 83.632144 51975.619479 
L 83.632144 138.159525 
L 82.393202 138.159525 
z
" clip-path="url(#pc84c4106b2)" style="fill: #1f77b4"/>
   </g>
   <g id="patch_21">
    <path d="M 83.632144 51975.619479 
L 84.871086 51975.619479 
L 84.871086 134.043295 
L 83.632144 134.043295 
z
" clip-path="url(#pc84c4106b2)" style="fill: #1f77b4"/>
   </g>
   <g id="patch_22">
    <path d="M 84.871086 51975.619479 
L 86.110027 51975.619479 
L 86.110027 146.21209 
L 84.871086 146.21209 
z
" clip-path="url(#pc84c4106b2)" style="fill: #1f77b4"/>
   </g>
   <g id="patch_23">
    <path d="M 86.110027 51975.619479 
L 87.348969 51975.619479 
L 87.348969 146.21209 
L 86.110027 146.21209 
z
" clip-path="url(#pc84c4106b2)" style="fill: #1f77b4"/>
   </g>
   <g id="patch_24">
    <path d="M 87.348969 51975.619479 
L 88.58791 51975.619479 
L 88.58791 136.00773 
L 87.348969 136.00773 
z
" clip-path="url(#pc84c4106b2)" style="fill: #1f77b4"/>
   </g>
   <g id="patch_25">
    <path d="M 88.58791 51975.619479 
L 89.826852 51975.619479 
L 89.826852 124.889206 
L 88.58791 124.889206 
z
" clip-path="url(#pc84c4106b2)" style="fill: #1f77b4"/>
   </g>
   <g id="patch_26">
    <path d="M 89.826852 51975.619479 
L 91.065794 51975.619479 
L 91.065794 129.005436 
L 89.826852 129.005436 
z
" clip-path="url(#pc84c4106b2)" style="fill: #1f77b4"/>
   </g>
   <g id="patch_27">
    <path d="M 91.065794 51975.619479 
L 92.304735 51975.619479 
L 92.304735 116.587171 
L 91.065794 116.587171 
z
" clip-path="url(#pc84c4106b2)" style="fill: #1f77b4"/>
   </g>
   <g id="patch_28">
    <path d="M 92.304735 51975.619479 
L 93.543677 51975.619479 
L 93.543677 117.472648 
L 92.304735 117.472648 
z
" clip-path="url(#pc84c4106b2)" style="fill: #1f77b4"/>
   </g>
   <g id="patch_29">
    <path d="M 93.543677 51975.619479 
L 94.782619 51975.619479 
L 94.782619 107.433082 
L 93.543677 107.433082 
z
" clip-path="url(#pc84c4106b2)" style="fill: #1f77b4"/>
   </g>
   <g id="patch_30">
    <path d="M 94.782619 51975.619479 
L 96.02156 51975.619479 
L 96.02156 111.899347 
L 94.782619 111.899347 
z
" clip-path="url(#pc84c4106b2)" style="fill: #1f77b4"/>
   </g>
   <g id="patch_31">
    <path d="M 96.02156 51975.619479 
L 97.260502 51975.619479 
L 97.260502 105.759964 
L 96.02156 105.759964 
z
" clip-path="url(#pc84c4106b2)" style="fill: #1f77b4"/>
   </g>
   <g id="patch_32">
    <path d="M 97.260502 51975.619479 
L 98.499444 51975.619479 
L 98.499444 102.745258 
L 97.260502 102.745258 
z
" clip-path="url(#pc84c4106b2)" style="fill: #1f77b4"/>
   </g>
   <g id="patch_33">
    <path d="M 98.499444 51975.619479 
L 99.738385 51975.619479 
L 99.738385 99.671834 
L 98.499444 99.671834 
z
" clip-path="url(#pc84c4106b2)" style="fill: #1f77b4"/>
   </g>
   <g id="patch_34">
    <path d="M 99.738385 51975.619479 
L 100.977327 51975.619479 
L 100.977327 104.202328 
L 99.738385 104.202328 
z
" clip-path="url(#pc84c4106b2)" style="fill: #1f77b4"/>
   </g>
   <g id="patch_35">
    <path d="M 100.977327 51975.619479 
L 102.216269 51975.619479 
L 102.216269 94.552027 
L 100.977327 94.552027 
z
" clip-path="url(#pc84c4106b2)" style="fill: #1f77b4"/>
   </g>
   <g id="patch_36">
    <path d="M 102.216269 51975.619479 
L 103.45521 51975.619479 
L 103.45521 96.605875 
L 102.216269 96.605875 
z
" clip-path="url(#pc84c4106b2)" style="fill: #1f77b4"/>
   </g>
   <g id="patch_37">
    <path d="M 103.45521 51975.619479 
L 104.694152 51975.619479 
L 104.694152 95.216097 
L 103.45521 95.216097 
z
" clip-path="url(#pc84c4106b2)" style="fill: #1f77b4"/>
   </g>
   <g id="patch_38">
    <path d="M 104.694152 51975.619479 
L 105.933093 51975.619479 
L 105.933093 92.07538 
L 104.694152 92.07538 
z
" clip-path="url(#pc84c4106b2)" style="fill: #1f77b4"/>
   </g>
   <g id="patch_39">
    <path d="M 105.933093 51975.619479 
L 107.172035 51975.619479 
L 107.172035 96.605875 
L 105.933093 96.605875 
z
" clip-path="url(#pc84c4106b2)" style="fill: #1f77b4"/>
   </g>
   <g id="patch_40">
    <path d="M 107.172035 51975.619479 
L 108.410977 51975.619479 
L 108.410977 101.37655 
L 107.172035 101.37655 
z
" clip-path="url(#pc84c4106b2)" style="fill: #1f77b4"/>
   </g>
   <g id="patch_41">
    <path d="M 108.410977 51975.619479 
L 109.649918 51975.619479 
L 109.649918 95.555604 
L 108.410977 95.555604 
z
" clip-path="url(#pc84c4106b2)" style="fill: #1f77b4"/>
   </g>
   <g id="patch_42">
    <path d="M 109.649918 51975.619479 
L 110.88886 51975.619479 
L 110.88886 96.250328 
L 109.649918 96.250328 
z
" clip-path="url(#pc84c4106b2)" style="fill: #1f77b4"/>
   </g>
   <g id="patch_43">
    <path d="M 110.88886 51975.619479 
L 112.127802 51975.619479 
L 112.127802 97.334221 
L 110.88886 97.334221 
z
" clip-path="url(#pc84c4106b2)" style="fill: #1f77b4"/>
   </g>
   <g id="patch_44">
    <path d="M 112.127802 51975.619479 
L 113.366743 51975.619479 
L 113.366743 99.265034 
L 112.127802 99.265034 
z
" clip-path="url(#pc84c4106b2)" style="fill: #1f77b4"/>
   </g>
   <g id="patch_45">
    <path d="M 113.366743 51975.619479 
L 114.605685 51975.619479 
L 114.605685 108.621607 
L 113.366743 108.621607 
z
" clip-path="url(#pc84c4106b2)" style="fill: #1f77b4"/>
   </g>
   <g id="patch_46">
    <path d="M 114.605685 51975.619479 
L 115.844627 51975.619479 
L 115.844627 114.121805 
L 114.605685 114.121805 
z
" clip-path="url(#pc84c4106b2)" style="fill: #1f77b4"/>
   </g>
   <g id="patch_47">
    <path d="M 115.844627 51975.619479 
L 117.083568 51975.619479 
L 117.083568 104.709693 
L 115.844627 104.709693 
z
" clip-path="url(#pc84c4106b2)" style="fill: #1f77b4"/>
   </g>
   <g id="patch_48">
    <path d="M 117.083568 51975.619479 
L 118.32251 51975.619479 
L 118.32251 112.616129 
L 117.083568 112.616129 
z
" clip-path="url(#pc84c4106b2)" style="fill: #1f77b4"/>
   </g>
   <g id="patch_49">
    <path d="M 118.32251 51975.619479 
L 119.561452 51975.619479 
L 119.561452 115.735117 
L 118.32251 115.735117 
z
" clip-path="url(#pc84c4106b2)" style="fill: #1f77b4"/>
   </g>
   <g id="patch_50">
    <path d="M 119.561452 51975.619479 
L 120.800393 51975.619479 
L 120.800393 108.019524 
L 119.561452 108.019524 
z
" clip-path="url(#pc84c4106b2)" style="fill: #1f77b4"/>
   </g>
   <g id="patch_51">
    <path d="M 120.800393 51975.619479 
L 122.039335 51975.619479 
L 122.039335 111.899347 
L 120.800393 111.899347 
z
" clip-path="url(#pc84c4106b2)" style="fill: #1f77b4"/>
   </g>
   <g id="patch_52">
    <path d="M 122.039335 51975.619479 
L 123.278276 51975.619479 
L 123.278276 101.37655 
L 122.039335 101.37655 
z
" clip-path="url(#pc84c4106b2)" style="fill: #1f77b4"/>
   </g>
   <g id="patch_53">
    <path d="M 123.278276 51975.619479 
L 124.517218 51975.619479 
L 124.517218 106.304009 
L 123.278276 106.304009 
z
" clip-path="url(#pc84c4106b2)" style="fill: #1f77b4"/>
   </g>
   <g id="patch_54">
    <path d="M 124.517218 51975.619479 
L 125.75616 51975.619479 
L 125.75616 105.228722 
L 124.517218 105.228722 
z
" clip-path="url(#pc84c4106b2)" style="fill: #1f77b4"/>
   </g>
   <g id="patch_55">
    <path d="M 125.75616 51975.619479 
L 126.995101 51975.619479 
L 126.995101 107.433082 
L 125.75616 107.433082 
z
" clip-path="url(#pc84c4106b2)" style="fill: #1f77b4"/>
   </g>
   <g id="patch_56">
    <path d="M 126.995101 51975.619479 
L 128.234043 51975.619479 
L 128.234043 113.356417 
L 126.995101 113.356417 
z
" clip-path="url(#pc84c4106b2)" style="fill: #1f77b4"/>
   </g>
   <g id="patch_57">
    <path d="M 128.234043 51975.619479 
L 129.472985 51975.619479 
L 129.472985 109.876194 
L 128.234043 109.876194 
z
" clip-path="url(#pc84c4106b2)" style="fill: #1f77b4"/>
   </g>
   <g id="patch_58">
    <path d="M 129.472985 51975.619479 
L 130.711926 51975.619479 
L 130.711926 109.240187 
L 129.472985 109.240187 
z
" clip-path="url(#pc84c4106b2)" style="fill: #1f77b4"/>
   </g>
   <g id="patch_59">
    <path d="M 130.711926 51975.619479 
L 131.950868 51975.619479 
L 131.950868 114.914053 
L 130.711926 114.914053 
z
" clip-path="url(#pc84c4106b2)" style="fill: #1f77b4"/>
   </g>
   <g id="patch_60">
    <path d="M 131.950868 51975.619479 
L 133.18981 51975.619479 
L 133.18981 117.472648 
L 131.950868 117.472648 
z
" clip-path="url(#pc84c4106b2)" style="fill: #1f77b4"/>
   </g>
   <g id="patch_61">
    <path d="M 133.18981 51975.619479 
L 134.428751 51975.619479 
L 134.428751 113.356417 
L 133.18981 113.356417 
z
" clip-path="url(#pc84c4106b2)" style="fill: #1f77b4"/>
   </g>
   <g id="patch_62">
    <path d="M 134.428751 51975.619479 
L 135.667693 51975.619479 
L 135.667693 109.240187 
L 134.428751 109.240187 
z
" clip-path="url(#pc84c4106b2)" style="fill: #1f77b4"/>
   </g>
   <g id="patch_63">
    <path d="M 135.667693 51975.619479 
L 136.906635 51975.619479 
L 136.906635 114.121805 
L 135.667693 114.121805 
z
" clip-path="url(#pc84c4106b2)" style="fill: #1f77b4"/>
   </g>
   <g id="patch_64">
    <path d="M 136.906635 51975.619479 
L 138.145576 51975.619479 
L 138.145576 120.358711 
L 136.906635 120.358711 
z
" clip-path="url(#pc84c4106b2)" style="fill: #1f77b4"/>
   </g>
   <g id="patch_65">
    <path d="M 138.145576 51975.619479 
L 139.384518 51975.619479 
L 139.384518 124.889206 
L 138.145576 124.889206 
z
" clip-path="url(#pc84c4106b2)" style="fill: #1f77b4"/>
   </g>
   <g id="patch_66">
    <path d="M 139.384518 51975.619479 
L 140.62346 51975.619479 
L 140.62346 115.735117 
L 139.384518 115.735117 
z
" clip-path="url(#pc84c4106b2)" style="fill: #1f77b4"/>
   </g>
   <g id="patch_67">
    <path d="M 140.62346 51975.619479 
L 141.862401 51975.619479 
L 141.862401 115.735117 
L 140.62346 115.735117 
z
" clip-path="url(#pc84c4106b2)" style="fill: #1f77b4"/>
   </g>
   <g id="patch_68">
    <path d="M 141.862401 51975.619479 
L 143.101343 51975.619479 
L 143.101343 123.668543 
L 141.862401 123.668543 
z
" clip-path="url(#pc84c4106b2)" style="fill: #1f77b4"/>
   </g>
   <g id="patch_69">
    <path d="M 143.101343 51975.619479 
L 144.340284 51975.619479 
L 144.340284 120.358711 
L 143.101343 120.358711 
z
" clip-path="url(#pc84c4106b2)" style="fill: #1f77b4"/>
   </g>
   <g id="patch_70">
    <path d="M 144.340284 51975.619479 
L 145.579226 51975.619479 
L 145.579226 122.510507 
L 144.340284 122.510507 
z
" clip-path="url(#pc84c4106b2)" style="fill: #1f77b4"/>
   </g>
   <g id="patch_71">
    <path d="M 145.579226 51975.619479 
L 146.818168 51975.619479 
L 146.818168 123.668543 
L 145.579226 123.668543 
z
" clip-path="url(#pc84c4106b2)" style="fill: #1f77b4"/>
   </g>
   <g id="patch_72">
    <path d="M 146.818168 51975.619479 
L 148.057109 51975.619479 
L 148.057109 119.355135 
L 146.818168 119.355135 
z
" clip-path="url(#pc84c4106b2)" style="fill: #1f77b4"/>
   </g>
   <g id="patch_73">
    <path d="M 148.057109 51975.619479 
L 149.296051 51975.619479 
L 149.296051 118.394276 
L 148.057109 118.394276 
z
" clip-path="url(#pc84c4106b2)" style="fill: #1f77b4"/>
   </g>
   <g id="patch_74">
    <path d="M 149.296051 51975.619479 
L 150.534993 51975.619479 
L 150.534993 116.587171 
L 149.296051 116.587171 
z
" clip-path="url(#pc84c4106b2)" style="fill: #1f77b4"/>
   </g>
   <g id="patch_75">
    <path d="M 150.534993 51975.619479 
L 151.773934 51975.619479 
L 151.773934 120.358711 
L 150.534993 120.358711 
z
" clip-path="url(#pc84c4106b2)" style="fill: #1f77b4"/>
   </g>
   <g id="patch_76">
    <path d="M 151.773934 51975.619479 
L 153.012876 51975.619479 
L 153.012876 113.356417 
L 151.773934 113.356417 
z
" clip-path="url(#pc84c4106b2)" style="fill: #1f77b4"/>
   </g>
   <g id="patch_77">
    <path d="M 153.012876 51975.619479 
L 154.251818 51975.619479 
L 154.251818 121.408983 
L 153.012876 121.408983 
z
" clip-path="url(#pc84c4106b2)" style="fill: #1f77b4"/>
   </g>
   <g id="patch_78">
    <path d="M 154.251818 51975.619479 
L 155.490759 51975.619479 
L 155.490759 123.668543 
L 154.251818 123.668543 
z
" clip-path="url(#pc84c4106b2)" style="fill: #1f77b4"/>
   </g>
   <g id="patch_79">
    <path d="M 155.490759 51975.619479 
L 156.729701 51975.619479 
L 156.729701 123.668543 
L 155.490759 123.668543 
z
" clip-path="url(#pc84c4106b2)" style="fill: #1f77b4"/>
   </g>
   <g id="patch_80">
    <path d="M 156.729701 51975.619479 
L 157.968643 51975.619479 
L 157.968643 119.355135 
L 156.729701 119.355135 
z
" clip-path="url(#pc84c4106b2)" style="fill: #1f77b4"/>
   </g>
   <g id="patch_81">
    <path d="M 157.968643 51975.619479 
L 159.207584 51975.619479 
L 159.207584 114.914053 
L 157.968643 114.914053 
z
" clip-path="url(#pc84c4106b2)" style="fill: #1f77b4"/>
   </g>
   <g id="patch_82">
    <path d="M 159.207584 51975.619479 
L 160.446526 51975.619479 
L 160.446526 116.587171 
L 159.207584 116.587171 
z
" clip-path="url(#pc84c4106b2)" style="fill: #1f77b4"/>
   </g>
   <g id="patch_83">
    <path d="M 160.446526 51975.619479 
L 161.685467 51975.619479 
L 161.685467 111.899347 
L 160.446526 111.899347 
z
" clip-path="url(#pc84c4106b2)" style="fill: #1f77b4"/>
   </g>
   <g id="patch_84">
    <path d="M 161.685467 51975.619479 
L 162.924409 51975.619479 
L 162.924409 118.394276 
L 161.685467 118.394276 
z
" clip-path="url(#pc84c4106b2)" style="fill: #1f77b4"/>
   </g>
   <g id="patch_85">
    <path d="M 162.924409 51975.619479 
L 164.163351 51975.619479 
L 164.163351 113.356417 
L 162.924409 113.356417 
z
" clip-path="url(#pc84c4106b2)" style="fill: #1f77b4"/>
   </g>
   <g id="patch_86">
    <path d="M 164.163351 51975.619479 
L 165.402292 51975.619479 
L 165.402292 114.914053 
L 164.163351 114.914053 
z
" clip-path="url(#pc84c4106b2)" style="fill: #1f77b4"/>
   </g>
   <g id="patch_87">
    <path d="M 165.402292 51975.619479 
L 166.641234 51975.619479 
L 166.641234 115.735117 
L 165.402292 115.735117 
z
" clip-path="url(#pc84c4106b2)" style="fill: #1f77b4"/>
   </g>
   <g id="patch_88">
    <path d="M 166.641234 51975.619479 
L 167.880176 51975.619479 
L 167.880176 113.356417 
L 166.641234 113.356417 
z
" clip-path="url(#pc84c4106b2)" style="fill: #1f77b4"/>
   </g>
   <g id="patch_89">
    <path d="M 167.880176 51975.619479 
L 169.119117 51975.619479 
L 169.119117 113.356417 
L 167.880176 113.356417 
z
" clip-path="url(#pc84c4106b2)" style="fill: #1f77b4"/>
   </g>
   <g id="patch_90">
    <path d="M 169.119117 51975.619479 
L 170.358059 51975.619479 
L 170.358059 108.019524 
L 169.119117 108.019524 
z
" clip-path="url(#pc84c4106b2)" style="fill: #1f77b4"/>
   </g>
   <g id="patch_91">
    <path d="M 170.358059 51975.619479 
L 171.597001 51975.619479 
L 171.597001 105.759964 
L 170.358059 105.759964 
z
" clip-path="url(#pc84c4106b2)" style="fill: #1f77b4"/>
   </g>
   <g id="patch_92">
    <path d="M 171.597001 51975.619479 
L 172.835942 51975.619479 
L 172.835942 113.356417 
L 171.597001 113.356417 
z
" clip-path="url(#pc84c4106b2)" style="fill: #1f77b4"/>
   </g>
   <g id="patch_93">
    <path d="M 172.835942 51975.619479 
L 174.074884 51975.619479 
L 174.074884 104.709693 
L 172.835942 104.709693 
z
" clip-path="url(#pc84c4106b2)" style="fill: #1f77b4"/>
   </g>
   <g id="patch_94">
    <path d="M 174.074884 51975.619479 
L 175.313826 51975.619479 
L 175.313826 101.823629 
L 174.074884 101.823629 
z
" clip-path="url(#pc84c4106b2)" style="fill: #1f77b4"/>
   </g>
   <g id="patch_95">
    <path d="M 175.313826 51975.619479 
L 176.552767 51975.619479 
L 176.552767 104.709693 
L 175.313826 104.709693 
z
" clip-path="url(#pc84c4106b2)" style="fill: #1f77b4"/>
   </g>
   <g id="patch_96">
    <path d="M 176.552767 51975.619479 
L 177.791709 51975.619479 
L 177.791709 105.228722 
L 176.552767 105.228722 
z
" clip-path="url(#pc84c4106b2)" style="fill: #1f77b4"/>
   </g>
   <g id="patch_97">
    <path d="M 177.791709 51975.619479 
L 179.03065 51975.619479 
L 179.03065 98.086849 
L 177.791709 98.086849 
z
" clip-path="url(#pc84c4106b2)" style="fill: #1f77b4"/>
   </g>
   <g id="patch_98">
    <path d="M 179.03065 51975.619479 
L 180.269592 51975.619479 
L 180.269592 96.605875 
L 179.03065 96.605875 
z
" clip-path="url(#pc84c4106b2)" style="fill: #1f77b4"/>
   </g>
   <g id="patch_99">
    <path d="M 180.269592 51975.619479 
L 181.508534 51975.619479 
L 181.508534 95.216097 
L 180.269592 95.216097 
z
" clip-path="url(#pc84c4106b2)" style="fill: #1f77b4"/>
   </g>
   <g id="patch_100">
    <path d="M 181.508534 51975.619479 
L 182.747475 51975.619479 
L 182.747475 92.972588 
L 181.508534 92.972588 
z
" clip-path="url(#pc84c4106b2)" style="fill: #1f77b4"/>
   </g>
   <g id="patch_101">
    <path d="M 182.747475 51975.619479 
L 183.986417 51975.619479 
L 183.986417 87.571557 
L 182.747475 87.571557 
z
" clip-path="url(#pc84c4106b2)" style="fill: #1f77b4"/>
   </g>
   <g id="patch_102">
    <path d="M 183.986417 51975.619479 
L 185.225359 51975.619479 
L 185.225359 86.630722 
L 183.986417 86.630722 
z
" clip-path="url(#pc84c4106b2)" style="fill: #1f77b4"/>
   </g>
   <g id="patch_103">
    <path d="M 185.225359 51975.619479 
L 186.4643 51975.619479 
L 186.4643 85.949964 
L 185.225359 85.949964 
z
" clip-path="url(#pc84c4106b2)" style="fill: #1f77b4"/>
   </g>
   <g id="patch_104">
    <path d="M 186.4643 51975.619479 
L 187.703242 51975.619479 
L 187.703242 83.216417 
L 186.4643 83.216417 
z
" clip-path="url(#pc84c4106b2)" style="fill: #1f77b4"/>
   </g>
   <g id="patch_105">
    <path d="M 187.703242 51975.619479 
L 188.942184 51975.619479 
L 188.942184 80.778383 
L 187.703242 80.778383 
z
" clip-path="url(#pc84c4106b2)" style="fill: #1f77b4"/>
   </g>
   <g id="patch_106">
    <path d="M 188.942184 51975.619479 
L 190.181125 51975.619479 
L 190.181125 73.283741 
L 188.942184 73.283741 
z
" clip-path="url(#pc84c4106b2)" style="fill: #1f77b4"/>
   </g>
   <g id="patch_107">
    <path d="M 190.181125 51975.619479 
L 191.420067 51975.619479 
L 191.420067 72.164003 
L 190.181125 72.164003 
z
" clip-path="url(#pc84c4106b2)" style="fill: #1f77b4"/>
   </g>
   <g id="patch_108">
    <path d="M 191.420067 51975.619479 
L 192.659009 51975.619479 
L 192.659009 67.468594 
L 191.420067 67.468594 
z
" clip-path="url(#pc84c4106b2)" style="fill: #1f77b4"/>
   </g>
   <g id="patch_109">
    <path d="M 192.659009 51975.619479 
L 193.89795 51975.619479 
L 193.89795 60.127087 
L 192.659009 60.127087 
z
" clip-path="url(#pc84c4106b2)" style="fill: #1f77b4"/>
   </g>
   <g id="patch_110">
    <path d="M 193.89795 51975.619479 
L 195.136892 51975.619479 
L 195.136892 57.067912 
L 193.89795 57.067912 
z
" clip-path="url(#pc84c4106b2)" style="fill: #1f77b4"/>
   </g>
   <g id="patch_111">
    <path d="M 195.136892 51975.619479 
L 196.375833 51975.619479 
L 196.375833 53.243807 
L 195.136892 53.243807 
z
" clip-path="url(#pc84c4106b2)" style="fill: #1f77b4"/>
   </g>
   <g id="patch_112">
    <path d="M 196.375833 51975.619479 
L 197.614775 51975.619479 
L 197.614775 50.526385 
L 196.375833 50.526385 
z
" clip-path="url(#pc84c4106b2)" style="fill: #1f77b4"/>
   </g>
   <g id="patch_113">
    <path d="M 197.614775 51975.619479 
L 198.853717 51975.619479 
L 198.853717 45.238545 
L 197.614775 45.238545 
z
" clip-path="url(#pc84c4106b2)" style="fill: #1f77b4"/>
   </g>
   <g id="patch_114">
    <path d="M 198.853717 51975.619479 
L 200.092658 51975.619479 
L 200.092658 42.863529 
L 198.853717 42.863529 
z
" clip-path="url(#pc84c4106b2)" style="fill: #1f77b4"/>
   </g>
   <g id="patch_115">
    <path d="M 200.092658 51975.619479 
L 201.3316 51975.619479 
L 201.3316 40.624501 
L 200.092658 40.624501 
z
" clip-path="url(#pc84c4106b2)" style="fill: #1f77b4"/>
   </g>
   <g id="patch_116">
    <path d="M 201.3316 51975.619479 
L 202.570542 51975.619479 
L 202.570542 38.342078 
L 201.3316 38.342078 
z
" clip-path="url(#pc84c4106b2)" style="fill: #1f77b4"/>
   </g>
   <g id="patch_117">
    <path d="M 202.570542 51975.619479 
L 203.809483 51975.619479 
L 203.809483 35.779607 
L 202.570542 35.779607 
z
" clip-path="url(#pc84c4106b2)" style="fill: #1f77b4"/>
   </g>
   <g id="patch_118">
    <path d="M 203.809483 51975.619479 
L 205.048425 51975.619479 
L 205.048425 34.302863 
L 203.809483 34.302863 
z
" clip-path="url(#pc84c4106b2)" style="fill: #1f77b4"/>
   </g>
   <g id="patch_119">
    <path d="M 205.048425 51975.619479 
L 206.287367 51975.619479 
L 206.287367 29.7188 
L 205.048425 29.7188 
z
" clip-path="url(#pc84c4106b2)" style="fill: #1f77b4"/>
   </g>
   <g id="patch_120">
    <path d="M 206.287367 51975.619479 
L 207.526308 51975.619479 
L 207.526308 28.283734 
L 206.287367 28.283734 
z
" clip-path="url(#pc84c4106b2)" style="fill: #1f77b4"/>
   </g>
   <g id="patch_121">
    <path d="M 207.526308 51975.619479 
L 208.76525 51975.619479 
L 208.76525 26.577122 
L 207.526308 26.577122 
z
" clip-path="url(#pc84c4106b2)" style="fill: #1f77b4"/>
   </g>
   <g id="patch_122">
    <path d="M 208.76525 51975.619479 
L 210.004192 51975.619479 
L 210.004192 24.900551 
L 208.76525 24.900551 
z
" clip-path="url(#pc84c4106b2)" style="fill: #1f77b4"/>
   </g>
   <g id="patch_123">
    <path d="M 210.004192 51975.619479 
L 211.243133 51975.619479 
L 211.243133 23.35389 
L 210.004192 23.35389 
z
" clip-path="url(#pc84c4106b2)" style="fill: #1f77b4"/>
   </g>
   <g id="patch_124">
    <path d="M 211.243133 51975.619479 
L 212.482075 51975.619479 
L 212.482075 20.682315 
L 211.243133 20.682315 
z
" clip-path="url(#pc84c4106b2)" style="fill: #1f77b4"/>
   </g>
   <g id="patch_125">
    <path d="M 212.482075 51975.619479 
L 213.721016 51975.619479 
L 213.721016 20.288596 
L 212.482075 20.288596 
z
" clip-path="url(#pc84c4106b2)" style="fill: #1f77b4"/>
   </g>
   <g id="patch_126">
    <path d="M 213.721016 51975.619479 
L 214.959958 51975.619479 
L 214.959958 20.227693 
L 213.721016 20.227693 
z
" clip-path="url(#pc84c4106b2)" style="fill: #1f77b4"/>
   </g>
   <g id="patch_127">
    <path d="M 214.959958 51975.619479 
L 216.1989 51975.619479 
L 216.1989 17.829539 
L 214.959958 17.829539 
z
" clip-path="url(#pc84c4106b2)" style="fill: #1f77b4"/>
   </g>
   <g id="patch_128">
    <path d="M 216.1989 51975.619479 
L 217.437841 51975.619479 
L 217.437841 17.428405 
L 216.1989 17.428405 
z
" clip-path="url(#pc84c4106b2)" style="fill: #1f77b4"/>
   </g>
   <g id="patch_129">
    <path d="M 217.437841 51975.619479 
L 218.676783 51975.619479 
L 218.676783 17.246463 
L 217.437841 17.246463 
z
" clip-path="url(#pc84c4106b2)" style="fill: #1f77b4"/>
   </g>
   <g id="patch_130">
    <path d="M 218.676783 51975.619479 
L 219.915725 51975.619479 
L 219.915725 16.317161 
L 218.676783 16.317161 
z
" clip-path="url(#pc84c4106b2)" style="fill: #1f77b4"/>
   </g>
   <g id="patch_131">
    <path d="M 219.915725 51975.619479 
L 221.154666 51975.619479 
L 221.154666 15.91164 
L 219.915725 15.91164 
z
" clip-path="url(#pc84c4106b2)" style="fill: #1f77b4"/>
   </g>
   <g id="patch_132">
    <path d="M 221.154666 51975.619479 
L 222.393608 51975.619479 
L 222.393608 17.267792 
L 221.154666 17.267792 
z
" clip-path="url(#pc84c4106b2)" style="fill: #1f77b4"/>
   </g>
   <g id="patch_133">
    <path d="M 222.393608 51975.619479 
L 223.63255 51975.619479 
L 223.63255 16.761376 
L 222.393608 16.761376 
z
" clip-path="url(#pc84c4106b2)" style="fill: #1f77b4"/>
   </g>
   <g id="patch_134">
    <path d="M 223.63255 51975.619479 
L 224.871491 51975.619479 
L 224.871491 16.327393 
L 223.63255 16.327393 
z
" clip-path="url(#pc84c4106b2)" style="fill: #1f77b4"/>
   </g>
   <g id="patch_135">
    <path d="M 224.871491 51975.619479 
L 226.110433 51975.619479 
L 226.110433 16.083097 
L 224.871491 16.083097 
z
" clip-path="url(#pc84c4106b2)" style="fill: #1f77b4"/>
   </g>
   <g id="patch_136">
    <path d="M 226.110433 51975.619479 
L 227.349375 51975.619479 
L 227.349375 16.543342 
L 226.110433 16.543342 
z
" clip-path="url(#pc84c4106b2)" style="fill: #1f77b4"/>
   </g>
   <g id="patch_137">
    <path d="M 227.349375 51975.619479 
L 228.588316 51975.619479 
L 228.588316 17.214507 
L 227.349375 17.214507 
z
" clip-path="url(#pc84c4106b2)" style="fill: #1f77b4"/>
   </g>
   <g id="patch_138">
    <path d="M 228.588316 51975.619479 
L 229.827258 51975.619479 
L 229.827258 18.027293 
L 228.588316 18.027293 
z
" clip-path="url(#pc84c4106b2)" style="fill: #1f77b4"/>
   </g>
   <g id="patch_139">
    <path d="M 229.827258 51975.619479 
L 231.066199 51975.619479 
L 231.066199 18.916301 
L 229.827258 18.916301 
z
" clip-path="url(#pc84c4106b2)" style="fill: #1f77b4"/>
   </g>
   <g id="patch_140">
    <path d="M 231.066199 51975.619479 
L 232.305141 51975.619479 
L 232.305141 18.973763 
L 231.066199 18.973763 
z
" clip-path="url(#pc84c4106b2)" style="fill: #1f77b4"/>
   </g>
   <g id="patch_141">
    <path d="M 232.305141 51975.619479 
L 233.544083 51975.619479 
L 233.544083 20.264215 
L 232.305141 20.264215 
z
" clip-path="url(#pc84c4106b2)" style="fill: #1f77b4"/>
   </g>
   <g id="patch_142">
    <path d="M 233.544083 51975.619479 
L 234.783024 51975.619479 
L 234.783024 20.361897 
L 233.544083 20.361897 
z
" clip-path="url(#pc84c4106b2)" style="fill: #1f77b4"/>
   </g>
   <g id="patch_143">
    <path d="M 234.783024 51975.619479 
L 236.021966 51975.619479 
L 236.021966 21.09566 
L 234.783024 21.09566 
z
" clip-path="url(#pc84c4106b2)" style="fill: #1f77b4"/>
   </g>
   <g id="patch_144">
    <path d="M 236.021966 51975.619479 
L 237.260908 51975.619479 
L 237.260908 21.426741 
L 236.021966 21.426741 
z
" clip-path="url(#pc84c4106b2)" style="fill: #1f77b4"/>
   </g>
   <g id="patch_145">
    <path d="M 237.260908 51975.619479 
L 238.499849 51975.619479 
L 238.499849 22.302983 
L 237.260908 22.302983 
z
" clip-path="url(#pc84c4106b2)" style="fill: #1f77b4"/>
   </g>
   <g id="patch_146">
    <path d="M 238.499849 51975.619479 
L 239.738791 51975.619479 
L 239.738791 22.95233 
L 238.499849 22.95233 
z
" clip-path="url(#pc84c4106b2)" style="fill: #1f77b4"/>
   </g>
   <g id="patch_147">
    <path d="M 239.738791 51975.619479 
L 240.977733 51975.619479 
L 240.977733 22.679495 
L 239.738791 22.679495 
z
" clip-path="url(#pc84c4106b2)" style="fill: #1f77b4"/>
   </g>
   <g id="patch_148">
    <path d="M 240.977733 51975.619479 
L 242.216674 51975.619479 
L 242.216674 24.339058 
L 240.977733 24.339058 
z
" clip-path="url(#pc84c4106b2)" style="fill: #1f77b4"/>
   </g>
   <g id="patch_149">
    <path d="M 242.216674 51975.619479 
L 243.455616 51975.619479 
L 243.455616 24.618059 
L 242.216674 24.618059 
z
" clip-path="url(#pc84c4106b2)" style="fill: #1f77b4"/>
   </g>
   <g id="patch_150">
    <path d="M 243.455616 51975.619479 
L 244.694558 51975.619479 
L 244.694558 26.416547 
L 243.455616 26.416547 
z
" clip-path="url(#pc84c4106b2)" style="fill: #1f77b4"/>
   </g>
   <g id="patch_151">
    <path d="M 244.694558 51975.619479 
L 245.933499 51975.619479 
L 245.933499 28.370802 
L 244.694558 28.370802 
z
" clip-path="url(#pc84c4106b2)" style="fill: #1f77b4"/>
   </g>
   <g id="patch_152">
    <path d="M 245.933499 51975.619479 
L 247.172441 51975.619479 
L 247.172441 29.314978 
L 245.933499 29.314978 
z
" clip-path="url(#pc84c4106b2)" style="fill: #1f77b4"/>
   </g>
   <g id="patch_153">
    <path d="M 247.172441 51975.619479 
L 248.411382 51975.619479 
L 248.411382 31.231502 
L 247.172441 31.231502 
z
" clip-path="url(#pc84c4106b2)" style="fill: #1f77b4"/>
   </g>
   <g id="patch_154">
    <path d="M 248.411382 51975.619479 
L 249.650324 51975.619479 
L 249.650324 31.290993 
L 248.411382 31.290993 
z
" clip-path="url(#pc84c4106b2)" style="fill: #1f77b4"/>
   </g>
   <g id="patch_155">
    <path d="M 249.650324 51975.619479 
L 250.889266 51975.619479 
L 250.889266 31.172167 
L 249.650324 31.172167 
z
" clip-path="url(#pc84c4106b2)" style="fill: #1f77b4"/>
   </g>
   <g id="patch_156">
    <path d="M 250.889266 51975.619479 
L 252.128207 51975.619479 
L 252.128207 34.854103 
L 250.889266 34.854103 
z
" clip-path="url(#pc84c4106b2)" style="fill: #1f77b4"/>
   </g>
   <g id="patch_157">
    <path d="M 252.128207 51975.619479 
L 253.367149 51975.619479 
L 253.367149 35.998682 
L 252.128207 35.998682 
z
" clip-path="url(#pc84c4106b2)" style="fill: #1f77b4"/>
   </g>
   <g id="patch_158">
    <path d="M 253.367149 51975.619479 
L 254.606091 51975.619479 
L 254.606091 35.682918 
L 253.367149 35.682918 
z
" clip-path="url(#pc84c4106b2)" style="fill: #1f77b4"/>
   </g>
   <g id="patch_159">
    <path d="M 254.606091 51975.619479 
L 255.845032 51975.619479 
L 255.845032 37.621055 
L 254.606091 37.621055 
z
" clip-path="url(#pc84c4106b2)" style="fill: #1f77b4"/>
   </g>
   <g id="patch_160">
    <path d="M 255.845032 51975.619479 
L 257.083974 51975.619479 
L 257.083974 39.828112 
L 255.845032 39.828112 
z
" clip-path="url(#pc84c4106b2)" style="fill: #1f77b4"/>
   </g>
   <g id="patch_161">
    <path d="M 257.083974 51975.619479 
L 258.322916 51975.619479 
L 258.322916 42.210031 
L 257.083974 42.210031 
z
" clip-path="url(#pc84c4106b2)" style="fill: #1f77b4"/>
   </g>
   <g id="patch_162">
    <path d="M 258.322916 51975.619479 
L 259.561857 51975.619479 
L 259.561857 43.742376 
L 258.322916 43.742376 
z
" clip-path="url(#pc84c4106b2)" style="fill: #1f77b4"/>
   </g>
   <g id="patch_163">
    <path d="M 259.561857 51975.619479 
L 260.800799 51975.619479 
L 260.800799 45.01864 
L 259.561857 45.01864 
z
" clip-path="url(#pc84c4106b2)" style="fill: #1f77b4"/>
   </g>
   <g id="patch_164">
    <path d="M 260.800799 51975.619479 
L 262.039741 51975.619479 
L 262.039741 45.797866 
L 260.800799 45.797866 
z
" clip-path="url(#pc84c4106b2)" style="fill: #1f77b4"/>
   </g>
   <g id="patch_165">
    <path d="M 262.039741 51975.619479 
L 263.278682 51975.619479 
L 263.278682 46.801443 
L 262.039741 46.801443 
z
" clip-path="url(#pc84c4106b2)" style="fill: #1f77b4"/>
   </g>
   <g id="patch_166">
    <path d="M 263.278682 51975.619479 
L 264.517624 51975.619479 
L 264.517624 48.996696 
L 263.278682 48.996696 
z
" clip-path="url(#pc84c4106b2)" style="fill: #1f77b4"/>
   </g>
   <g id="patch_167">
    <path d="M 264.517624 51975.619479 
L 265.756565 51975.619479 
L 265.756565 51.092012 
L 264.517624 51.092012 
z
" clip-path="url(#pc84c4106b2)" style="fill: #1f77b4"/>
   </g>
   <g id="patch_168">
    <path d="M 265.756565 51975.619479 
L 266.995507 51975.619479 
L 266.995507 53.243807 
L 265.756565 53.243807 
z
" clip-path="url(#pc84c4106b2)" style="fill: #1f77b4"/>
   </g>
   <g id="patch_169">
    <path d="M 266.995507 51975.619479 
L 268.234449 51975.619479 
L 268.234449 52.93096 
L 266.995507 52.93096 
z
" clip-path="url(#pc84c4106b2)" style="fill: #1f77b4"/>
   </g>
   <g id="patch_170">
    <path d="M 268.234449 51975.619479 
L 269.47339 51975.619479 
L 269.47339 58.085629 
L 268.234449 58.085629 
z
" clip-path="url(#pc84c4106b2)" style="fill: #1f77b4"/>
   </g>
   <g id="patch_171">
    <path d="M 269.47339 51975.619479 
L 270.712332 51975.619479 
L 270.712332 61.146856 
L 269.47339 61.146856 
z
" clip-path="url(#pc84c4106b2)" style="fill: #1f77b4"/>
   </g>
   <g id="patch_172">
    <path d="M 270.712332 51975.619479 
L 271.951274 51975.619479 
L 271.951274 60.998325 
L 270.712332 60.998325 
z
" clip-path="url(#pc84c4106b2)" style="fill: #1f77b4"/>
   </g>
   <g id="patch_173">
    <path d="M 271.951274 51975.619479 
L 273.190215 51975.619479 
L 273.190215 63.833975 
L 271.951274 63.833975 
z
" clip-path="url(#pc84c4106b2)" style="fill: #1f77b4"/>
   </g>
   <g id="patch_174">
    <path d="M 273.190215 51975.619479 
L 274.429157 51975.619479 
L 274.429157 63.750202 
L 273.190215 63.750202 
z
" clip-path="url(#pc84c4106b2)" style="fill: #1f77b4"/>
   </g>
   <g id="patch_175">
    <path d="M 274.429157 51975.619479 
L 275.668099 51975.619479 
L 275.668099 70.189455 
L 274.429157 70.189455 
z
" clip-path="url(#pc84c4106b2)" style="fill: #1f77b4"/>
   </g>
   <g id="patch_176">
    <path d="M 275.668099 51975.619479 
L 276.90704 51975.619479 
L 276.90704 69.316815 
L 275.668099 69.316815 
z
" clip-path="url(#pc84c4106b2)" style="fill: #1f77b4"/>
   </g>
   <g id="patch_177">
    <path d="M 276.90704 51975.619479 
L 278.145982 51975.619479 
L 278.145982 72.285711 
L 276.90704 72.285711 
z
" clip-path="url(#pc84c4106b2)" style="fill: #1f77b4"/>
   </g>
   <g id="patch_178">
    <path d="M 278.145982 51975.619479 
L 279.384924 51975.619479 
L 279.384924 72.654822 
L 278.145982 72.654822 
z
" clip-path="url(#pc84c4106b2)" style="fill: #1f77b4"/>
   </g>
   <g id="patch_179">
    <path d="M 279.384924 51975.619479 
L 280.623865 51975.619479 
L 280.623865 76.280233 
L 279.384924 76.280233 
z
" clip-path="url(#pc84c4106b2)" style="fill: #1f77b4"/>
   </g>
   <g id="patch_180">
    <path d="M 280.623865 51975.619479 
L 281.862807 51975.619479 
L 281.862807 78.417468 
L 280.623865 78.417468 
z
" clip-path="url(#pc84c4106b2)" style="fill: #1f77b4"/>
   </g>
   <g id="patch_181">
    <path d="M 281.862807 51975.619479 
L 283.101749 51975.619479 
L 283.101749 81.87102 
L 281.862807 81.87102 
z
" clip-path="url(#pc84c4106b2)" style="fill: #1f77b4"/>
   </g>
   <g id="patch_182">
    <path d="M 283.101749 51975.619479 
L 284.34069 51975.619479 
L 284.34069 83.818499 
L 283.101749 83.818499 
z
" clip-path="url(#pc84c4106b2)" style="fill: #1f77b4"/>
   </g>
   <g id="patch_183">
    <path d="M 284.34069 51975.619479 
L 285.579632 51975.619479 
L 285.579632 90.65499 
L 284.34069 90.65499 
z
" clip-path="url(#pc84c4106b2)" style="fill: #1f77b4"/>
   </g>
   <g id="patch_184">
    <path d="M 285.579632 51975.619479 
L 286.818573 51975.619479 
L 286.818573 84.647097 
L 285.579632 84.647097 
z
" clip-path="url(#pc84c4106b2)" style="fill: #1f77b4"/>
   </g>
   <g id="patch_185">
    <path d="M 286.818573 51975.619479 
L 288.057515 51975.619479 
L 288.057515 86.862281 
L 286.818573 86.862281 
z
" clip-path="url(#pc84c4106b2)" style="fill: #1f77b4"/>
   </g>
   <g id="patch_186">
    <path d="M 288.057515 51975.619479 
L 289.296457 51975.619479 
L 289.296457 92.972588 
L 288.057515 92.972588 
z
" clip-path="url(#pc84c4106b2)" style="fill: #1f77b4"/>
   </g>
   <g id="patch_187">
    <path d="M 289.296457 51975.619479 
L 290.535398 51975.619479 
L 290.535398 94.552027 
L 289.296457 94.552027 
z
" clip-path="url(#pc84c4106b2)" style="fill: #1f77b4"/>
   </g>
   <g id="patch_188">
    <path d="M 290.535398 51975.619479 
L 291.77434 51975.619479 
L 291.77434 100.086098 
L 290.535398 100.086098 
z
" clip-path="url(#pc84c4106b2)" style="fill: #1f77b4"/>
   </g>
   <g id="patch_189">
    <path d="M 291.77434 51975.619479 
L 293.013282 51975.619479 
L 293.013282 102.745258 
L 291.77434 102.745258 
z
" clip-path="url(#pc84c4106b2)" style="fill: #1f77b4"/>
   </g>
   <g id="patch_190">
    <path d="M 293.013282 51975.619479 
L 294.252223 51975.619479 
L 294.252223 98.865435 
L 293.013282 98.865435 
z
" clip-path="url(#pc84c4106b2)" style="fill: #1f77b4"/>
   </g>
   <g id="patch_191">
    <path d="M 294.252223 51975.619479 
L 295.491165 51975.619479 
L 295.491165 108.621607 
L 294.252223 108.621607 
z
" clip-path="url(#pc84c4106b2)" style="fill: #1f77b4"/>
   </g>
   <g id="patch_192">
    <path d="M 295.491165 51975.619479 
L 296.730107 51975.619479 
L 296.730107 108.621607 
L 295.491165 108.621607 
z
" clip-path="url(#pc84c4106b2)" style="fill: #1f77b4"/>
   </g>
   <g id="patch_193">
    <path d="M 296.730107 51975.619479 
L 297.969048 51975.619479 
L 297.969048 116.587171 
L 296.730107 116.587171 
z
" clip-path="url(#pc84c4106b2)" style="fill: #1f77b4"/>
   </g>
   <g id="patch_194">
    <path d="M 297.969048 51975.619479 
L 299.20799 51975.619479 
L 299.20799 116.587171 
L 297.969048 116.587171 
z
" clip-path="url(#pc84c4106b2)" style="fill: #1f77b4"/>
   </g>
   <g id="patch_195">
    <path d="M 299.20799 51975.619479 
L 300.446932 51975.619479 
L 300.446932 120.358711 
L 299.20799 120.358711 
z
" clip-path="url(#pc84c4106b2)" style="fill: #1f77b4"/>
   </g>
   <g id="patch_196">
    <path d="M 300.446932 51975.619479 
L 301.685873 51975.619479 
L 301.685873 119.355135 
L 300.446932 119.355135 
z
" clip-path="url(#pc84c4106b2)" style="fill: #1f77b4"/>
   </g>
   <g id="patch_197">
    <path d="M 301.685873 51975.619479 
L 302.924815 51975.619479 
L 302.924815 124.889206 
L 301.685873 124.889206 
z
" clip-path="url(#pc84c4106b2)" style="fill: #1f77b4"/>
   </g>
   <g id="patch_198">
    <path d="M 302.924815 51975.619479 
L 304.163756 51975.619479 
L 304.163756 143.197384 
L 302.924815 143.197384 
z
" clip-path="url(#pc84c4106b2)" style="fill: #1f77b4"/>
   </g>
   <g id="patch_199">
    <path d="M 304.163756 51975.619479 
L 305.402698 51975.619479 
L 305.402698 129.005436 
L 304.163756 129.005436 
z
" clip-path="url(#pc84c4106b2)" style="fill: #1f77b4"/>
   </g>
   <g id="patch_200">
    <path d="M 305.402698 51975.619479 
L 306.64164 51975.619479 
L 306.64164 146.21209 
L 305.402698 146.21209 
z
" clip-path="url(#pc84c4106b2)" style="fill: #1f77b4"/>
   </g>
   <g id="patch_201">
    <path d="M 306.64164 51975.619479 
L 307.880581 51975.619479 
L 307.880581 132.23619 
L 306.64164 132.23619 
z
" clip-path="url(#pc84c4106b2)" style="fill: #1f77b4"/>
   </g>
   <g id="patch_202">
    <path d="M 307.880581 51975.619479 
L 309.119523 51975.619479 
L 309.119523 149.692314 
L 307.880581 149.692314 
z
" clip-path="url(#pc84c4106b2)" style="fill: #1f77b4"/>
   </g>
   <g id="patch_203">
    <path d="M 309.119523 51975.619479 
L 310.358465 51975.619479 
L 310.358465 190.14444 
L 309.119523 190.14444 
z
" clip-path="url(#pc84c4106b2)" style="fill: #1f77b4"/>
   </g>
   <g id="patch_204">
    <path d="M 310.358465 51975.619479 
L 311.597406 51975.619479 
L 311.597406 153.808544 
L 310.358465 153.808544 
z
" clip-path="url(#pc84c4106b2)" style="fill: #1f77b4"/>
   </g>
   <g id="patch_205">
    <path d="M 311.597406 51975.619479 
L 312.836348 51975.619479 
L 312.836348 51975.619479 
L 311.597406 51975.619479 
z
" clip-path="url(#pc84c4106b2)" style="fill: #1f77b4"/>
   </g>
   <g id="patch_206">
    <path d="M 312.836348 51975.619479 
L 314.07529 51975.619479 
L 314.07529 174.495421 
L 312.836348 174.495421 
z
" clip-path="url(#pc84c4106b2)" style="fill: #1f77b4"/>
   </g>
   <g id="patch_207">
    <path d="M 314.07529 51975.619479 
L 315.314231 51975.619479 
L 315.314231 190.14444 
L 314.07529 190.14444 
z
" clip-path="url(#pc84c4106b2)" style="fill: #1f77b4"/>
   </g>
   <g id="patch_208">
    <path d="M 315.314231 51975.619479 
L 316.553173 51975.619479 
L 316.553173 190.14444 
L 315.314231 190.14444 
z
" clip-path="url(#pc84c4106b2)" style="fill: #1f77b4"/>
   </g>
   <g id="patch_209">
    <path d="M 316.553173 51975.619479 
L 317.792115 51975.619479 
L 317.792115 190.14444 
L 316.553173 190.14444 
z
" clip-path="url(#pc84c4106b2)" style="fill: #1f77b4"/>
   </g>
   <g id="patch_210">
    <path d="M 317.792115 51975.619479 
L 319.031056 51975.619479 
L 319.031056 190.14444 
L 317.792115 190.14444 
z
" clip-path="url(#pc84c4106b2)" style="fill: #1f77b4"/>
   </g>
   <g id="patch_211">
    <path d="M 319.031056 51975.619479 
L 320.269998 51975.619479 
L 320.269998 158.846403 
L 319.031056 158.846403 
z
" clip-path="url(#pc84c4106b2)" style="fill: #1f77b4"/>
   </g>
   <g id="patch_212">
    <path d="M 320.269998 51975.619479 
L 321.508939 51975.619479 
L 321.508939 51975.619479 
L 320.269998 51975.619479 
z
" clip-path="url(#pc84c4106b2)" style="fill: #1f77b4"/>
   </g>
   <g id="patch_213">
    <path d="M 321.508939 51975.619479 
L 322.747881 51975.619479 
L 322.747881 51975.619479 
L 321.508939 51975.619479 
z
" clip-path="url(#pc84c4106b2)" style="fill: #1f77b4"/>
   </g>
   <g id="patch_214">
    <path d="M 322.747881 51975.619479 
L 323.986823 51975.619479 
L 323.986823 190.14444 
L 322.747881 190.14444 
z
" clip-path="url(#pc84c4106b2)" style="fill: #1f77b4"/>
   </g>
   <g id="patch_215">
    <path d="M 323.986823 51975.619479 
L 325.225764 51975.619479 
L 325.225764 190.14444 
L 323.986823 190.14444 
z
" clip-path="url(#pc84c4106b2)" style="fill: #1f77b4"/>
   </g>
   <g id="patch_216">
    <path d="M 325.225764 51975.619479 
L 326.464706 51975.619479 
L 326.464706 51975.619479 
L 325.225764 51975.619479 
z
" clip-path="url(#pc84c4106b2)" style="fill: #1f77b4"/>
   </g>
   <g id="patch_217">
    <path d="M 326.464706 51975.619479 
L 327.703648 51975.619479 
L 327.703648 174.495421 
L 326.464706 174.495421 
z
" clip-path="url(#pc84c4106b2)" style="fill: #1f77b4"/>
   </g>
   <g id="patch_218">
    <path d="M 327.703648 51975.619479 
L 328.942589 51975.619479 
L 328.942589 51975.619479 
L 327.703648 51975.619479 
z
" clip-path="url(#pc84c4106b2)" style="fill: #1f77b4"/>
   </g>
   <g id="patch_219">
    <path d="M 328.942589 51975.619479 
L 330.181531 51975.619479 
L 330.181531 51975.619479 
L 328.942589 51975.619479 
z
" clip-path="url(#pc84c4106b2)" style="fill: #1f77b4"/>
   </g>
   <g id="patch_220">
    <path d="M 330.181531 51975.619479 
L 331.420473 51975.619479 
L 331.420473 174.495421 
L 330.181531 174.495421 
z
" clip-path="url(#pc84c4106b2)" style="fill: #1f77b4"/>
   </g>
   <g id="patch_221">
    <path d="M 331.420473 51975.619479 
L 332.659414 51975.619479 
L 332.659414 51975.619479 
L 331.420473 51975.619479 
z
" clip-path="url(#pc84c4106b2)" style="fill: #1f77b4"/>
   </g>
   <g id="patch_222">
    <path d="M 332.659414 51975.619479 
L 333.898356 51975.619479 
L 333.898356 165.341332 
L 332.659414 165.341332 
z
" clip-path="url(#pc84c4106b2)" style="fill: #1f77b4"/>
   </g>
   <g id="patch_223">
    <path d="M 333.898356 51975.619479 
L 335.137298 51975.619479 
L 335.137298 190.14444 
L 333.898356 190.14444 
z
" clip-path="url(#pc84c4106b2)" style="fill: #1f77b4"/>
   </g>
   <g id="patch_224">
    <path d="M 335.137298 51975.619479 
L 336.376239 51975.619479 
L 336.376239 174.495421 
L 335.137298 174.495421 
z
" clip-path="url(#pc84c4106b2)" style="fill: #1f77b4"/>
   </g>
   <g id="patch_225">
    <path d="M 336.376239 51975.619479 
L 337.615181 51975.619479 
L 337.615181 174.495421 
L 336.376239 174.495421 
z
" clip-path="url(#pc84c4106b2)" style="fill: #1f77b4"/>
   </g>
   <g id="patch_226">
    <path d="M 337.615181 51975.619479 
L 338.854122 51975.619479 
L 338.854122 51975.619479 
L 337.615181 51975.619479 
z
" clip-path="url(#pc84c4106b2)" style="fill: #1f77b4"/>
   </g>
   <g id="patch_227">
    <path d="M 338.854122 51975.619479 
L 340.093064 51975.619479 
L 340.093064 174.495421 
L 338.854122 174.495421 
z
" clip-path="url(#pc84c4106b2)" style="fill: #1f77b4"/>
   </g>
   <g id="patch_228">
    <path d="M 340.093064 51975.619479 
L 341.332006 51975.619479 
L 341.332006 190.14444 
L 340.093064 190.14444 
z
" clip-path="url(#pc84c4106b2)" style="fill: #1f77b4"/>
   </g>
   <g id="patch_229">
    <path d="M 341.332006 51975.619479 
L 342.570947 51975.619479 
L 342.570947 51975.619479 
L 341.332006 51975.619479 
z
" clip-path="url(#pc84c4106b2)" style="fill: #1f77b4"/>
   </g>
   <g id="patch_230">
    <path d="M 342.570947 51975.619479 
L 343.809889 51975.619479 
L 343.809889 190.14444 
L 342.570947 190.14444 
z
" clip-path="url(#pc84c4106b2)" style="fill: #1f77b4"/>
   </g>
   <g id="patch_231">
    <path d="M 343.809889 51975.619479 
L 345.048831 51975.619479 
L 345.048831 190.14444 
L 343.809889 190.14444 
z
" clip-path="url(#pc84c4106b2)" style="fill: #1f77b4"/>
   </g>
   <g id="matplotlib.axis_1">
    <g id="xtick_1">
     <g id="line2d_1">
      <defs>
       <path id="m6aa5f7ec19" d="M 0 0 
L 0 3.5 
" style="stroke: #000000; stroke-width: 0.8"/>
      </defs>
      <g>
       <use xlink:href="#m6aa5f7ec19" x="68.481799" y="198.85608" style="stroke: #000000; stroke-width: 0.8"/>
      </g>
     </g>
     <g id="text_1">
      <text style="font: 10px 'Arial', 'DejaVu Sans', 'Computer Modern Sans Serif', 'Lucida Grande', 'Verdana', 'Geneva', 'Lucid', 'Helvetica', 'Avant Garde', sans-serif; text-anchor: middle" x="68.481799" y="213.013892" transform="rotate(-0 68.481799 213.013892)">−7.5</text>
     </g>
    </g>
    <g id="xtick_2">
     <g id="line2d_2">
      <g>
       <use xlink:href="#m6aa5f7ec19" x="108.473671" y="198.85608" style="stroke: #000000; stroke-width: 0.8"/>
      </g>
     </g>
     <g id="text_2">
      <text style="font: 10px 'Arial', 'DejaVu Sans', 'Computer Modern Sans Serif', 'Lucida Grande', 'Verdana', 'Geneva', 'Lucid', 'Helvetica', 'Avant Garde', sans-serif; text-anchor: middle" x="108.473671" y="213.013892" transform="rotate(-0 108.473671 213.013892)">−5.0</text>
     </g>
    </g>
    <g id="xtick_3">
     <g id="line2d_3">
      <g>
       <use xlink:href="#m6aa5f7ec19" x="148.465544" y="198.85608" style="stroke: #000000; stroke-width: 0.8"/>
      </g>
     </g>
     <g id="text_3">
      <text style="font: 10px 'Arial', 'DejaVu Sans', 'Computer Modern Sans Serif', 'Lucida Grande', 'Verdana', 'Geneva', 'Lucid', 'Helvetica', 'Avant Garde', sans-serif; text-anchor: middle" x="148.465544" y="213.013892" transform="rotate(-0 148.465544 213.013892)">−2.5</text>
     </g>
    </g>
    <g id="xtick_4">
     <g id="line2d_4">
      <g>
       <use xlink:href="#m6aa5f7ec19" x="188.457416" y="198.85608" style="stroke: #000000; stroke-width: 0.8"/>
      </g>
     </g>
     <g id="text_4">
      <text style="font: 10px 'Arial', 'DejaVu Sans', 'Computer Modern Sans Serif', 'Lucida Grande', 'Verdana', 'Geneva', 'Lucid', 'Helvetica', 'Avant Garde', sans-serif; text-anchor: middle" x="188.457416" y="213.013892" transform="rotate(-0 188.457416 213.013892)">0.0</text>
     </g>
    </g>
    <g id="xtick_5">
     <g id="line2d_5">
      <g>
       <use xlink:href="#m6aa5f7ec19" x="228.449289" y="198.85608" style="stroke: #000000; stroke-width: 0.8"/>
      </g>
     </g>
     <g id="text_5">
      <text style="font: 10px 'Arial', 'DejaVu Sans', 'Computer Modern Sans Serif', 'Lucida Grande', 'Verdana', 'Geneva', 'Lucid', 'Helvetica', 'Avant Garde', sans-serif; text-anchor: middle" x="228.449289" y="213.013892" transform="rotate(-0 228.449289 213.013892)">2.5</text>
     </g>
    </g>
    <g id="xtick_6">
     <g id="line2d_6">
      <g>
       <use xlink:href="#m6aa5f7ec19" x="268.441161" y="198.85608" style="stroke: #000000; stroke-width: 0.8"/>
      </g>
     </g>
     <g id="text_6">
      <text style="font: 10px 'Arial', 'DejaVu Sans', 'Computer Modern Sans Serif', 'Lucida Grande', 'Verdana', 'Geneva', 'Lucid', 'Helvetica', 'Avant Garde', sans-serif; text-anchor: middle" x="268.441161" y="213.013892" transform="rotate(-0 268.441161 213.013892)">5.0</text>
     </g>
    </g>
    <g id="xtick_7">
     <g id="line2d_7">
      <g>
       <use xlink:href="#m6aa5f7ec19" x="308.433033" y="198.85608" style="stroke: #000000; stroke-width: 0.8"/>
      </g>
     </g>
     <g id="text_7">
      <text style="font: 10px 'Arial', 'DejaVu Sans', 'Computer Modern Sans Serif', 'Lucida Grande', 'Verdana', 'Geneva', 'Lucid', 'Helvetica', 'Avant Garde', sans-serif; text-anchor: middle" x="308.433033" y="213.013892" transform="rotate(-0 308.433033 213.013892)">7.5</text>
     </g>
    </g>
    <g id="xtick_8">
     <g id="line2d_8">
      <g>
       <use xlink:href="#m6aa5f7ec19" x="348.424906" y="198.85608" style="stroke: #000000; stroke-width: 0.8"/>
      </g>
     </g>
     <g id="text_8">
      <text style="font: 10px 'Arial', 'DejaVu Sans', 'Computer Modern Sans Serif', 'Lucida Grande', 'Verdana', 'Geneva', 'Lucid', 'Helvetica', 'Avant Garde', sans-serif; text-anchor: middle" x="348.424906" y="213.013892" transform="rotate(-0 348.424906 213.013892)">10.0</text>
     </g>
    </g>
    <g id="text_9">
     <!-- $\kappa$ -->
     <g transform="translate(200.290013 226.159205)">
      <text>
       <tspan style="font: 10px 'cmmi10'" x="0" y="-0.578125">∙</tspan>
      </text>
     </g>
    </g>
   </g>
   <g id="matplotlib.axis_2">
    <g id="ytick_1">
     <g id="line2d_9">
      <defs>
       <path id="m5151d0b56a" d="M 0 0 
L -3.5 0 
" style="stroke: #000000; stroke-width: 0.8"/>
      </defs>
      <g>
       <use xlink:href="#m5151d0b56a" x="47.145313" y="198.644387" style="stroke: #000000; stroke-width: 0.8"/>
      </g>
     </g>
     <g id="text_10">
      <!-- $\mathdefault{10^{-4}}$ -->
      <g transform="translate(20.345313 203.750637)">
       <text>
        <tspan style="font: 10px 'Arial'" x="0 5.561523" y="-0.02125000000000199">10</tspan>
        <tspan style="font: 7px 'Arial'" x="11.297281 15.385172" y="-6.9906250000000005">−4</tspan>
       </text>
      </g>
     </g>
    </g>
    <g id="ytick_2">
     <g id="line2d_10">
      <g>
       <use xlink:href="#m5151d0b56a" x="47.145313" y="146.659472" style="stroke: #000000; stroke-width: 0.8"/>
      </g>
     </g>
     <g id="text_11">
      <!-- $\mathdefault{10^{-3}}$ -->
      <g transform="translate(20.345313 151.815722)">
       <text>
        <tspan style="font: 10px 'Arial'" x="0 5.561523" y="-0.9993750000000006">10</tspan>
        <tspan style="font: 7px 'Arial'" x="11.297281 15.385172" y="-7.968749999999999">−3</tspan>
       </text>
      </g>
     </g>
    </g>
    <g id="ytick_3">
     <g id="line2d_11">
      <g>
       <use xlink:href="#m5151d0b56a" x="47.145313" y="94.674557" style="stroke: #000000; stroke-width: 0.8"/>
      </g>
     </g>
     <g id="text_12">
      <!-- $\mathdefault{10^{-2}}$ -->
      <g transform="translate(20.345313 99.830807)">
       <text>
        <tspan style="font: 10px 'Arial'" x="0 5.561523" y="-0.9993750000000006">10</tspan>
        <tspan style="font: 7px 'Arial'" x="11.297281 15.385172" y="-7.968749999999999">−2</tspan>
       </text>
      </g>
     </g>
    </g>
    <g id="ytick_4">
     <g id="line2d_12">
      <g>
       <use xlink:href="#m5151d0b56a" x="47.145313" y="42.689642" style="stroke: #000000; stroke-width: 0.8"/>
      </g>
     </g>
     <g id="text_13">
      <!-- $\mathdefault{10^{-1}}$ -->
      <g transform="translate(20.345313 47.845892)">
       <text>
        <tspan style="font: 10px 'Arial'" x="0 5.561523" y="-0.9993750000000006">10</tspan>
        <tspan style="font: 7px 'Arial'" x="11.297281 15.385172" y="-7.968749999999999">−1</tspan>
       </text>
      </g>
     </g>
    </g>
    <g id="ytick_5">
     <g id="line2d_13">
      <defs>
       <path id="me87e579b6c" d="M 0 0 
L -2 0 
" style="stroke: #000000; stroke-width: 0.6"/>
      </defs>
      <g>
       <use xlink:href="#me87e579b6c" x="47.145313" y="182.995368" style="stroke: #000000; stroke-width: 0.6"/>
      </g>
     </g>
    </g>
    <g id="ytick_6">
     <g id="line2d_14">
      <g>
       <use xlink:href="#me87e579b6c" x="47.145313" y="173.841279" style="stroke: #000000; stroke-width: 0.6"/>
      </g>
     </g>
    </g>
    <g id="ytick_7">
     <g id="line2d_15">
      <g>
       <use xlink:href="#me87e579b6c" x="47.145313" y="167.346349" style="stroke: #000000; stroke-width: 0.6"/>
      </g>
     </g>
    </g>
    <g id="ytick_8">
     <g id="line2d_16">
      <g>
       <use xlink:href="#me87e579b6c" x="47.145313" y="162.30849" style="stroke: #000000; stroke-width: 0.6"/>
      </g>
     </g>
    </g>
    <g id="ytick_9">
     <g id="line2d_17">
      <g>
       <use xlink:href="#me87e579b6c" x="47.145313" y="158.19226" style="stroke: #000000; stroke-width: 0.6"/>
      </g>
     </g>
    </g>
    <g id="ytick_10">
     <g id="line2d_18">
      <g>
       <use xlink:href="#me87e579b6c" x="47.145313" y="154.712037" style="stroke: #000000; stroke-width: 0.6"/>
      </g>
     </g>
    </g>
    <g id="ytick_11">
     <g id="line2d_19">
      <g>
       <use xlink:href="#me87e579b6c" x="47.145313" y="151.697331" style="stroke: #000000; stroke-width: 0.6"/>
      </g>
     </g>
    </g>
    <g id="ytick_12">
     <g id="line2d_20">
      <g>
       <use xlink:href="#me87e579b6c" x="47.145313" y="149.038171" style="stroke: #000000; stroke-width: 0.6"/>
      </g>
     </g>
    </g>
    <g id="ytick_13">
     <g id="line2d_21">
      <g>
       <use xlink:href="#me87e579b6c" x="47.145313" y="131.010453" style="stroke: #000000; stroke-width: 0.6"/>
      </g>
     </g>
    </g>
    <g id="ytick_14">
     <g id="line2d_22">
      <g>
       <use xlink:href="#me87e579b6c" x="47.145313" y="121.856364" style="stroke: #000000; stroke-width: 0.6"/>
      </g>
     </g>
    </g>
    <g id="ytick_15">
     <g id="line2d_23">
      <g>
       <use xlink:href="#me87e579b6c" x="47.145313" y="115.361434" style="stroke: #000000; stroke-width: 0.6"/>
      </g>
     </g>
    </g>
    <g id="ytick_16">
     <g id="line2d_24">
      <g>
       <use xlink:href="#me87e579b6c" x="47.145313" y="110.323576" style="stroke: #000000; stroke-width: 0.6"/>
      </g>
     </g>
    </g>
    <g id="ytick_17">
     <g id="line2d_25">
      <g>
       <use xlink:href="#me87e579b6c" x="47.145313" y="106.207345" style="stroke: #000000; stroke-width: 0.6"/>
      </g>
     </g>
    </g>
    <g id="ytick_18">
     <g id="line2d_26">
      <g>
       <use xlink:href="#me87e579b6c" x="47.145313" y="102.727122" style="stroke: #000000; stroke-width: 0.6"/>
      </g>
     </g>
    </g>
    <g id="ytick_19">
     <g id="line2d_27">
      <g>
       <use xlink:href="#me87e579b6c" x="47.145313" y="99.712416" style="stroke: #000000; stroke-width: 0.6"/>
      </g>
     </g>
    </g>
    <g id="ytick_20">
     <g id="line2d_28">
      <g>
       <use xlink:href="#me87e579b6c" x="47.145313" y="97.053256" style="stroke: #000000; stroke-width: 0.6"/>
      </g>
     </g>
    </g>
    <g id="ytick_21">
     <g id="line2d_29">
      <g>
       <use xlink:href="#me87e579b6c" x="47.145313" y="79.025538" style="stroke: #000000; stroke-width: 0.6"/>
      </g>
     </g>
    </g>
    <g id="ytick_22">
     <g id="line2d_30">
      <g>
       <use xlink:href="#me87e579b6c" x="47.145313" y="69.871449" style="stroke: #000000; stroke-width: 0.6"/>
      </g>
     </g>
    </g>
    <g id="ytick_23">
     <g id="line2d_31">
      <g>
       <use xlink:href="#me87e579b6c" x="47.145313" y="63.37652" style="stroke: #000000; stroke-width: 0.6"/>
      </g>
     </g>
    </g>
    <g id="ytick_24">
     <g id="line2d_32">
      <g>
       <use xlink:href="#me87e579b6c" x="47.145313" y="58.338661" style="stroke: #000000; stroke-width: 0.6"/>
      </g>
     </g>
    </g>
    <g id="ytick_25">
     <g id="line2d_33">
      <g>
       <use xlink:href="#me87e579b6c" x="47.145313" y="54.222431" style="stroke: #000000; stroke-width: 0.6"/>
      </g>
     </g>
    </g>
    <g id="ytick_26">
     <g id="line2d_34">
      <g>
       <use xlink:href="#me87e579b6c" x="47.145313" y="50.742207" style="stroke: #000000; stroke-width: 0.6"/>
      </g>
     </g>
    </g>
    <g id="ytick_27">
     <g id="line2d_35">
      <g>
       <use xlink:href="#me87e579b6c" x="47.145313" y="47.727501" style="stroke: #000000; stroke-width: 0.6"/>
      </g>
     </g>
    </g>
    <g id="ytick_28">
     <g id="line2d_36">
      <g>
       <use xlink:href="#me87e579b6c" x="47.145313" y="45.068342" style="stroke: #000000; stroke-width: 0.6"/>
      </g>
     </g>
    </g>
    <g id="ytick_29">
     <g id="line2d_37">
      <g>
       <use xlink:href="#me87e579b6c" x="47.145313" y="27.040624" style="stroke: #000000; stroke-width: 0.6"/>
      </g>
     </g>
    </g>
    <g id="ytick_30">
     <g id="line2d_38">
      <g>
       <use xlink:href="#me87e579b6c" x="47.145313" y="17.886535" style="stroke: #000000; stroke-width: 0.6"/>
      </g>
     </g>
    </g>
    <g id="ytick_31">
     <g id="line2d_39">
      <g>
       <use xlink:href="#me87e579b6c" x="47.145313" y="11.391605" style="stroke: #000000; stroke-width: 0.6"/>
      </g>
     </g>
    </g>
    <g id="text_14">
     <text style="font: 10px 'Arial', 'DejaVu Sans', 'Computer Modern Sans Serif', 'Lucida Grande', 'Verdana', 'Geneva', 'Lucid', 'Helvetica', 'Avant Garde', sans-serif; text-anchor: middle" x="14.357813" y="103.02804" transform="rotate(-90 14.357813 103.02804)">Distribution</text>
    </g>
   </g>
   <g id="patch_232">
    <path d="M 47.145313 198.85608 
L 47.145313 7.2 
" style="fill: none; stroke: #000000; stroke-linejoin: miter; stroke-linecap: square"/>
   </g>
   <g id="patch_233">
    <path d="M 359.234713 198.85608 
L 359.234713 7.2 
" style="fill: none; stroke: #000000; stroke-linejoin: miter; stroke-linecap: square"/>
   </g>
   <g id="patch_234">
    <path d="M 47.145312 198.85608 
L 359.234713 198.85608 
" style="fill: none; stroke: #000000; stroke-linejoin: miter; stroke-linecap: square"/>
   </g>
   <g id="patch_235">
    <path d="M 47.145312 7.2 
L 359.234713 7.2 
" style="fill: none; stroke: #000000; stroke-linejoin: miter; stroke-linecap: square"/>
   </g>
  </g>
 </g>
 <defs>
  <clipPath id="pc84c4106b2">
   <rect x="47.145313" y="7.2" width="312.0894" height="191.65608"/>
  </clipPath>
 </defs>
</svg>
