<?xml version="1.0" encoding="utf-8" standalone="no"?>
<!DOCTYPE svg PUBLIC "-//W3C//DTD SVG 1.1//EN"
  "http://www.w3.org/Graphics/SVG/1.1/DTD/svg11.dtd">
<svg xmlns:xlink="http://www.w3.org/1999/xlink" width="402.48pt" height="248.4pt" viewBox="0 0 402.48 248.4" xmlns="http://www.w3.org/2000/svg" version="1.1">
 <metadata>
  <rdf:RDF xmlns:dc="http://purl.org/dc/elements/1.1/" xmlns:cc="http://creativecommons.org/ns#" xmlns:rdf="http://www.w3.org/1999/02/22-rdf-syntax-ns#">
   <cc:Work>
    <dc:type rdf:resource="http://purl.org/dc/dcmitype/StillImage"/>
    <dc:date>2023-02-23T11:24:56.498705</dc:date>
    <dc:format>image/svg+xml</dc:format>
    <dc:creator>
     <cc:Agent>
      <dc:title>Matplotlib v3.6.2, https://matplotlib.org/</dc:title>
     </cc:Agent>
    </dc:creator>
   </cc:Work>
  </rdf:RDF>
 </metadata>
 <defs>
  <style type="text/css">*{stroke-linejoin: round; stroke-linecap: butt}</style>
 </defs>
 <g id="figure_1">
  <g id="patch_1">
   <path d="M 0 248.4 
L 402.48 248.4 
L 402.48 0 
L 0 0 
z
" style="fill: #ffffff"/>
  </g>
  <g id="axes_1">
   <g id="patch_2">
    <path d="M 54.580708 196.931545 
L 195.123283 196.931545 
L 195.123283 14.731508 
L 54.580708 14.731508 
z
" style="fill: #ffffff"/>
   </g>
   <g id="PolyCollection_1">
    <defs>
     <path id="m2a9748b9ff" d="M 54.580708 -51.468455 
L 54.580708 -54.745543 
L 56.00033 -55.015982 
L 57.419952 -55.30826 
L 58.839574 -55.624058 
L 60.259196 -55.965173 
L 61.678818 -56.333524 
L 63.09844 -56.731155 
L 64.518062 -57.160242 
L 65.937684 -57.623097 
L 67.357306 -58.122172 
L 68.776928 -58.660064 
L 70.19655 -59.239515 
L 71.616172 -59.863414 
L 73.035794 -60.5348 
L 74.455416 -61.256855 
L 75.875038 -62.032907 
L 77.294659 -62.866419 
L 78.714281 -63.760983 
L 80.133903 -64.72031 
L 81.553525 -65.748211 
L 82.973147 -66.848586 
L 84.392769 -68.025392 
L 85.812391 -69.282627 
L 87.232013 -70.624287 
L 88.651635 -72.05434 
L 90.071257 -73.576676 
L 91.490879 -75.195062 
L 92.910501 -76.913088 
L 94.330123 -78.734112 
L 95.749745 -80.661193 
L 97.169367 -82.697023 
L 98.588989 -84.843857 
L 100.008611 -87.103442 
L 101.428233 -89.476937 
L 102.847855 -91.964839 
L 104.267477 -94.566915 
L 105.687099 -97.282131 
L 107.106721 -100.108592 
L 108.526343 -103.043489 
L 109.945965 -106.083061 
L 111.365587 -109.222566 
L 112.785209 -112.456276 
L 114.204831 -115.77748 
L 115.624453 -119.178515 
L 117.044075 -122.650814 
L 118.463697 -126.184972 
L 119.883318 -129.770838 
L 121.30294 -133.397621 
L 122.722562 -137.05401 
L 124.142184 -140.72832 
L 125.561806 -144.408628 
L 126.981428 -148.082937 
L 128.40105 -151.739327 
L 129.820672 -155.366109 
L 131.240294 -158.951976 
L 132.659916 -162.486134 
L 134.079538 -165.958433 
L 135.49916 -169.359468 
L 136.918782 -172.680672 
L 138.338404 -175.914381 
L 139.758026 -179.053887 
L 141.177648 -182.093458 
L 142.59727 -185.028355 
L 144.016892 -187.854816 
L 145.436514 -190.570032 
L 146.856136 -193.172109 
L 148.275758 -195.660011 
L 149.69538 -198.033505 
L 151.115002 -200.29309 
L 152.534624 -202.439925 
L 153.954246 -204.475754 
L 155.373868 -206.402835 
L 156.79349 -208.223859 
L 158.213112 -209.941886 
L 159.632734 -211.560271 
L 161.052355 -213.082607 
L 162.471977 -214.51266 
L 163.891599 -215.854321 
L 165.311221 -217.111555 
L 166.730843 -218.288362 
L 168.150465 -219.388736 
L 169.570087 -220.416638 
L 170.989709 -221.375964 
L 172.409331 -222.270528 
L 173.828953 -223.10404 
L 175.248575 -223.880092 
L 176.668197 -224.602148 
L 178.087819 -225.273533 
L 179.507441 -225.897432 
L 180.927063 -226.476883 
L 182.346685 -227.014775 
L 183.766307 -227.51385 
L 185.185929 -227.976706 
L 186.605551 -228.405792 
L 188.025173 -228.803423 
L 189.444795 -229.171774 
L 190.864417 -229.51289 
L 192.284039 -229.828688 
L 193.703661 -230.120965 
L 195.123283 -230.391404 
L 195.123283 -51.468455 
L 195.123283 -51.468455 
L 193.703661 -51.468455 
L 192.284039 -51.468455 
L 190.864417 -51.468455 
L 189.444795 -51.468455 
L 188.025173 -51.468455 
L 186.605551 -51.468455 
L 185.185929 -51.468455 
L 183.766307 -51.468455 
L 182.346685 -51.468455 
L 180.927063 -51.468455 
L 179.507441 -51.468455 
L 178.087819 -51.468455 
L 176.668197 -51.468455 
L 175.248575 -51.468455 
L 173.828953 -51.468455 
L 172.409331 -51.468455 
L 170.989709 -51.468455 
L 169.570087 -51.468455 
L 168.150465 -51.468455 
L 166.730843 -51.468455 
L 165.311221 -51.468455 
L 163.891599 -51.468455 
L 162.471977 -51.468455 
L 161.052355 -51.468455 
L 159.632734 -51.468455 
L 158.213112 -51.468455 
L 156.79349 -51.468455 
L 155.373868 -51.468455 
L 153.954246 -51.468455 
L 152.534624 -51.468455 
L 151.115002 -51.468455 
L 149.69538 -51.468455 
L 148.275758 -51.468455 
L 146.856136 -51.468455 
L 145.436514 -51.468455 
L 144.016892 -51.468455 
L 142.59727 -51.468455 
L 141.177648 -51.468455 
L 139.758026 -51.468455 
L 138.338404 -51.468455 
L 136.918782 -51.468455 
L 135.49916 -51.468455 
L 134.079538 -51.468455 
L 132.659916 -51.468455 
L 131.240294 -51.468455 
L 129.820672 -51.468455 
L 128.40105 -51.468455 
L 126.981428 -51.468455 
L 125.561806 -51.468455 
L 124.142184 -51.468455 
L 122.722562 -51.468455 
L 121.30294 -51.468455 
L 119.883318 -51.468455 
L 118.463697 -51.468455 
L 117.044075 -51.468455 
L 115.624453 -51.468455 
L 114.204831 -51.468455 
L 112.785209 -51.468455 
L 111.365587 -51.468455 
L 109.945965 -51.468455 
L 108.526343 -51.468455 
L 107.106721 -51.468455 
L 105.687099 -51.468455 
L 104.267477 -51.468455 
L 102.847855 -51.468455 
L 101.428233 -51.468455 
L 100.008611 -51.468455 
L 98.588989 -51.468455 
L 97.169367 -51.468455 
L 95.749745 -51.468455 
L 94.330123 -51.468455 
L 92.910501 -51.468455 
L 91.490879 -51.468455 
L 90.071257 -51.468455 
L 88.651635 -51.468455 
L 87.232013 -51.468455 
L 85.812391 -51.468455 
L 84.392769 -51.468455 
L 82.973147 -51.468455 
L 81.553525 -51.468455 
L 80.133903 -51.468455 
L 78.714281 -51.468455 
L 77.294659 -51.468455 
L 75.875038 -51.468455 
L 74.455416 -51.468455 
L 73.035794 -51.468455 
L 71.616172 -51.468455 
L 70.19655 -51.468455 
L 68.776928 -51.468455 
L 67.357306 -51.468455 
L 65.937684 -51.468455 
L 64.518062 -51.468455 
L 63.09844 -51.468455 
L 61.678818 -51.468455 
L 60.259196 -51.468455 
L 58.839574 -51.468455 
L 57.419952 -51.468455 
L 56.00033 -51.468455 
L 54.580708 -51.468455 
z
" style="stroke: #ff0000; stroke-opacity: 0.5"/>
    </defs>
    <g clip-path="url(#p26af210960)">
     <use xlink:href="#m2a9748b9ff" x="0" y="248.4" style="fill: #ff0000; fill-opacity: 0.5; stroke: #ff0000; stroke-opacity: 0.5"/>
    </g>
   </g>
   <g id="PolyCollection_2">
    <defs>
     <path id="m6d346b0628" d="M 54.580708 -233.668492 
L 54.580708 -54.745543 
L 56.00033 -55.015982 
L 57.419952 -55.30826 
L 58.839574 -55.624058 
L 60.259196 -55.965173 
L 61.678818 -56.333524 
L 63.09844 -56.731155 
L 64.518062 -57.160242 
L 65.937684 -57.623097 
L 67.357306 -58.122172 
L 68.776928 -58.660064 
L 70.19655 -59.239515 
L 71.616172 -59.863414 
L 73.035794 -60.5348 
L 74.455416 -61.256855 
L 75.875038 -62.032907 
L 77.294659 -62.866419 
L 78.714281 -63.760983 
L 80.133903 -64.72031 
L 81.553525 -65.748211 
L 82.973147 -66.848586 
L 84.392769 -68.025392 
L 85.812391 -69.282627 
L 87.232013 -70.624287 
L 88.651635 -72.05434 
L 90.071257 -73.576676 
L 91.490879 -75.195062 
L 92.910501 -76.913088 
L 94.330123 -78.734112 
L 95.749745 -80.661193 
L 97.169367 -82.697023 
L 98.588989 -84.843857 
L 100.008611 -87.103442 
L 101.428233 -89.476937 
L 102.847855 -91.964839 
L 104.267477 -94.566915 
L 105.687099 -97.282131 
L 107.106721 -100.108592 
L 108.526343 -103.043489 
L 109.945965 -106.083061 
L 111.365587 -109.222566 
L 112.785209 -112.456276 
L 114.204831 -115.77748 
L 115.624453 -119.178515 
L 117.044075 -122.650814 
L 118.463697 -126.184972 
L 119.883318 -129.770838 
L 121.30294 -133.397621 
L 122.722562 -137.05401 
L 124.142184 -140.72832 
L 125.561806 -144.408628 
L 126.981428 -148.082937 
L 128.40105 -151.739327 
L 129.820672 -155.366109 
L 131.240294 -158.951976 
L 132.659916 -162.486134 
L 134.079538 -165.958433 
L 135.49916 -169.359468 
L 136.918782 -172.680672 
L 138.338404 -175.914381 
L 139.758026 -179.053887 
L 141.177648 -182.093458 
L 142.59727 -185.028355 
L 144.016892 -187.854816 
L 145.436514 -190.570032 
L 146.856136 -193.172109 
L 148.275758 -195.660011 
L 149.69538 -198.033505 
L 151.115002 -200.29309 
L 152.534624 -202.439925 
L 153.954246 -204.475754 
L 155.373868 -206.402835 
L 156.79349 -208.223859 
L 158.213112 -209.941886 
L 159.632734 -211.560271 
L 161.052355 -213.082607 
L 162.471977 -214.51266 
L 163.891599 -215.854321 
L 165.311221 -217.111555 
L 166.730843 -218.288362 
L 168.150465 -219.388736 
L 169.570087 -220.416638 
L 170.989709 -221.375964 
L 172.409331 -222.270528 
L 173.828953 -223.10404 
L 175.248575 -223.880092 
L 176.668197 -224.602148 
L 178.087819 -225.273533 
L 179.507441 -225.897432 
L 180.927063 -226.476883 
L 182.346685 -227.014775 
L 183.766307 -227.51385 
L 185.185929 -227.976706 
L 186.605551 -228.405792 
L 188.025173 -228.803423 
L 189.444795 -229.171774 
L 190.864417 -229.51289 
L 192.284039 -229.828688 
L 193.703661 -230.120965 
L 195.123283 -230.391404 
L 195.123283 -233.668492 
L 195.123283 -233.668492 
L 193.703661 -233.668492 
L 192.284039 -233.668492 
L 190.864417 -233.668492 
L 189.444795 -233.668492 
L 188.025173 -233.668492 
L 186.605551 -233.668492 
L 185.185929 -233.668492 
L 183.766307 -233.668492 
L 182.346685 -233.668492 
L 180.927063 -233.668492 
L 179.507441 -233.668492 
L 178.087819 -233.668492 
L 176.668197 -233.668492 
L 175.248575 -233.668492 
L 173.828953 -233.668492 
L 172.409331 -233.668492 
L 170.989709 -233.668492 
L 169.570087 -233.668492 
L 168.150465 -233.668492 
L 166.730843 -233.668492 
L 165.311221 -233.668492 
L 163.891599 -233.668492 
L 162.471977 -233.668492 
L 161.052355 -233.668492 
L 159.632734 -233.668492 
L 158.213112 -233.668492 
L 156.79349 -233.668492 
L 155.373868 -233.668492 
L 153.954246 -233.668492 
L 152.534624 -233.668492 
L 151.115002 -233.668492 
L 149.69538 -233.668492 
L 148.275758 -233.668492 
L 146.856136 -233.668492 
L 145.436514 -233.668492 
L 144.016892 -233.668492 
L 142.59727 -233.668492 
L 141.177648 -233.668492 
L 139.758026 -233.668492 
L 138.338404 -233.668492 
L 136.918782 -233.668492 
L 135.49916 -233.668492 
L 134.079538 -233.668492 
L 132.659916 -233.668492 
L 131.240294 -233.668492 
L 129.820672 -233.668492 
L 128.40105 -233.668492 
L 126.981428 -233.668492 
L 125.561806 -233.668492 
L 124.142184 -233.668492 
L 122.722562 -233.668492 
L 121.30294 -233.668492 
L 119.883318 -233.668492 
L 118.463697 -233.668492 
L 117.044075 -233.668492 
L 115.624453 -233.668492 
L 114.204831 -233.668492 
L 112.785209 -233.668492 
L 111.365587 -233.668492 
L 109.945965 -233.668492 
L 108.526343 -233.668492 
L 107.106721 -233.668492 
L 105.687099 -233.668492 
L 104.267477 -233.668492 
L 102.847855 -233.668492 
L 101.428233 -233.668492 
L 100.008611 -233.668492 
L 98.588989 -233.668492 
L 97.169367 -233.668492 
L 95.749745 -233.668492 
L 94.330123 -233.668492 
L 92.910501 -233.668492 
L 91.490879 -233.668492 
L 90.071257 -233.668492 
L 88.651635 -233.668492 
L 87.232013 -233.668492 
L 85.812391 -233.668492 
L 84.392769 -233.668492 
L 82.973147 -233.668492 
L 81.553525 -233.668492 
L 80.133903 -233.668492 
L 78.714281 -233.668492 
L 77.294659 -233.668492 
L 75.875038 -233.668492 
L 74.455416 -233.668492 
L 73.035794 -233.668492 
L 71.616172 -233.668492 
L 70.19655 -233.668492 
L 68.776928 -233.668492 
L 67.357306 -233.668492 
L 65.937684 -233.668492 
L 64.518062 -233.668492 
L 63.09844 -233.668492 
L 61.678818 -233.668492 
L 60.259196 -233.668492 
L 58.839574 -233.668492 
L 57.419952 -233.668492 
L 56.00033 -233.668492 
L 54.580708 -233.668492 
z
" style="stroke: #0000ff; stroke-opacity: 0.5"/>
    </defs>
    <g clip-path="url(#p26af210960)">
     <use xlink:href="#m6d346b0628" x="0" y="248.4" style="fill: #0000ff; fill-opacity: 0.5; stroke: #0000ff; stroke-opacity: 0.5"/>
    </g>
   </g>
   <g id="matplotlib.axis_1">
    <g id="xtick_1">
     <g id="line2d_1">
      <defs>
       <path id="m9ceb913d26" d="M 0 0 
L 0 3.5 
" style="stroke: #000000; stroke-width: 0.8"/>
      </defs>
      <g>
       <use xlink:href="#m9ceb913d26" x="54.580708" y="196.931545" style="stroke: #000000; stroke-width: 0.8"/>
      </g>
     </g>
     <g id="text_1">
      <!-- 0.00 -->
      <g transform="translate(43.447896 211.529982) scale(0.1 -0.1)">
       <defs>
        <path id="DejaVuSans-30" d="M 2034 4250 
Q 1547 4250 1301 3770 
Q 1056 3291 1056 2328 
Q 1056 1369 1301 889 
Q 1547 409 2034 409 
Q 2525 409 2770 889 
Q 3016 1369 3016 2328 
Q 3016 3291 2770 3770 
Q 2525 4250 2034 4250 
z
M 2034 4750 
Q 2819 4750 3233 4129 
Q 3647 3509 3647 2328 
Q 3647 1150 3233 529 
Q 2819 -91 2034 -91 
Q 1250 -91 836 529 
Q 422 1150 422 2328 
Q 422 3509 836 4129 
Q 1250 4750 2034 4750 
z
" transform="scale(0.015625)"/>
        <path id="DejaVuSans-2e" d="M 684 794 
L 1344 794 
L 1344 0 
L 684 0 
L 684 794 
z
" transform="scale(0.015625)"/>
       </defs>
       <use xlink:href="#DejaVuSans-30"/>
       <use xlink:href="#DejaVuSans-2e" x="63.623047"/>
       <use xlink:href="#DejaVuSans-30" x="95.410156"/>
       <use xlink:href="#DejaVuSans-30" x="159.033203"/>
      </g>
     </g>
    </g>
    <g id="xtick_2">
     <g id="line2d_2">
      <g>
       <use xlink:href="#m9ceb913d26" x="89.716352" y="196.931545" style="stroke: #000000; stroke-width: 0.8"/>
      </g>
     </g>
     <g id="text_2">
      <!-- 0.25 -->
      <g transform="translate(78.583539 211.529982) scale(0.1 -0.1)">
       <defs>
        <path id="DejaVuSans-32" d="M 1228 531 
L 3431 531 
L 3431 0 
L 469 0 
L 469 531 
Q 828 903 1448 1529 
Q 2069 2156 2228 2338 
Q 2531 2678 2651 2914 
Q 2772 3150 2772 3378 
Q 2772 3750 2511 3984 
Q 2250 4219 1831 4219 
Q 1534 4219 1204 4116 
Q 875 4013 500 3803 
L 500 4441 
Q 881 4594 1212 4672 
Q 1544 4750 1819 4750 
Q 2544 4750 2975 4387 
Q 3406 4025 3406 3419 
Q 3406 3131 3298 2873 
Q 3191 2616 2906 2266 
Q 2828 2175 2409 1742 
Q 1991 1309 1228 531 
z
" transform="scale(0.015625)"/>
        <path id="DejaVuSans-35" d="M 691 4666 
L 3169 4666 
L 3169 4134 
L 1269 4134 
L 1269 2991 
Q 1406 3038 1543 3061 
Q 1681 3084 1819 3084 
Q 2600 3084 3056 2656 
Q 3513 2228 3513 1497 
Q 3513 744 3044 326 
Q 2575 -91 1722 -91 
Q 1428 -91 1123 -41 
Q 819 9 494 109 
L 494 744 
Q 775 591 1075 516 
Q 1375 441 1709 441 
Q 2250 441 2565 725 
Q 2881 1009 2881 1497 
Q 2881 1984 2565 2268 
Q 2250 2553 1709 2553 
Q 1456 2553 1204 2497 
Q 953 2441 691 2322 
L 691 4666 
z
" transform="scale(0.015625)"/>
       </defs>
       <use xlink:href="#DejaVuSans-30"/>
       <use xlink:href="#DejaVuSans-2e" x="63.623047"/>
       <use xlink:href="#DejaVuSans-32" x="95.410156"/>
       <use xlink:href="#DejaVuSans-35" x="159.033203"/>
      </g>
     </g>
    </g>
    <g id="xtick_3">
     <g id="line2d_3">
      <g>
       <use xlink:href="#m9ceb913d26" x="124.851995" y="196.931545" style="stroke: #000000; stroke-width: 0.8"/>
      </g>
     </g>
     <g id="text_3">
      <!-- 0.50 -->
      <g transform="translate(113.719183 211.529982) scale(0.1 -0.1)">
       <use xlink:href="#DejaVuSans-30"/>
       <use xlink:href="#DejaVuSans-2e" x="63.623047"/>
       <use xlink:href="#DejaVuSans-35" x="95.410156"/>
       <use xlink:href="#DejaVuSans-30" x="159.033203"/>
      </g>
     </g>
    </g>
    <g id="xtick_4">
     <g id="line2d_4">
      <g>
       <use xlink:href="#m9ceb913d26" x="159.987639" y="196.931545" style="stroke: #000000; stroke-width: 0.8"/>
      </g>
     </g>
     <g id="text_4">
      <!-- 0.75 -->
      <g transform="translate(148.854827 211.529982) scale(0.1 -0.1)">
       <defs>
        <path id="DejaVuSans-37" d="M 525 4666 
L 3525 4666 
L 3525 4397 
L 1831 0 
L 1172 0 
L 2766 4134 
L 525 4134 
L 525 4666 
z
" transform="scale(0.015625)"/>
       </defs>
       <use xlink:href="#DejaVuSans-30"/>
       <use xlink:href="#DejaVuSans-2e" x="63.623047"/>
       <use xlink:href="#DejaVuSans-37" x="95.410156"/>
       <use xlink:href="#DejaVuSans-35" x="159.033203"/>
      </g>
     </g>
    </g>
    <g id="xtick_5">
     <g id="line2d_5">
      <g>
       <use xlink:href="#m9ceb913d26" x="195.123283" y="196.931545" style="stroke: #000000; stroke-width: 0.8"/>
      </g>
     </g>
     <g id="text_5">
      <!-- 1.00 -->
      <g transform="translate(183.99047 211.529982) scale(0.1 -0.1)">
       <defs>
        <path id="DejaVuSans-31" d="M 794 531 
L 1825 531 
L 1825 4091 
L 703 3866 
L 703 4441 
L 1819 4666 
L 2450 4666 
L 2450 531 
L 3481 531 
L 3481 0 
L 794 0 
L 794 531 
z
" transform="scale(0.015625)"/>
       </defs>
       <use xlink:href="#DejaVuSans-31"/>
       <use xlink:href="#DejaVuSans-2e" x="63.623047"/>
       <use xlink:href="#DejaVuSans-30" x="95.410156"/>
       <use xlink:href="#DejaVuSans-30" x="159.033203"/>
      </g>
     </g>
    </g>
   </g>
   <g id="matplotlib.axis_2">
    <g id="ytick_1">
     <g id="line2d_6">
      <defs>
       <path id="m39e935afbb" d="M 0 0 
L -3.5 0 
" style="stroke: #000000; stroke-width: 0.8"/>
      </defs>
      <g>
       <use xlink:href="#m39e935afbb" x="54.580708" y="196.931545" style="stroke: #000000; stroke-width: 0.8"/>
      </g>
     </g>
     <g id="text_6">
      <!-- 0.0 -->
      <g transform="translate(31.677583 200.730764) scale(0.1 -0.1)">
       <use xlink:href="#DejaVuSans-30"/>
       <use xlink:href="#DejaVuSans-2e" x="63.623047"/>
       <use xlink:href="#DejaVuSans-30" x="95.410156"/>
      </g>
     </g>
    </g>
    <g id="ytick_2">
     <g id="line2d_7">
      <g>
       <use xlink:href="#m39e935afbb" x="54.580708" y="160.491537" style="stroke: #000000; stroke-width: 0.8"/>
      </g>
     </g>
     <g id="text_7">
      <!-- 0.2 -->
      <g transform="translate(31.677583 164.290756) scale(0.1 -0.1)">
       <use xlink:href="#DejaVuSans-30"/>
       <use xlink:href="#DejaVuSans-2e" x="63.623047"/>
       <use xlink:href="#DejaVuSans-32" x="95.410156"/>
      </g>
     </g>
    </g>
    <g id="ytick_3">
     <g id="line2d_8">
      <g>
       <use xlink:href="#m39e935afbb" x="54.580708" y="124.05153" style="stroke: #000000; stroke-width: 0.8"/>
      </g>
     </g>
     <g id="text_8">
      <!-- 0.4 -->
      <g transform="translate(31.677583 127.850749) scale(0.1 -0.1)">
       <defs>
        <path id="DejaVuSans-34" d="M 2419 4116 
L 825 1625 
L 2419 1625 
L 2419 4116 
z
M 2253 4666 
L 3047 4666 
L 3047 1625 
L 3713 1625 
L 3713 1100 
L 3047 1100 
L 3047 0 
L 2419 0 
L 2419 1100 
L 313 1100 
L 313 1709 
L 2253 4666 
z
" transform="scale(0.015625)"/>
       </defs>
       <use xlink:href="#DejaVuSans-30"/>
       <use xlink:href="#DejaVuSans-2e" x="63.623047"/>
       <use xlink:href="#DejaVuSans-34" x="95.410156"/>
      </g>
     </g>
    </g>
    <g id="ytick_4">
     <g id="line2d_9">
      <g>
       <use xlink:href="#m39e935afbb" x="54.580708" y="87.611523" style="stroke: #000000; stroke-width: 0.8"/>
      </g>
     </g>
     <g id="text_9">
      <!-- 0.6 -->
      <g transform="translate(31.677583 91.410741) scale(0.1 -0.1)">
       <defs>
        <path id="DejaVuSans-36" d="M 2113 2584 
Q 1688 2584 1439 2293 
Q 1191 2003 1191 1497 
Q 1191 994 1439 701 
Q 1688 409 2113 409 
Q 2538 409 2786 701 
Q 3034 994 3034 1497 
Q 3034 2003 2786 2293 
Q 2538 2584 2113 2584 
z
M 3366 4563 
L 3366 3988 
Q 3128 4100 2886 4159 
Q 2644 4219 2406 4219 
Q 1781 4219 1451 3797 
Q 1122 3375 1075 2522 
Q 1259 2794 1537 2939 
Q 1816 3084 2150 3084 
Q 2853 3084 3261 2657 
Q 3669 2231 3669 1497 
Q 3669 778 3244 343 
Q 2819 -91 2113 -91 
Q 1303 -91 875 529 
Q 447 1150 447 2328 
Q 447 3434 972 4092 
Q 1497 4750 2381 4750 
Q 2619 4750 2861 4703 
Q 3103 4656 3366 4563 
z
" transform="scale(0.015625)"/>
       </defs>
       <use xlink:href="#DejaVuSans-30"/>
       <use xlink:href="#DejaVuSans-2e" x="63.623047"/>
       <use xlink:href="#DejaVuSans-36" x="95.410156"/>
      </g>
     </g>
    </g>
    <g id="ytick_5">
     <g id="line2d_10">
      <g>
       <use xlink:href="#m39e935afbb" x="54.580708" y="51.171515" style="stroke: #000000; stroke-width: 0.8"/>
      </g>
     </g>
     <g id="text_10">
      <!-- 0.8 -->
      <g transform="translate(31.677583 54.970734) scale(0.1 -0.1)">
       <defs>
        <path id="DejaVuSans-38" d="M 2034 2216 
Q 1584 2216 1326 1975 
Q 1069 1734 1069 1313 
Q 1069 891 1326 650 
Q 1584 409 2034 409 
Q 2484 409 2743 651 
Q 3003 894 3003 1313 
Q 3003 1734 2745 1975 
Q 2488 2216 2034 2216 
z
M 1403 2484 
Q 997 2584 770 2862 
Q 544 3141 544 3541 
Q 544 4100 942 4425 
Q 1341 4750 2034 4750 
Q 2731 4750 3128 4425 
Q 3525 4100 3525 3541 
Q 3525 3141 3298 2862 
Q 3072 2584 2669 2484 
Q 3125 2378 3379 2068 
Q 3634 1759 3634 1313 
Q 3634 634 3220 271 
Q 2806 -91 2034 -91 
Q 1263 -91 848 271 
Q 434 634 434 1313 
Q 434 1759 690 2068 
Q 947 2378 1403 2484 
z
M 1172 3481 
Q 1172 3119 1398 2916 
Q 1625 2713 2034 2713 
Q 2441 2713 2670 2916 
Q 2900 3119 2900 3481 
Q 2900 3844 2670 4047 
Q 2441 4250 2034 4250 
Q 1625 4250 1398 4047 
Q 1172 3844 1172 3481 
z
" transform="scale(0.015625)"/>
       </defs>
       <use xlink:href="#DejaVuSans-30"/>
       <use xlink:href="#DejaVuSans-2e" x="63.623047"/>
       <use xlink:href="#DejaVuSans-38" x="95.410156"/>
      </g>
     </g>
    </g>
    <g id="ytick_6">
     <g id="line2d_11">
      <g>
       <use xlink:href="#m39e935afbb" x="54.580708" y="14.731508" style="stroke: #000000; stroke-width: 0.8"/>
      </g>
     </g>
     <g id="text_11">
      <!-- 1.0 -->
      <g transform="translate(31.677583 18.530727) scale(0.1 -0.1)">
       <use xlink:href="#DejaVuSans-31"/>
       <use xlink:href="#DejaVuSans-2e" x="63.623047"/>
       <use xlink:href="#DejaVuSans-30" x="95.410156"/>
      </g>
     </g>
    </g>
   </g>
   <g id="line2d_12">
    <path d="M 54.580708 193.654457 
L 56.00033 193.384018 
L 57.419952 193.09174 
L 58.839574 192.775942 
L 60.259196 192.434827 
L 61.678818 192.066476 
L 63.09844 191.668845 
L 64.518062 191.239758 
L 65.937684 190.776903 
L 67.357306 190.277828 
L 68.776928 189.739936 
L 70.19655 189.160485 
L 71.616172 188.536586 
L 73.035794 187.8652 
L 74.455416 187.143145 
L 75.875038 186.367093 
L 77.294659 185.533581 
L 78.714281 184.639017 
L 80.133903 183.67969 
L 81.553525 182.651789 
L 82.973147 181.551414 
L 84.392769 180.374608 
L 85.812391 179.117373 
L 87.232013 177.775713 
L 88.651635 176.34566 
L 90.071257 174.823324 
L 91.490879 173.204938 
L 92.910501 171.486912 
L 94.330123 169.665888 
L 95.749745 167.738807 
L 97.169367 165.702977 
L 98.588989 163.556143 
L 100.008611 161.296558 
L 101.428233 158.923063 
L 102.847855 156.435161 
L 104.267477 153.833085 
L 105.687099 151.117869 
L 107.106721 148.291408 
L 108.526343 145.356511 
L 109.945965 142.316939 
L 111.365587 139.177434 
L 112.785209 135.943724 
L 114.204831 132.62252 
L 115.624453 129.221485 
L 117.044075 125.749186 
L 118.463697 122.215028 
L 119.883318 118.629162 
L 121.30294 115.002379 
L 122.722562 111.34599 
L 124.142184 107.67168 
L 125.561806 103.991372 
L 126.981428 100.317063 
L 128.40105 96.660673 
L 129.820672 93.033891 
L 131.240294 89.448024 
L 132.659916 85.913866 
L 134.079538 82.441567 
L 135.49916 79.040532 
L 136.918782 75.719328 
L 138.338404 72.485619 
L 139.758026 69.346113 
L 141.177648 66.306542 
L 142.59727 63.371645 
L 144.016892 60.545184 
L 145.436514 57.829968 
L 146.856136 55.227891 
L 148.275758 52.739989 
L 149.69538 50.366495 
L 151.115002 48.10691 
L 152.534624 45.960075 
L 153.954246 43.924246 
L 155.373868 41.997165 
L 156.79349 40.176141 
L 158.213112 38.458114 
L 159.632734 36.839729 
L 161.052355 35.317393 
L 162.471977 33.88734 
L 163.891599 32.545679 
L 165.311221 31.288445 
L 166.730843 30.111638 
L 168.150465 29.011264 
L 169.570087 27.983362 
L 170.989709 27.024036 
L 172.409331 26.129472 
L 173.828953 25.29596 
L 175.248575 24.519908 
L 176.668197 23.797852 
L 178.087819 23.126467 
L 179.507441 22.502568 
L 180.927063 21.923117 
L 182.346685 21.385225 
L 183.766307 20.88615 
L 185.185929 20.423294 
L 186.605551 19.994208 
L 188.025173 19.596577 
L 189.444795 19.228226 
L 190.864417 18.88711 
L 192.284039 18.571312 
L 193.703661 18.279035 
L 195.123283 18.008596 
" clip-path="url(#p26af210960)" style="fill: none; stroke: #000000; stroke-width: 1.5; stroke-linecap: square"/>
   </g>
   <g id="line2d_13">
    <path d="M 124.851995 196.931545 
L 124.851995 105.831526 
" clip-path="url(#p26af210960)" style="fill: none; stroke-dasharray: 1.5,2.475; stroke-dashoffset: 0; stroke: #000000; stroke-width: 1.5"/>
   </g>
   <g id="line2d_14">
    <path d="M 54.580708 105.831526 
L 124.851995 105.831526 
" clip-path="url(#p26af210960)" style="fill: none; stroke-dasharray: 1.5,2.475; stroke-dashoffset: 0; stroke: #000000; stroke-width: 1.5"/>
   </g>
   <g id="patch_3">
    <path d="M 54.580708 196.931545 
L 54.580708 14.731508 
" style="fill: none; stroke: #000000; stroke-width: 0.8; stroke-linejoin: miter; stroke-linecap: square"/>
   </g>
   <g id="patch_4">
    <path d="M 195.123283 196.931545 
L 195.123283 14.731508 
" style="fill: none; stroke: #000000; stroke-width: 0.8; stroke-linejoin: miter; stroke-linecap: square"/>
   </g>
   <g id="patch_5">
    <path d="M 54.580708 196.931545 
L 195.123283 196.931545 
" style="fill: none; stroke: #000000; stroke-width: 0.8; stroke-linejoin: miter; stroke-linecap: square"/>
   </g>
   <g id="patch_6">
    <path d="M 54.580708 14.731508 
L 195.123283 14.731508 
" style="fill: none; stroke: #000000; stroke-width: 0.8; stroke-linejoin: miter; stroke-linecap: square"/>
   </g>
   <g id="text_12">
    <!-- $\kappa &gt; 0$ -->
    <g transform="translate(128.36556 105.831526) scale(0.12 -0.12)">
     <defs>
      <path id="DejaVuSans-Oblique-3ba" d="M 938 3500 
L 1531 3500 
L 1247 2047 
L 3041 3500 
L 3741 3500 
L 2106 2181 
L 3275 0 
L 2572 0 
L 1628 1806 
L 1122 1403 
L 850 0 
L 256 0 
L 938 3500 
z
" transform="scale(0.015625)"/>
      <path id="DejaVuSans-3e" d="M 678 3150 
L 678 3719 
L 4684 2266 
L 4684 1747 
L 678 294 
L 678 863 
L 3897 2003 
L 678 3150 
z
" transform="scale(0.015625)"/>
     </defs>
     <use xlink:href="#DejaVuSans-Oblique-3ba" transform="translate(0 0.78125)"/>
     <use xlink:href="#DejaVuSans-3e" transform="translate(78.417969 0.78125)"/>
     <use xlink:href="#DejaVuSans-30" transform="translate(181.689453 0.78125)"/>
    </g>
   </g>
  </g>
  <g id="axes_2">
   <g id="patch_7">
    <path d="M 239.989204 196.931545 
L 380.531779 196.931545 
L 380.531779 14.731508 
L 239.989204 14.731508 
z
" style="fill: #ffffff"/>
   </g>
   <g id="PolyCollection_3">
    <defs>
     <path id="me1cb40c7d7" d="M 239.989204 -51.468455 
L 239.989204 -230.391404 
L 241.408826 -230.120965 
L 242.828448 -229.828688 
L 244.24807 -229.51289 
L 245.667692 -229.171774 
L 247.087314 -228.803423 
L 248.506936 -228.405792 
L 249.926558 -227.976706 
L 251.34618 -227.51385 
L 252.765802 -227.014775 
L 254.185424 -226.476883 
L 255.605046 -225.897432 
L 257.024668 -225.273533 
L 258.44429 -224.602148 
L 259.863912 -223.880092 
L 261.283534 -223.10404 
L 262.703156 -222.270528 
L 264.122778 -221.375964 
L 265.5424 -220.416638 
L 266.962022 -219.388736 
L 268.381644 -218.288362 
L 269.801266 -217.111555 
L 271.220888 -215.854321 
L 272.64051 -214.51266 
L 274.060132 -213.082607 
L 275.479754 -211.560271 
L 276.899375 -209.941886 
L 278.318997 -208.223859 
L 279.738619 -206.402835 
L 281.158241 -204.475754 
L 282.577863 -202.439925 
L 283.997485 -200.29309 
L 285.417107 -198.033505 
L 286.836729 -195.660011 
L 288.256351 -193.172109 
L 289.675973 -190.570032 
L 291.095595 -187.854816 
L 292.515217 -185.028355 
L 293.934839 -182.093458 
L 295.354461 -179.053887 
L 296.774083 -175.914381 
L 298.193705 -172.680672 
L 299.613327 -169.359468 
L 301.032949 -165.958433 
L 302.452571 -162.486134 
L 303.872193 -158.951976 
L 305.291815 -155.366109 
L 306.711437 -151.739327 
L 308.131059 -148.082937 
L 309.550681 -144.408628 
L 310.970303 -140.72832 
L 312.389925 -137.05401 
L 313.809547 -133.397621 
L 315.229169 -129.770838 
L 316.648791 -126.184972 
L 318.068412 -122.650814 
L 319.488034 -119.178515 
L 320.907656 -115.77748 
L 322.327278 -112.456276 
L 323.7469 -109.222566 
L 325.166522 -106.083061 
L 326.586144 -103.043489 
L 328.005766 -100.108592 
L 329.425388 -97.282131 
L 330.84501 -94.566915 
L 332.264632 -91.964839 
L 333.684254 -89.476937 
L 335.103876 -87.103442 
L 336.523498 -84.843857 
L 337.94312 -82.697023 
L 339.362742 -80.661193 
L 340.782364 -78.734112 
L 342.201986 -76.913088 
L 343.621608 -75.195062 
L 345.04123 -73.576676 
L 346.460852 -72.05434 
L 347.880474 -70.624287 
L 349.300096 -69.282627 
L 350.719718 -68.025392 
L 352.13934 -66.848586 
L 353.558962 -65.748211 
L 354.978584 -64.72031 
L 356.398206 -63.760983 
L 357.817828 -62.866419 
L 359.23745 -62.032907 
L 360.657071 -61.256855 
L 362.076693 -60.5348 
L 363.496315 -59.863414 
L 364.915937 -59.239515 
L 366.335559 -58.660064 
L 367.755181 -58.122172 
L 369.174803 -57.623097 
L 370.594425 -57.160242 
L 372.014047 -56.731155 
L 373.433669 -56.333524 
L 374.853291 -55.965173 
L 376.272913 -55.624058 
L 377.692535 -55.30826 
L 379.112157 -55.015982 
L 380.531779 -54.745543 
L 380.531779 -51.468455 
L 380.531779 -51.468455 
L 379.112157 -51.468455 
L 377.692535 -51.468455 
L 376.272913 -51.468455 
L 374.853291 -51.468455 
L 373.433669 -51.468455 
L 372.014047 -51.468455 
L 370.594425 -51.468455 
L 369.174803 -51.468455 
L 367.755181 -51.468455 
L 366.335559 -51.468455 
L 364.915937 -51.468455 
L 363.496315 -51.468455 
L 362.076693 -51.468455 
L 360.657071 -51.468455 
L 359.23745 -51.468455 
L 357.817828 -51.468455 
L 356.398206 -51.468455 
L 354.978584 -51.468455 
L 353.558962 -51.468455 
L 352.13934 -51.468455 
L 350.719718 -51.468455 
L 349.300096 -51.468455 
L 347.880474 -51.468455 
L 346.460852 -51.468455 
L 345.04123 -51.468455 
L 343.621608 -51.468455 
L 342.201986 -51.468455 
L 340.782364 -51.468455 
L 339.362742 -51.468455 
L 337.94312 -51.468455 
L 336.523498 -51.468455 
L 335.103876 -51.468455 
L 333.684254 -51.468455 
L 332.264632 -51.468455 
L 330.84501 -51.468455 
L 329.425388 -51.468455 
L 328.005766 -51.468455 
L 326.586144 -51.468455 
L 325.166522 -51.468455 
L 323.7469 -51.468455 
L 322.327278 -51.468455 
L 320.907656 -51.468455 
L 319.488034 -51.468455 
L 318.068412 -51.468455 
L 316.648791 -51.468455 
L 315.229169 -51.468455 
L 313.809547 -51.468455 
L 312.389925 -51.468455 
L 310.970303 -51.468455 
L 309.550681 -51.468455 
L 308.131059 -51.468455 
L 306.711437 -51.468455 
L 305.291815 -51.468455 
L 303.872193 -51.468455 
L 302.452571 -51.468455 
L 301.032949 -51.468455 
L 299.613327 -51.468455 
L 298.193705 -51.468455 
L 296.774083 -51.468455 
L 295.354461 -51.468455 
L 293.934839 -51.468455 
L 292.515217 -51.468455 
L 291.095595 -51.468455 
L 289.675973 -51.468455 
L 288.256351 -51.468455 
L 286.836729 -51.468455 
L 285.417107 -51.468455 
L 283.997485 -51.468455 
L 282.577863 -51.468455 
L 281.158241 -51.468455 
L 279.738619 -51.468455 
L 278.318997 -51.468455 
L 276.899375 -51.468455 
L 275.479754 -51.468455 
L 274.060132 -51.468455 
L 272.64051 -51.468455 
L 271.220888 -51.468455 
L 269.801266 -51.468455 
L 268.381644 -51.468455 
L 266.962022 -51.468455 
L 265.5424 -51.468455 
L 264.122778 -51.468455 
L 262.703156 -51.468455 
L 261.283534 -51.468455 
L 259.863912 -51.468455 
L 258.44429 -51.468455 
L 257.024668 -51.468455 
L 255.605046 -51.468455 
L 254.185424 -51.468455 
L 252.765802 -51.468455 
L 251.34618 -51.468455 
L 249.926558 -51.468455 
L 248.506936 -51.468455 
L 247.087314 -51.468455 
L 245.667692 -51.468455 
L 244.24807 -51.468455 
L 242.828448 -51.468455 
L 241.408826 -51.468455 
L 239.989204 -51.468455 
z
" style="stroke: #ff0000; stroke-opacity: 0.5"/>
    </defs>
    <g clip-path="url(#p5e06555f0f)">
     <use xlink:href="#me1cb40c7d7" x="0" y="248.4" style="fill: #ff0000; fill-opacity: 0.5; stroke: #ff0000; stroke-opacity: 0.5"/>
    </g>
   </g>
   <g id="PolyCollection_4">
    <defs>
     <path id="mb14060a8be" d="M 239.989204 -233.668492 
L 239.989204 -230.391404 
L 241.408826 -230.120965 
L 242.828448 -229.828688 
L 244.24807 -229.51289 
L 245.667692 -229.171774 
L 247.087314 -228.803423 
L 248.506936 -228.405792 
L 249.926558 -227.976706 
L 251.34618 -227.51385 
L 252.765802 -227.014775 
L 254.185424 -226.476883 
L 255.605046 -225.897432 
L 257.024668 -225.273533 
L 258.44429 -224.602148 
L 259.863912 -223.880092 
L 261.283534 -223.10404 
L 262.703156 -222.270528 
L 264.122778 -221.375964 
L 265.5424 -220.416638 
L 266.962022 -219.388736 
L 268.381644 -218.288362 
L 269.801266 -217.111555 
L 271.220888 -215.854321 
L 272.64051 -214.51266 
L 274.060132 -213.082607 
L 275.479754 -211.560271 
L 276.899375 -209.941886 
L 278.318997 -208.223859 
L 279.738619 -206.402835 
L 281.158241 -204.475754 
L 282.577863 -202.439925 
L 283.997485 -200.29309 
L 285.417107 -198.033505 
L 286.836729 -195.660011 
L 288.256351 -193.172109 
L 289.675973 -190.570032 
L 291.095595 -187.854816 
L 292.515217 -185.028355 
L 293.934839 -182.093458 
L 295.354461 -179.053887 
L 296.774083 -175.914381 
L 298.193705 -172.680672 
L 299.613327 -169.359468 
L 301.032949 -165.958433 
L 302.452571 -162.486134 
L 303.872193 -158.951976 
L 305.291815 -155.366109 
L 306.711437 -151.739327 
L 308.131059 -148.082937 
L 309.550681 -144.408628 
L 310.970303 -140.72832 
L 312.389925 -137.05401 
L 313.809547 -133.397621 
L 315.229169 -129.770838 
L 316.648791 -126.184972 
L 318.068412 -122.650814 
L 319.488034 -119.178515 
L 320.907656 -115.77748 
L 322.327278 -112.456276 
L 323.7469 -109.222566 
L 325.166522 -106.083061 
L 326.586144 -103.043489 
L 328.005766 -100.108592 
L 329.425388 -97.282131 
L 330.84501 -94.566915 
L 332.264632 -91.964839 
L 333.684254 -89.476937 
L 335.103876 -87.103442 
L 336.523498 -84.843857 
L 337.94312 -82.697023 
L 339.362742 -80.661193 
L 340.782364 -78.734112 
L 342.201986 -76.913088 
L 343.621608 -75.195062 
L 345.04123 -73.576676 
L 346.460852 -72.05434 
L 347.880474 -70.624287 
L 349.300096 -69.282627 
L 350.719718 -68.025392 
L 352.13934 -66.848586 
L 353.558962 -65.748211 
L 354.978584 -64.72031 
L 356.398206 -63.760983 
L 357.817828 -62.866419 
L 359.23745 -62.032907 
L 360.657071 -61.256855 
L 362.076693 -60.5348 
L 363.496315 -59.863414 
L 364.915937 -59.239515 
L 366.335559 -58.660064 
L 367.755181 -58.122172 
L 369.174803 -57.623097 
L 370.594425 -57.160242 
L 372.014047 -56.731155 
L 373.433669 -56.333524 
L 374.853291 -55.965173 
L 376.272913 -55.624058 
L 377.692535 -55.30826 
L 379.112157 -55.015982 
L 380.531779 -54.745543 
L 380.531779 -233.668492 
L 380.531779 -233.668492 
L 379.112157 -233.668492 
L 377.692535 -233.668492 
L 376.272913 -233.668492 
L 374.853291 -233.668492 
L 373.433669 -233.668492 
L 372.014047 -233.668492 
L 370.594425 -233.668492 
L 369.174803 -233.668492 
L 367.755181 -233.668492 
L 366.335559 -233.668492 
L 364.915937 -233.668492 
L 363.496315 -233.668492 
L 362.076693 -233.668492 
L 360.657071 -233.668492 
L 359.23745 -233.668492 
L 357.817828 -233.668492 
L 356.398206 -233.668492 
L 354.978584 -233.668492 
L 353.558962 -233.668492 
L 352.13934 -233.668492 
L 350.719718 -233.668492 
L 349.300096 -233.668492 
L 347.880474 -233.668492 
L 346.460852 -233.668492 
L 345.04123 -233.668492 
L 343.621608 -233.668492 
L 342.201986 -233.668492 
L 340.782364 -233.668492 
L 339.362742 -233.668492 
L 337.94312 -233.668492 
L 336.523498 -233.668492 
L 335.103876 -233.668492 
L 333.684254 -233.668492 
L 332.264632 -233.668492 
L 330.84501 -233.668492 
L 329.425388 -233.668492 
L 328.005766 -233.668492 
L 326.586144 -233.668492 
L 325.166522 -233.668492 
L 323.7469 -233.668492 
L 322.327278 -233.668492 
L 320.907656 -233.668492 
L 319.488034 -233.668492 
L 318.068412 -233.668492 
L 316.648791 -233.668492 
L 315.229169 -233.668492 
L 313.809547 -233.668492 
L 312.389925 -233.668492 
L 310.970303 -233.668492 
L 309.550681 -233.668492 
L 308.131059 -233.668492 
L 306.711437 -233.668492 
L 305.291815 -233.668492 
L 303.872193 -233.668492 
L 302.452571 -233.668492 
L 301.032949 -233.668492 
L 299.613327 -233.668492 
L 298.193705 -233.668492 
L 296.774083 -233.668492 
L 295.354461 -233.668492 
L 293.934839 -233.668492 
L 292.515217 -233.668492 
L 291.095595 -233.668492 
L 289.675973 -233.668492 
L 288.256351 -233.668492 
L 286.836729 -233.668492 
L 285.417107 -233.668492 
L 283.997485 -233.668492 
L 282.577863 -233.668492 
L 281.158241 -233.668492 
L 279.738619 -233.668492 
L 278.318997 -233.668492 
L 276.899375 -233.668492 
L 275.479754 -233.668492 
L 274.060132 -233.668492 
L 272.64051 -233.668492 
L 271.220888 -233.668492 
L 269.801266 -233.668492 
L 268.381644 -233.668492 
L 266.962022 -233.668492 
L 265.5424 -233.668492 
L 264.122778 -233.668492 
L 262.703156 -233.668492 
L 261.283534 -233.668492 
L 259.863912 -233.668492 
L 258.44429 -233.668492 
L 257.024668 -233.668492 
L 255.605046 -233.668492 
L 254.185424 -233.668492 
L 252.765802 -233.668492 
L 251.34618 -233.668492 
L 249.926558 -233.668492 
L 248.506936 -233.668492 
L 247.087314 -233.668492 
L 245.667692 -233.668492 
L 244.24807 -233.668492 
L 242.828448 -233.668492 
L 241.408826 -233.668492 
L 239.989204 -233.668492 
z
" style="stroke: #0000ff; stroke-opacity: 0.5"/>
    </defs>
    <g clip-path="url(#p5e06555f0f)">
     <use xlink:href="#mb14060a8be" x="0" y="248.4" style="fill: #0000ff; fill-opacity: 0.5; stroke: #0000ff; stroke-opacity: 0.5"/>
    </g>
   </g>
   <g id="matplotlib.axis_3">
    <g id="xtick_6">
     <g id="line2d_15">
      <g>
       <use xlink:href="#m9ceb913d26" x="239.989204" y="196.931545" style="stroke: #000000; stroke-width: 0.8"/>
      </g>
     </g>
     <g id="text_13">
      <!-- 0.00 -->
      <g transform="translate(228.856392 211.529982) scale(0.1 -0.1)">
       <use xlink:href="#DejaVuSans-30"/>
       <use xlink:href="#DejaVuSans-2e" x="63.623047"/>
       <use xlink:href="#DejaVuSans-30" x="95.410156"/>
       <use xlink:href="#DejaVuSans-30" x="159.033203"/>
      </g>
     </g>
    </g>
    <g id="xtick_7">
     <g id="line2d_16">
      <g>
       <use xlink:href="#m9ceb913d26" x="275.124848" y="196.931545" style="stroke: #000000; stroke-width: 0.8"/>
      </g>
     </g>
     <g id="text_14">
      <!-- 0.25 -->
      <g transform="translate(263.992036 211.529982) scale(0.1 -0.1)">
       <use xlink:href="#DejaVuSans-30"/>
       <use xlink:href="#DejaVuSans-2e" x="63.623047"/>
       <use xlink:href="#DejaVuSans-32" x="95.410156"/>
       <use xlink:href="#DejaVuSans-35" x="159.033203"/>
      </g>
     </g>
    </g>
    <g id="xtick_8">
     <g id="line2d_17">
      <g>
       <use xlink:href="#m9ceb913d26" x="310.260492" y="196.931545" style="stroke: #000000; stroke-width: 0.8"/>
      </g>
     </g>
     <g id="text_15">
      <!-- 0.50 -->
      <g transform="translate(299.127679 211.529982) scale(0.1 -0.1)">
       <use xlink:href="#DejaVuSans-30"/>
       <use xlink:href="#DejaVuSans-2e" x="63.623047"/>
       <use xlink:href="#DejaVuSans-35" x="95.410156"/>
       <use xlink:href="#DejaVuSans-30" x="159.033203"/>
      </g>
     </g>
    </g>
    <g id="xtick_9">
     <g id="line2d_18">
      <g>
       <use xlink:href="#m9ceb913d26" x="345.396135" y="196.931545" style="stroke: #000000; stroke-width: 0.8"/>
      </g>
     </g>
     <g id="text_16">
      <!-- 0.75 -->
      <g transform="translate(334.263323 211.529982) scale(0.1 -0.1)">
       <use xlink:href="#DejaVuSans-30"/>
       <use xlink:href="#DejaVuSans-2e" x="63.623047"/>
       <use xlink:href="#DejaVuSans-37" x="95.410156"/>
       <use xlink:href="#DejaVuSans-35" x="159.033203"/>
      </g>
     </g>
    </g>
    <g id="xtick_10">
     <g id="line2d_19">
      <g>
       <use xlink:href="#m9ceb913d26" x="380.531779" y="196.931545" style="stroke: #000000; stroke-width: 0.8"/>
      </g>
     </g>
     <g id="text_17">
      <!-- 1.00 -->
      <g transform="translate(369.398967 211.529982) scale(0.1 -0.1)">
       <use xlink:href="#DejaVuSans-31"/>
       <use xlink:href="#DejaVuSans-2e" x="63.623047"/>
       <use xlink:href="#DejaVuSans-30" x="95.410156"/>
       <use xlink:href="#DejaVuSans-30" x="159.033203"/>
      </g>
     </g>
    </g>
   </g>
   <g id="matplotlib.axis_4">
    <g id="ytick_7">
     <g id="line2d_20">
      <g>
       <use xlink:href="#m39e935afbb" x="239.989204" y="196.931545" style="stroke: #000000; stroke-width: 0.8"/>
      </g>
     </g>
     <g id="text_18">
      <!-- 0.0 -->
      <g transform="translate(217.086079 200.730764) scale(0.1 -0.1)">
       <use xlink:href="#DejaVuSans-30"/>
       <use xlink:href="#DejaVuSans-2e" x="63.623047"/>
       <use xlink:href="#DejaVuSans-30" x="95.410156"/>
      </g>
     </g>
    </g>
    <g id="ytick_8">
     <g id="line2d_21">
      <g>
       <use xlink:href="#m39e935afbb" x="239.989204" y="160.491537" style="stroke: #000000; stroke-width: 0.8"/>
      </g>
     </g>
     <g id="text_19">
      <!-- 0.2 -->
      <g transform="translate(217.086079 164.290756) scale(0.1 -0.1)">
       <use xlink:href="#DejaVuSans-30"/>
       <use xlink:href="#DejaVuSans-2e" x="63.623047"/>
       <use xlink:href="#DejaVuSans-32" x="95.410156"/>
      </g>
     </g>
    </g>
    <g id="ytick_9">
     <g id="line2d_22">
      <g>
       <use xlink:href="#m39e935afbb" x="239.989204" y="124.05153" style="stroke: #000000; stroke-width: 0.8"/>
      </g>
     </g>
     <g id="text_20">
      <!-- 0.4 -->
      <g transform="translate(217.086079 127.850749) scale(0.1 -0.1)">
       <use xlink:href="#DejaVuSans-30"/>
       <use xlink:href="#DejaVuSans-2e" x="63.623047"/>
       <use xlink:href="#DejaVuSans-34" x="95.410156"/>
      </g>
     </g>
    </g>
    <g id="ytick_10">
     <g id="line2d_23">
      <g>
       <use xlink:href="#m39e935afbb" x="239.989204" y="87.611523" style="stroke: #000000; stroke-width: 0.8"/>
      </g>
     </g>
     <g id="text_21">
      <!-- 0.6 -->
      <g transform="translate(217.086079 91.410741) scale(0.1 -0.1)">
       <use xlink:href="#DejaVuSans-30"/>
       <use xlink:href="#DejaVuSans-2e" x="63.623047"/>
       <use xlink:href="#DejaVuSans-36" x="95.410156"/>
      </g>
     </g>
    </g>
    <g id="ytick_11">
     <g id="line2d_24">
      <g>
       <use xlink:href="#m39e935afbb" x="239.989204" y="51.171515" style="stroke: #000000; stroke-width: 0.8"/>
      </g>
     </g>
     <g id="text_22">
      <!-- 0.8 -->
      <g transform="translate(217.086079 54.970734) scale(0.1 -0.1)">
       <use xlink:href="#DejaVuSans-30"/>
       <use xlink:href="#DejaVuSans-2e" x="63.623047"/>
       <use xlink:href="#DejaVuSans-38" x="95.410156"/>
      </g>
     </g>
    </g>
    <g id="ytick_12">
     <g id="line2d_25">
      <g>
       <use xlink:href="#m39e935afbb" x="239.989204" y="14.731508" style="stroke: #000000; stroke-width: 0.8"/>
      </g>
     </g>
     <g id="text_23">
      <!-- 1.0 -->
      <g transform="translate(217.086079 18.530727) scale(0.1 -0.1)">
       <use xlink:href="#DejaVuSans-31"/>
       <use xlink:href="#DejaVuSans-2e" x="63.623047"/>
       <use xlink:href="#DejaVuSans-30" x="95.410156"/>
      </g>
     </g>
    </g>
   </g>
   <g id="line2d_26">
    <path d="M 239.989204 18.008596 
L 241.408826 18.279035 
L 242.828448 18.571312 
L 244.24807 18.88711 
L 245.667692 19.228226 
L 247.087314 19.596577 
L 248.506936 19.994208 
L 249.926558 20.423294 
L 251.34618 20.88615 
L 252.765802 21.385225 
L 254.185424 21.923117 
L 255.605046 22.502568 
L 257.024668 23.126467 
L 258.44429 23.797852 
L 259.863912 24.519908 
L 261.283534 25.29596 
L 262.703156 26.129472 
L 264.122778 27.024036 
L 265.5424 27.983362 
L 266.962022 29.011264 
L 268.381644 30.111638 
L 269.801266 31.288445 
L 271.220888 32.545679 
L 272.64051 33.88734 
L 274.060132 35.317393 
L 275.479754 36.839729 
L 276.899375 38.458114 
L 278.318997 40.176141 
L 279.738619 41.997165 
L 281.158241 43.924246 
L 282.577863 45.960075 
L 283.997485 48.10691 
L 285.417107 50.366495 
L 286.836729 52.739989 
L 288.256351 55.227891 
L 289.675973 57.829968 
L 291.095595 60.545184 
L 292.515217 63.371645 
L 293.934839 66.306542 
L 295.354461 69.346113 
L 296.774083 72.485619 
L 298.193705 75.719328 
L 299.613327 79.040532 
L 301.032949 82.441567 
L 302.452571 85.913866 
L 303.872193 89.448024 
L 305.291815 93.033891 
L 306.711437 96.660673 
L 308.131059 100.317063 
L 309.550681 103.991372 
L 310.970303 107.67168 
L 312.389925 111.34599 
L 313.809547 115.002379 
L 315.229169 118.629162 
L 316.648791 122.215028 
L 318.068412 125.749186 
L 319.488034 129.221485 
L 320.907656 132.62252 
L 322.327278 135.943724 
L 323.7469 139.177434 
L 325.166522 142.316939 
L 326.586144 145.356511 
L 328.005766 148.291408 
L 329.425388 151.117869 
L 330.84501 153.833085 
L 332.264632 156.435161 
L 333.684254 158.923063 
L 335.103876 161.296558 
L 336.523498 163.556143 
L 337.94312 165.702977 
L 339.362742 167.738807 
L 340.782364 169.665888 
L 342.201986 171.486912 
L 343.621608 173.204938 
L 345.04123 174.823324 
L 346.460852 176.34566 
L 347.880474 177.775713 
L 349.300096 179.117373 
L 350.719718 180.374608 
L 352.13934 181.551414 
L 353.558962 182.651789 
L 354.978584 183.67969 
L 356.398206 184.639017 
L 357.817828 185.533581 
L 359.23745 186.367093 
L 360.657071 187.143145 
L 362.076693 187.8652 
L 363.496315 188.536586 
L 364.915937 189.160485 
L 366.335559 189.739936 
L 367.755181 190.277828 
L 369.174803 190.776903 
L 370.594425 191.239758 
L 372.014047 191.668845 
L 373.433669 192.066476 
L 374.853291 192.434827 
L 376.272913 192.775942 
L 377.692535 193.09174 
L 379.112157 193.384018 
L 380.531779 193.654457 
" clip-path="url(#p5e06555f0f)" style="fill: none; stroke: #000000; stroke-width: 1.5; stroke-linecap: square"/>
   </g>
   <g id="line2d_27">
    <path d="M 310.260492 196.931545 
L 310.260492 105.831526 
" clip-path="url(#p5e06555f0f)" style="fill: none; stroke-dasharray: 1.5,2.475; stroke-dashoffset: 0; stroke: #000000; stroke-width: 1.5"/>
   </g>
   <g id="line2d_28">
    <path d="M 239.989204 105.831526 
L 310.260492 105.831526 
" clip-path="url(#p5e06555f0f)" style="fill: none; stroke-dasharray: 1.5,2.475; stroke-dashoffset: 0; stroke: #000000; stroke-width: 1.5"/>
   </g>
   <g id="patch_8">
    <path d="M 239.989204 196.931545 
L 239.989204 14.731508 
" style="fill: none; stroke: #000000; stroke-width: 0.8; stroke-linejoin: miter; stroke-linecap: square"/>
   </g>
   <g id="patch_9">
    <path d="M 380.531779 196.931545 
L 380.531779 14.731508 
" style="fill: none; stroke: #000000; stroke-width: 0.8; stroke-linejoin: miter; stroke-linecap: square"/>
   </g>
   <g id="patch_10">
    <path d="M 239.989204 196.931545 
L 380.531779 196.931545 
" style="fill: none; stroke: #000000; stroke-width: 0.8; stroke-linejoin: miter; stroke-linecap: square"/>
   </g>
   <g id="patch_11">
    <path d="M 239.989204 14.731508 
L 380.531779 14.731508 
" style="fill: none; stroke: #000000; stroke-width: 0.8; stroke-linejoin: miter; stroke-linecap: square"/>
   </g>
   <g id="text_24">
    <!-- $\kappa &lt; 0$ -->
    <g transform="translate(313.774056 105.831526) scale(0.12 -0.12)">
     <defs>
      <path id="DejaVuSans-3c" d="M 4684 3150 
L 1459 2003 
L 4684 863 
L 4684 294 
L 678 1747 
L 678 2266 
L 4684 3719 
L 4684 3150 
z
" transform="scale(0.015625)"/>
     </defs>
     <use xlink:href="#DejaVuSans-Oblique-3ba" transform="translate(0 0.78125)"/>
     <use xlink:href="#DejaVuSans-3c" transform="translate(78.417969 0.78125)"/>
     <use xlink:href="#DejaVuSans-30" transform="translate(181.689453 0.78125)"/>
    </g>
   </g>
  </g>
  <g id="text_25">
   <!-- Local density $\rho_{\mathcal{N}}$ -->
   <g transform="translate(159.99 243.816) scale(0.1 -0.1)">
    <defs>
     <path id="DejaVuSans-4c" d="M 628 4666 
L 1259 4666 
L 1259 531 
L 3531 531 
L 3531 0 
L 628 0 
L 628 4666 
z
" transform="scale(0.015625)"/>
     <path id="DejaVuSans-6f" d="M 1959 3097 
Q 1497 3097 1228 2736 
Q 959 2375 959 1747 
Q 959 1119 1226 758 
Q 1494 397 1959 397 
Q 2419 397 2687 759 
Q 2956 1122 2956 1747 
Q 2956 2369 2687 2733 
Q 2419 3097 1959 3097 
z
M 1959 3584 
Q 2709 3584 3137 3096 
Q 3566 2609 3566 1747 
Q 3566 888 3137 398 
Q 2709 -91 1959 -91 
Q 1206 -91 779 398 
Q 353 888 353 1747 
Q 353 2609 779 3096 
Q 1206 3584 1959 3584 
z
" transform="scale(0.015625)"/>
     <path id="DejaVuSans-63" d="M 3122 3366 
L 3122 2828 
Q 2878 2963 2633 3030 
Q 2388 3097 2138 3097 
Q 1578 3097 1268 2742 
Q 959 2388 959 1747 
Q 959 1106 1268 751 
Q 1578 397 2138 397 
Q 2388 397 2633 464 
Q 2878 531 3122 666 
L 3122 134 
Q 2881 22 2623 -34 
Q 2366 -91 2075 -91 
Q 1284 -91 818 406 
Q 353 903 353 1747 
Q 353 2603 823 3093 
Q 1294 3584 2113 3584 
Q 2378 3584 2631 3529 
Q 2884 3475 3122 3366 
z
" transform="scale(0.015625)"/>
     <path id="DejaVuSans-61" d="M 2194 1759 
Q 1497 1759 1228 1600 
Q 959 1441 959 1056 
Q 959 750 1161 570 
Q 1363 391 1709 391 
Q 2188 391 2477 730 
Q 2766 1069 2766 1631 
L 2766 1759 
L 2194 1759 
z
M 3341 1997 
L 3341 0 
L 2766 0 
L 2766 531 
Q 2569 213 2275 61 
Q 1981 -91 1556 -91 
Q 1019 -91 701 211 
Q 384 513 384 1019 
Q 384 1609 779 1909 
Q 1175 2209 1959 2209 
L 2766 2209 
L 2766 2266 
Q 2766 2663 2505 2880 
Q 2244 3097 1772 3097 
Q 1472 3097 1187 3025 
Q 903 2953 641 2809 
L 641 3341 
Q 956 3463 1253 3523 
Q 1550 3584 1831 3584 
Q 2591 3584 2966 3190 
Q 3341 2797 3341 1997 
z
" transform="scale(0.015625)"/>
     <path id="DejaVuSans-6c" d="M 603 4863 
L 1178 4863 
L 1178 0 
L 603 0 
L 603 4863 
z
" transform="scale(0.015625)"/>
     <path id="DejaVuSans-20" transform="scale(0.015625)"/>
     <path id="DejaVuSans-64" d="M 2906 2969 
L 2906 4863 
L 3481 4863 
L 3481 0 
L 2906 0 
L 2906 525 
Q 2725 213 2448 61 
Q 2172 -91 1784 -91 
Q 1150 -91 751 415 
Q 353 922 353 1747 
Q 353 2572 751 3078 
Q 1150 3584 1784 3584 
Q 2172 3584 2448 3432 
Q 2725 3281 2906 2969 
z
M 947 1747 
Q 947 1113 1208 752 
Q 1469 391 1925 391 
Q 2381 391 2643 752 
Q 2906 1113 2906 1747 
Q 2906 2381 2643 2742 
Q 2381 3103 1925 3103 
Q 1469 3103 1208 2742 
Q 947 2381 947 1747 
z
" transform="scale(0.015625)"/>
     <path id="DejaVuSans-65" d="M 3597 1894 
L 3597 1613 
L 953 1613 
Q 991 1019 1311 708 
Q 1631 397 2203 397 
Q 2534 397 2845 478 
Q 3156 559 3463 722 
L 3463 178 
Q 3153 47 2828 -22 
Q 2503 -91 2169 -91 
Q 1331 -91 842 396 
Q 353 884 353 1716 
Q 353 2575 817 3079 
Q 1281 3584 2069 3584 
Q 2775 3584 3186 3129 
Q 3597 2675 3597 1894 
z
M 3022 2063 
Q 3016 2534 2758 2815 
Q 2500 3097 2075 3097 
Q 1594 3097 1305 2825 
Q 1016 2553 972 2059 
L 3022 2063 
z
" transform="scale(0.015625)"/>
     <path id="DejaVuSans-6e" d="M 3513 2113 
L 3513 0 
L 2938 0 
L 2938 2094 
Q 2938 2591 2744 2837 
Q 2550 3084 2163 3084 
Q 1697 3084 1428 2787 
Q 1159 2491 1159 1978 
L 1159 0 
L 581 0 
L 581 3500 
L 1159 3500 
L 1159 2956 
Q 1366 3272 1645 3428 
Q 1925 3584 2291 3584 
Q 2894 3584 3203 3211 
Q 3513 2838 3513 2113 
z
" transform="scale(0.015625)"/>
     <path id="DejaVuSans-73" d="M 2834 3397 
L 2834 2853 
Q 2591 2978 2328 3040 
Q 2066 3103 1784 3103 
Q 1356 3103 1142 2972 
Q 928 2841 928 2578 
Q 928 2378 1081 2264 
Q 1234 2150 1697 2047 
L 1894 2003 
Q 2506 1872 2764 1633 
Q 3022 1394 3022 966 
Q 3022 478 2636 193 
Q 2250 -91 1575 -91 
Q 1294 -91 989 -36 
Q 684 19 347 128 
L 347 722 
Q 666 556 975 473 
Q 1284 391 1588 391 
Q 1994 391 2212 530 
Q 2431 669 2431 922 
Q 2431 1156 2273 1281 
Q 2116 1406 1581 1522 
L 1381 1569 
Q 847 1681 609 1914 
Q 372 2147 372 2553 
Q 372 3047 722 3315 
Q 1072 3584 1716 3584 
Q 2034 3584 2315 3537 
Q 2597 3491 2834 3397 
z
" transform="scale(0.015625)"/>
     <path id="DejaVuSans-69" d="M 603 3500 
L 1178 3500 
L 1178 0 
L 603 0 
L 603 3500 
z
M 603 4863 
L 1178 4863 
L 1178 4134 
L 603 4134 
L 603 4863 
z
" transform="scale(0.015625)"/>
     <path id="DejaVuSans-74" d="M 1172 4494 
L 1172 3500 
L 2356 3500 
L 2356 3053 
L 1172 3053 
L 1172 1153 
Q 1172 725 1289 603 
Q 1406 481 1766 481 
L 2356 481 
L 2356 0 
L 1766 0 
Q 1100 0 847 248 
Q 594 497 594 1153 
L 594 3053 
L 172 3053 
L 172 3500 
L 594 3500 
L 594 4494 
L 1172 4494 
z
" transform="scale(0.015625)"/>
     <path id="DejaVuSans-79" d="M 2059 -325 
Q 1816 -950 1584 -1140 
Q 1353 -1331 966 -1331 
L 506 -1331 
L 506 -850 
L 844 -850 
Q 1081 -850 1212 -737 
Q 1344 -625 1503 -206 
L 1606 56 
L 191 3500 
L 800 3500 
L 1894 763 
L 2988 3500 
L 3597 3500 
L 2059 -325 
z
" transform="scale(0.015625)"/>
     <path id="DejaVuSans-Oblique-3c1" d="M 1203 2875 
Q 1453 3194 1981 3475 
Q 2188 3584 2756 3584 
Q 3394 3584 3694 3078 
Q 3994 2572 3834 1747 
Q 3672 922 3175 415 
Q 2678 -91 2041 -91 
Q 1656 -91 1409 63 
Q 1163 213 1044 525 
L 681 -1331 
L 103 -1331 
L 697 1716 
Q 838 2438 1203 2875 
z
M 3238 1747 
Q 3359 2381 3169 2744 
Q 2978 3103 2522 3103 
Q 2066 3103 1734 2744 
Q 1403 2381 1281 1747 
Q 1156 1113 1347 750 
Q 1538 391 1994 391 
Q 2450 391 2781 750 
Q 3113 1113 3238 1747 
z
" transform="scale(0.015625)"/>
     <path id="STIXNonUnicode-Italic-e23a" d="M 4294 800 
L 4301 800 
Q 5293 4070 5408 4378 
Q 5472 4538 5523 4614 
Q 5830 5088 6253 5088 
Q 6490 5088 6650 4931 
Q 6810 4774 6810 4550 
Q 6810 4378 6720 4272 
Q 6630 4166 6470 4166 
Q 6368 4166 6297 4224 
Q 6227 4282 6198 4349 
Q 6170 4416 6118 4473 
Q 6067 4531 6003 4531 
Q 5939 4531 5881 4508 
Q 5824 4486 5785 4457 
Q 5747 4429 5705 4371 
Q 5664 4314 5638 4275 
Q 5613 4237 5584 4163 
Q 5555 4090 5545 4058 
Q 5536 4026 5510 3952 
Q 5485 3878 5485 3866 
L 4262 -154 
L 4134 -154 
Q 3078 1280 2483 2893 
L 2470 2893 
Q 2406 2579 2358 2361 
Q 2310 2144 2214 1792 
Q 2118 1440 2028 1190 
Q 1939 941 1804 653 
Q 1670 365 1529 185 
Q 1389 6 1203 -115 
Q 1018 -237 813 -237 
Q 576 -237 416 -80 
Q 256 77 256 301 
Q 256 474 345 579 
Q 435 685 595 685 
Q 698 685 768 627 
Q 838 570 867 502 
Q 896 435 947 377 
Q 998 320 1062 320 
Q 1222 320 1369 480 
Q 1517 640 1638 928 
Q 1760 1216 1862 1542 
Q 1965 1869 2057 2288 
Q 2150 2707 2214 3033 
Q 2278 3360 2348 3741 
Q 2419 4122 2458 4294 
L 2630 4294 
Q 2682 4166 2874 3680 
Q 3066 3194 3142 3008 
Q 3219 2822 3392 2422 
Q 3565 2022 3683 1798 
Q 3802 1574 3968 1292 
Q 4134 1011 4294 800 
z
" transform="scale(0.015625)"/>
    </defs>
    <use xlink:href="#DejaVuSans-4c" transform="translate(0 0.015625)"/>
    <use xlink:href="#DejaVuSans-6f" transform="translate(55.712891 0.015625)"/>
    <use xlink:href="#DejaVuSans-63" transform="translate(116.894531 0.015625)"/>
    <use xlink:href="#DejaVuSans-61" transform="translate(171.875 0.015625)"/>
    <use xlink:href="#DejaVuSans-6c" transform="translate(233.154297 0.015625)"/>
    <use xlink:href="#DejaVuSans-20" transform="translate(260.9375 0.015625)"/>
    <use xlink:href="#DejaVuSans-64" transform="translate(292.724609 0.015625)"/>
    <use xlink:href="#DejaVuSans-65" transform="translate(356.201172 0.015625)"/>
    <use xlink:href="#DejaVuSans-6e" transform="translate(417.724609 0.015625)"/>
    <use xlink:href="#DejaVuSans-73" transform="translate(481.103516 0.015625)"/>
    <use xlink:href="#DejaVuSans-69" transform="translate(533.203125 0.015625)"/>
    <use xlink:href="#DejaVuSans-74" transform="translate(560.986328 0.015625)"/>
    <use xlink:href="#DejaVuSans-79" transform="translate(600.195312 0.015625)"/>
    <use xlink:href="#DejaVuSans-20" transform="translate(659.375 0.015625)"/>
    <use xlink:href="#DejaVuSans-Oblique-3c1" transform="translate(691.162109 0.015625)"/>
    <use xlink:href="#STIXNonUnicode-Italic-e23a" transform="translate(754.638672 -16.390625) scale(0.7)"/>
   </g>
  </g>
  <g id="text_26">
   <!-- Phenotypic switch probability -->
   <g transform="translate(15.648038 197.735156) rotate(-90) scale(0.1 -0.1)">
    <defs>
     <path id="DejaVuSans-50" d="M 1259 4147 
L 1259 2394 
L 2053 2394 
Q 2494 2394 2734 2622 
Q 2975 2850 2975 3272 
Q 2975 3691 2734 3919 
Q 2494 4147 2053 4147 
L 1259 4147 
z
M 628 4666 
L 2053 4666 
Q 2838 4666 3239 4311 
Q 3641 3956 3641 3272 
Q 3641 2581 3239 2228 
Q 2838 1875 2053 1875 
L 1259 1875 
L 1259 0 
L 628 0 
L 628 4666 
z
" transform="scale(0.015625)"/>
     <path id="DejaVuSans-68" d="M 3513 2113 
L 3513 0 
L 2938 0 
L 2938 2094 
Q 2938 2591 2744 2837 
Q 2550 3084 2163 3084 
Q 1697 3084 1428 2787 
Q 1159 2491 1159 1978 
L 1159 0 
L 581 0 
L 581 4863 
L 1159 4863 
L 1159 2956 
Q 1366 3272 1645 3428 
Q 1925 3584 2291 3584 
Q 2894 3584 3203 3211 
Q 3513 2838 3513 2113 
z
" transform="scale(0.015625)"/>
     <path id="DejaVuSans-70" d="M 1159 525 
L 1159 -1331 
L 581 -1331 
L 581 3500 
L 1159 3500 
L 1159 2969 
Q 1341 3281 1617 3432 
Q 1894 3584 2278 3584 
Q 2916 3584 3314 3078 
Q 3713 2572 3713 1747 
Q 3713 922 3314 415 
Q 2916 -91 2278 -91 
Q 1894 -91 1617 61 
Q 1341 213 1159 525 
z
M 3116 1747 
Q 3116 2381 2855 2742 
Q 2594 3103 2138 3103 
Q 1681 3103 1420 2742 
Q 1159 2381 1159 1747 
Q 1159 1113 1420 752 
Q 1681 391 2138 391 
Q 2594 391 2855 752 
Q 3116 1113 3116 1747 
z
" transform="scale(0.015625)"/>
     <path id="DejaVuSans-77" d="M 269 3500 
L 844 3500 
L 1563 769 
L 2278 3500 
L 2956 3500 
L 3675 769 
L 4391 3500 
L 4966 3500 
L 4050 0 
L 3372 0 
L 2619 2869 
L 1863 0 
L 1184 0 
L 269 3500 
z
" transform="scale(0.015625)"/>
     <path id="DejaVuSans-72" d="M 2631 2963 
Q 2534 3019 2420 3045 
Q 2306 3072 2169 3072 
Q 1681 3072 1420 2755 
Q 1159 2438 1159 1844 
L 1159 0 
L 581 0 
L 581 3500 
L 1159 3500 
L 1159 2956 
Q 1341 3275 1631 3429 
Q 1922 3584 2338 3584 
Q 2397 3584 2469 3576 
Q 2541 3569 2628 3553 
L 2631 2963 
z
" transform="scale(0.015625)"/>
     <path id="DejaVuSans-62" d="M 3116 1747 
Q 3116 2381 2855 2742 
Q 2594 3103 2138 3103 
Q 1681 3103 1420 2742 
Q 1159 2381 1159 1747 
Q 1159 1113 1420 752 
Q 1681 391 2138 391 
Q 2594 391 2855 752 
Q 3116 1113 3116 1747 
z
M 1159 2969 
Q 1341 3281 1617 3432 
Q 1894 3584 2278 3584 
Q 2916 3584 3314 3078 
Q 3713 2572 3713 1747 
Q 3713 922 3314 415 
Q 2916 -91 2278 -91 
Q 1894 -91 1617 61 
Q 1341 213 1159 525 
L 1159 0 
L 581 0 
L 581 4863 
L 1159 4863 
L 1159 2969 
z
" transform="scale(0.015625)"/>
    </defs>
    <use xlink:href="#DejaVuSans-50"/>
    <use xlink:href="#DejaVuSans-68" x="60.302734"/>
    <use xlink:href="#DejaVuSans-65" x="123.681641"/>
    <use xlink:href="#DejaVuSans-6e" x="185.205078"/>
    <use xlink:href="#DejaVuSans-6f" x="248.583984"/>
    <use xlink:href="#DejaVuSans-74" x="309.765625"/>
    <use xlink:href="#DejaVuSans-79" x="348.974609"/>
    <use xlink:href="#DejaVuSans-70" x="408.154297"/>
    <use xlink:href="#DejaVuSans-69" x="471.630859"/>
    <use xlink:href="#DejaVuSans-63" x="499.414062"/>
    <use xlink:href="#DejaVuSans-20" x="554.394531"/>
    <use xlink:href="#DejaVuSans-73" x="586.181641"/>
    <use xlink:href="#DejaVuSans-77" x="638.28125"/>
    <use xlink:href="#DejaVuSans-69" x="720.068359"/>
    <use xlink:href="#DejaVuSans-74" x="747.851562"/>
    <use xlink:href="#DejaVuSans-63" x="787.060547"/>
    <use xlink:href="#DejaVuSans-68" x="842.041016"/>
    <use xlink:href="#DejaVuSans-20" x="905.419922"/>
    <use xlink:href="#DejaVuSans-70" x="937.207031"/>
    <use xlink:href="#DejaVuSans-72" x="1000.683594"/>
    <use xlink:href="#DejaVuSans-6f" x="1039.546875"/>
    <use xlink:href="#DejaVuSans-62" x="1100.728516"/>
    <use xlink:href="#DejaVuSans-61" x="1164.205078"/>
    <use xlink:href="#DejaVuSans-62" x="1225.484375"/>
    <use xlink:href="#DejaVuSans-69" x="1288.960938"/>
    <use xlink:href="#DejaVuSans-6c" x="1316.744141"/>
    <use xlink:href="#DejaVuSans-69" x="1344.527344"/>
    <use xlink:href="#DejaVuSans-74" x="1372.310547"/>
    <use xlink:href="#DejaVuSans-79" x="1411.519531"/>
   </g>
  </g>
 </g>
 <defs>
  <clipPath id="p26af210960">
   <rect x="54.580708" y="14.731508" width="140.542575" height="182.200037"/>
  </clipPath>
  <clipPath id="p5e06555f0f">
   <rect x="239.989204" y="14.731508" width="140.542575" height="182.200037"/>
  </clipPath>
 </defs>
</svg>
